<svg width="480" height="325" viewBox="0 0 480 325" fill="none" xmlns="http://www.w3.org/2000/svg">
<path d="M118.59 118.482C121.79 112.437 122.319 104.564 118.339 99.0014C115.97 95.6903 112.272 93.5168 108.391 92.2909C104.51 91.0649 100.416 90.7046 96.3571 90.4066C92.3392 90.1117 88.25 89.8756 84.3252 90.7849C80.4004 91.6941 76.5987 93.9153 74.6868 97.4633C71.4569 103.457 74.3992 111.143 72.0268 117.525C69.8498 123.382 63.6538 126.806 57.5629 128.188C51.472 129.57 45.1146 129.423 39.0207 130.791C32.9268 132.16 26.7205 135.552 24.5048 141.395C22.9026 145.62 23.6987 150.486 25.8099 154.481C27.9211 158.476 31.2275 161.71 34.7373 164.554C39.9731 168.797 46.0987 172.43 52.8263 172.798C59.915 173.186 66.8462 169.809 71.9483 164.87C77.0504 159.931 80.5238 153.548 83.299 147.01C85.0595 142.862 86.7228 138.398 90.2509 135.598C92.8434 133.539 96.1407 132.638 99.3384 131.785L102.959 130.819C106.24 129.96 109.311 128.439 111.983 126.348C114.654 124.258 116.87 121.642 118.493 118.663C118.526 118.603 118.558 118.542 118.59 118.482Z" fill="#2F2E41"/>
<path d="M90.0332 317.329H82.679L79.1797 288.944H90.035L90.0332 317.329Z" fill="#FFB8B8"/>
<path d="M77.4249 315.226H91.6091V324.161H68.4941C68.4941 322.988 68.7251 321.826 69.1739 320.742C69.6228 319.658 70.2806 318.673 71.1099 317.843C71.9392 317.013 72.9237 316.355 74.0072 315.906C75.0908 315.457 76.2521 315.226 77.4249 315.226Z" fill="#2F2E41"/>
<path d="M151.224 317.329H143.869L140.37 288.944H151.225L151.224 317.329Z" fill="#FFB8B8"/>
<path d="M138.616 315.226H152.8V324.161H129.686C129.686 322.988 129.917 321.826 130.365 320.742C130.814 319.658 131.472 318.673 132.301 317.843C133.131 317.013 134.115 316.355 135.199 315.906C136.282 315.457 137.443 315.226 138.616 315.226Z" fill="#2F2E41"/>
<path d="M104.172 294.769C104.069 294.769 103.967 294.763 103.865 294.752L73.9429 291.545C73.5455 291.502 73.1618 291.375 72.8172 291.173C72.4726 290.97 72.1751 290.696 71.9444 290.37C71.7138 290.043 71.5554 289.671 71.4797 289.278C71.404 288.886 71.4127 288.481 71.5053 288.092L97.9988 187.269C98.1229 186.756 98.3877 186.288 98.7636 185.918C99.1394 185.547 99.6111 185.289 100.126 185.173L124.703 178.318C125.196 178.21 125.708 178.235 126.188 178.391C126.668 178.548 127.097 178.83 127.431 179.208C143.233 197.041 155.141 236.574 164.162 286.402C164.23 286.778 164.221 287.164 164.135 287.537C164.049 287.909 163.889 288.26 163.663 288.568C163.437 288.877 163.151 289.136 162.822 289.33C162.493 289.524 162.128 289.649 161.749 289.697L137.232 292.829C136.537 292.92 135.833 292.747 135.259 292.344C134.685 291.941 134.282 291.338 134.13 290.652L122.202 237.442C122.092 236.952 121.818 236.515 121.424 236.203C121.031 235.892 120.543 235.725 120.041 235.731C119.54 235.737 119.055 235.915 118.669 236.235C118.283 236.556 118.019 236.999 117.92 237.491L106.924 292.504C106.799 293.143 106.456 293.718 105.954 294.131C105.452 294.544 104.822 294.77 104.172 294.769Z" fill="#2F2E41"/>
<path d="M99.6201 132.327C107.758 132.327 114.354 125.727 114.354 117.584C114.354 109.442 107.758 102.842 99.6201 102.842C91.4825 102.842 84.8857 109.442 84.8857 117.584C84.8857 125.727 91.4825 132.327 99.6201 132.327Z" fill="#FFB8B8"/>
<path d="M99.2081 187.552C98.5887 187.551 97.9869 187.346 97.4963 186.967C97.0057 186.589 96.6539 186.059 96.4957 185.46L87.6316 152.14C86.9918 149.746 87.2568 147.2 88.3758 144.989C89.4948 142.778 91.3893 141.058 93.6967 140.157C100.832 137.37 107.63 136.336 113.902 137.083C119.476 137.748 126.353 170.768 125.898 171.472L128.097 178.075C128.222 178.449 128.267 178.845 128.229 179.238C128.19 179.631 128.07 180.012 127.875 180.355C127.68 180.698 127.416 180.997 127.098 181.231C126.781 181.465 126.418 181.63 126.033 181.715L99.8196 187.485C99.6188 187.529 99.4138 187.552 99.2081 187.552Z" fill="#CCCCCC"/>
<path d="M107.153 221.626C107.279 220.971 107.26 220.295 107.097 219.647C106.935 219 106.632 218.396 106.21 217.878C105.789 217.36 105.259 216.941 104.658 216.65C104.057 216.359 103.4 216.204 102.733 216.194L97.6259 200.786L92.4062 207.411L98.0561 221.027C98.115 222.15 98.5835 223.212 99.3728 224.013C100.162 224.813 101.217 225.296 102.339 225.37C103.46 225.443 104.569 225.103 105.457 224.413C106.344 223.723 106.948 222.732 107.153 221.626Z" fill="#FFB8B8"/>
<path d="M172.811 184.596C172.505 184.002 172.073 183.483 171.545 183.074C171.017 182.666 170.406 182.378 169.755 182.232C169.104 182.085 168.428 182.083 167.776 182.226C167.124 182.369 166.512 182.653 165.981 183.058L152.45 174.102L152.438 182.537L165.289 189.75C166.029 190.596 167.053 191.141 168.168 191.283C169.283 191.424 170.411 191.151 171.338 190.516C172.265 189.881 172.927 188.927 173.199 187.836C173.47 186.745 173.332 185.592 172.811 184.596H172.811Z" fill="#FFB8B8"/>
<path d="M96.4455 214.507C95.8537 214.507 95.2769 214.321 94.7972 213.974C94.3175 213.627 93.9593 213.138 93.7735 212.576L81.8013 187.236C81.3103 185.751 81.0602 184.196 81.0605 182.632L84.66 149.696C84.6599 147.852 85.3631 146.077 86.6263 144.734C87.8894 143.392 89.6172 142.582 91.4569 142.47C93.2965 142.359 95.1094 142.954 96.5253 144.134C97.9412 145.315 98.8534 146.992 99.0758 148.822L93.5688 186.416L102.357 209.49C102.496 210.103 102.425 210.746 102.155 211.315C101.886 211.884 101.433 212.345 100.87 212.626L97.7036 214.21C97.313 214.406 96.8822 214.507 96.4455 214.507Z" fill="#CCCCCC"/>
<path d="M160.386 187.923C159.945 187.923 159.511 187.819 159.117 187.62L135.308 175.587C133.913 174.882 132.639 173.958 131.536 172.85L108.297 149.523C106.996 148.217 106.242 146.463 106.189 144.62C106.137 142.777 106.789 140.983 108.014 139.605C109.238 138.226 110.942 137.367 112.777 137.204C114.613 137.04 116.442 137.583 117.891 138.722L143.065 166.695L163.019 179.372C163.551 179.709 163.954 180.214 164.165 180.807C164.375 181.401 164.38 182.047 164.179 182.644L163.054 186.002C162.867 186.562 162.508 187.048 162.029 187.393C161.551 187.737 160.976 187.923 160.386 187.923L160.386 187.923Z" fill="#CCCCCC"/>
<path d="M82.8604 109.962C85.3632 113.238 88.961 115.503 92.9959 116.343C97.0857 117.189 101.342 116.579 105.03 114.618C107.998 113.014 110.372 110.606 112.698 108.236C113.669 107.246 114.703 106.105 114.654 104.756C114.578 102.665 112.066 101.522 109.909 101.065C102.831 99.5881 95.4663 100.417 88.893 103.43C85.9654 104.791 82.9152 107.253 83.3548 110.313" fill="#2F2E41"/>
<path d="M469.802 113.714H180.646C177.942 113.718 175.35 114.794 173.439 116.707C171.527 118.62 170.451 121.213 170.447 123.918V235.564C170.451 238.269 171.527 240.862 173.439 242.775C175.35 244.688 177.942 245.764 180.646 245.768H469.802C472.505 245.764 475.097 244.688 477.009 242.775C478.921 240.862 479.996 238.269 480 235.564V123.918C479.996 121.213 478.921 118.62 477.009 116.707C475.097 114.794 472.505 113.718 469.802 113.714ZM478.8 235.564C478.797 237.951 477.848 240.239 476.161 241.927C474.474 243.615 472.187 244.564 469.802 244.567H180.646C178.26 244.564 175.973 243.615 174.286 241.927C172.599 240.239 171.65 237.951 171.647 235.564V123.918C171.65 121.531 172.599 119.243 174.286 117.555C175.973 115.867 178.26 114.917 180.646 114.914H469.802C472.187 114.917 474.474 115.867 476.161 117.555C477.848 119.243 478.797 121.531 478.8 123.918V235.564Z" fill="white"/>
<path d="M233.146 214.555C226.265 214.555 219.537 212.513 213.815 208.688C208.093 204.863 203.634 199.425 201 193.064C198.367 186.702 197.678 179.702 199.02 172.949C200.363 166.196 203.677 159.992 208.543 155.124C213.409 150.255 219.609 146.939 226.358 145.596C233.108 144.252 240.104 144.942 246.462 147.577C252.82 150.212 258.254 154.674 262.077 160.399C265.9 166.124 267.941 172.855 267.941 179.741C267.931 188.971 264.261 197.82 257.738 204.347C251.215 210.874 242.371 214.545 233.146 214.555ZM233.146 146.127C226.502 146.127 220.007 148.099 214.482 151.792C208.957 155.486 204.651 160.735 202.109 166.878C199.566 173.02 198.901 179.778 200.197 186.299C201.493 192.819 204.693 198.809 209.391 203.51C214.089 208.21 220.075 211.412 226.592 212.709C233.109 214.006 239.864 213.34 246.002 210.796C252.141 208.252 257.388 203.944 261.079 198.416C264.771 192.888 266.741 186.389 266.741 179.741C266.731 170.829 263.188 162.285 256.89 155.984C250.592 149.682 242.053 146.137 233.146 146.127Z" fill="white"/>
<path d="M443.996 157.532H305.417C303.48 157.533 301.619 158.285 300.223 159.628C298.828 160.972 298.006 162.805 297.93 164.741C297.92 164.839 297.916 164.937 297.918 165.035C297.921 167.024 298.712 168.931 300.118 170.338C301.524 171.744 303.429 172.536 305.417 172.538H443.996C445.985 172.538 447.892 171.748 449.299 170.341C450.705 168.934 451.495 167.025 451.495 165.035C451.495 163.045 450.705 161.137 449.299 159.73C447.892 158.323 445.985 157.532 443.996 157.532Z" fill="#5ECFC4"/>
<path d="M443.996 186.943H305.417C303.48 186.944 301.619 187.696 300.223 189.04C298.828 190.383 298.006 192.216 297.93 194.152C297.92 194.25 297.916 194.348 297.918 194.446C297.921 196.436 298.712 198.342 300.118 199.749C301.524 201.155 303.429 201.947 305.417 201.95H443.996C445.985 201.95 447.892 201.159 449.299 199.752C450.705 198.345 451.495 196.436 451.495 194.446C451.495 192.457 450.705 190.548 449.299 189.141C447.892 187.734 445.985 186.943 443.996 186.943Z" fill="#5ECFC4"/>
<path d="M229.264 194.952C228.293 194.954 227.348 194.639 226.571 194.057L226.523 194.021L216.382 186.252C215.913 185.892 215.519 185.443 215.222 184.93C214.926 184.418 214.734 183.852 214.656 183.265C214.579 182.678 214.617 182.082 214.77 181.51C214.923 180.938 215.186 180.402 215.546 179.932C215.906 179.462 216.355 179.068 216.867 178.771C217.379 178.475 217.945 178.283 218.531 178.205C219.118 178.127 219.714 178.166 220.286 178.319C220.857 178.471 221.393 178.735 221.863 179.096L228.431 184.135L243.954 163.88C244.314 163.41 244.762 163.016 245.275 162.72C245.787 162.424 246.353 162.231 246.939 162.154C247.526 162.077 248.122 162.115 248.693 162.268C249.265 162.421 249.801 162.686 250.27 163.046L250.174 163.177L250.273 163.048C251.22 163.776 251.839 164.851 251.996 166.035C252.152 167.22 251.832 168.419 251.107 169.368L232.849 193.193C232.426 193.742 231.883 194.186 231.262 194.491C230.64 194.796 229.957 194.954 229.264 194.952Z" fill="#5ECFC4"/>
</svg>
