<svg width="193" height="169" viewBox="0 0 193 169" fill="none" xmlns="http://www.w3.org/2000/svg">
<path d="M202.827 45.6263C201.526 48.5584 200.459 50.6866 198.31 53.0521C199.71 37.037 194.837 20.5931 184.871 8.06889C185.325 10.1359 185.393 11.7665 185.166 13.8717C183.433 9.98274 180.543 6.62967 176.971 4.36367C173.786 2.3503 170.154 1.20964 166.559 0.0996094C170.925 4.57037 172.893 10.932 173.824 17.1482C174.535 21.8792 175.201 27.3605 172.34 31.1729C171.402 28.9682 169.775 26.2888 167.823 24.9338C169.563 30.0016 167.558 35.5595 165.228 40.3824C163.555 43.8426 161.656 47.2569 158.947 49.9669C156.299 52.6157 152.765 54.5372 149.05 54.5832C148.074 53.1439 147.158 51.6511 146.311 50.143C145.244 48.2368 144.51 46.3306 144.843 44.1718L146.28 37.0063C146.303 32.0992 143.443 26.4725 139.13 24.2141C134.771 21.9405 129.497 22.2467 124.98 20.3099C121.348 18.7558 118.366 15.7243 116.838 12.0497C115.983 16.7118 116.823 21.6726 119.161 25.7759C115.952 24.4362 113.009 22.4381 110.565 19.9348C112.056 28.149 118.624 34.8552 119.706 43.1307C120.016 45.4732 119.721 48.1832 117.882 49.6454C116.838 50.4722 115.468 50.7478 114.152 50.7937C112.472 50.855 110.777 50.587 109.195 50.0052C107.417 49.3545 105.578 47.9383 105.669 46.0321L105.374 45.7641C105.586 48.2062 105.805 50.6406 106.017 53.0827C106.032 53.2894 106.047 53.5114 105.926 53.6722C105.783 53.8636 105.518 53.8942 105.283 53.8789C103.202 53.7947 101.666 51.9191 100.622 50.0971C98.5109 46.4148 97.2548 42.235 96.9673 37.9862C95.8928 40.1297 94.1676 44.1029 93.8725 46.4914C89.3551 39.3183 86.4267 30.882 80.1387 25.2323C73.9187 19.6439 65.3531 17.6535 57.1053 16.5434C38.3471 14.0095 18.3177 12.5014 0.792969 5.27467C5.87787 12.2258 12.6426 17.9137 20.3381 21.7032C17.6973 21.9328 14.5041 22.285 11.8632 22.5146C15.0489 26.9778 19.3922 31.0504 24.288 33.4313C29.1913 35.8198 35.0177 38.1087 40.2388 39.6475C37.1516 40.3364 32.7098 41.0407 29.7058 40.0455C33.5497 42.2273 38.9449 44.5699 42.925 46.4837C46.8976 48.4052 50.7491 51.0464 52.8451 54.9659C49.8184 55.0654 46.5344 54.5755 43.5228 53.6492C50.3178 59.6663 56.1443 63.1955 58.6565 70.2385C55.9702 70.1236 55.1909 71.1418 51.0064 69.1591C53.1327 72.4585 56.0308 75.1532 58.5354 78.1618C61.04 81.1704 63.2268 84.7072 63.4614 88.6421L63.4463 88.5885C60.9946 88.711 58.5051 87.6545 56.8783 85.7943L56.5226 85.2354C58.1949 89.8287 62.5004 92.8066 66.5638 95.4707C69.4619 97.3692 72.7459 99.5587 75.6364 101.457C73.4118 101.802 71.1493 101.909 68.9019 101.794C68.2058 101.756 67.381 101.626 67.0632 100.99C69.7948 106.395 76.7336 107.237 81.932 107.773C87.1304 108.309 92.3818 107.627 97.5197 106.655C94.9772 108.156 91.0198 109.549 88.1746 110.299C92.6315 111.019 97.5272 111.195 101.825 109.802C100.947 113.093 98.3293 115.849 95.7263 118.016C94.8183 118.774 93.8498 119.555 92.6845 119.715C95.3177 120.267 98.4504 120.672 100.72 119.202C101.659 127.93 98.458 138.196 91.0198 142.72C89.4005 143.7 87.6525 144.427 85.9046 145.154C84.0432 145.928 81.7882 146.923 79.9192 147.696V147.849C81.8109 148.638 83.9826 148.569 85.9197 147.91H86.0862C78.8145 152.366 70.8618 157.724 64.3846 163.29C57.8998 168.855 52.202 175.546 48.9634 183.5L48.9936 183.554C51.2712 180.683 53.8591 178.141 56.9615 176.212H57.0372C52.376 180.829 48.7364 188.645 47.2608 195.075C45.7853 201.506 45.6188 208.166 45.755 214.765C45.9366 223.913 46.7614 233.375 51.0972 241.406L51.1426 240.931C49.372 228.728 52.8527 215.967 60.1093 206.053L60.2152 206.26C60.4801 208.564 59.5721 211.527 59.0651 213.793L59.2996 213.655C67.5323 209.498 73.9112 201.743 76.726 192.878L76.8017 193.108C77.3692 195.757 76.3704 200.526 75.4397 203.075L75.6364 203.083C89.2945 195.182 99.4417 181.51 103.777 166.207L103.929 166.796C104.315 170.08 106.184 174.153 109.082 175.669L108.9 175.294C108.333 169.177 109.407 162.907 111.987 157.342C113.826 153.376 116.565 150.115 120.432 148.132C132.849 142.567 144.056 133.403 151.895 122.211V122.219C154.906 121.844 160.998 120.305 163.707 118.919C166.166 117.664 168.406 116.025 170.638 114.387C173.884 112.014 177.138 109.633 180.149 106.954C185.605 102.093 190.576 95.509 194.05 89.0478C192.862 90.265 190.925 91.1148 189.237 91.0612C201.609 80.0527 207.102 61.7257 202.827 45.6263Z" fill="white"/>
<path d="M140.97 35.5611C140.099 34.3056 138.677 33.4558 137.163 33.3104C135.658 33.1573 134.091 33.7085 132.994 34.7726C133.191 35.5075 133.917 35.9668 134.629 36.2194C136.52 36.9008 138.715 36.6481 140.402 35.5534L140.97 35.5611Z" fill="#433373"/>
<path d="M147.477 36.3105C146.41 35.9201 145.169 35.6292 144.178 36.1957C142.581 37.1067 142.604 39.6482 141.083 40.697C140.614 41.0186 140.046 41.164 139.592 41.5085C139.138 41.853 138.881 42.519 139.199 42.9937C140.833 45.4281 144.753 44.0731 144.753 44.0731C152.289 43.92 157.745 48.2147 157.745 48.2147C156.648 43.009 152.433 38.1248 147.477 36.3105Z" fill="#433373"/>
</svg>
