<svg width="1440" height="572" viewBox="0 0 1440 572" fill="none" xmlns="http://www.w3.org/2000/svg">
<path opacity="0.3" d="M227.779 63.5547L235.245 70.7333L211.877 93.3726C210.181 95.0027 199.123 105.452 211.993 117.217C226.02 130.045 237.267 121.267 239.373 119.242C241.48 117.217 262.542 96.967 262.542 96.967L269.914 104.054L246.745 126.329C246.745 126.329 225.883 146.579 203.568 125.317C183.495 106.171 204.347 86.1232 204.347 86.1232L227.779 63.5547Z" fill="white" fill-opacity="0.07"/>
<path opacity="0.3" d="M277.486 111.273L270.019 104.095L293.388 81.4552C295.083 79.8251 306.141 69.3761 293.272 57.6109C279.244 44.7825 267.997 53.5609 265.891 55.5859C263.785 57.6109 242.722 77.8609 242.722 77.8609L235.351 70.7734L258.519 48.4984C258.519 48.4984 279.381 28.2483 301.697 49.5109C321.769 68.6572 300.917 88.7048 300.917 88.7048L277.486 111.273Z" fill="white" fill-opacity="0.07"/>
<path opacity="0.3" d="M228.042 141.213L235.508 148.391L212.14 171.031C210.444 172.661 199.387 183.11 212.256 194.875C226.283 207.704 237.53 198.925 239.637 196.9C241.743 194.875 262.805 174.625 262.805 174.625L270.177 181.713L247.008 203.988C247.008 203.988 226.146 224.238 203.831 202.975C183.758 183.829 204.61 163.781 204.61 163.781L228.042 141.213Z" fill="white" fill-opacity="0.07"/>
<path opacity="0.3" d="M277.738 188.932L270.272 181.754L293.64 159.114C295.336 157.484 306.393 147.035 293.524 135.27C279.497 122.442 268.25 131.22 266.143 133.245C264.037 135.27 242.975 155.52 242.975 155.52L235.603 148.432L258.772 126.158C258.772 126.158 279.634 105.908 301.949 127.17C322.021 146.316 301.17 166.364 301.17 166.364L277.738 188.932Z" fill="white" fill-opacity="0.07"/>
<path opacity="0.3" d="M228.042 221.2L235.508 228.379L212.14 251.018C210.444 252.648 199.387 263.097 212.256 274.863C226.283 287.691 237.53 278.913 239.637 276.888C241.743 274.863 262.805 254.613 262.805 254.613L270.177 261.7L247.008 283.975C247.008 283.975 226.146 304.225 203.831 282.963C183.758 263.816 204.61 243.769 204.61 243.769L228.042 221.2Z" fill="white" fill-opacity="0.07"/>
<path opacity="0.3" d="M277.738 268.92L270.272 261.741L293.64 239.102C295.336 237.471 306.393 227.022 293.524 215.257C279.497 202.429 268.25 211.207 266.143 213.232C264.037 215.257 242.975 235.507 242.975 235.507L235.603 228.42L258.772 206.145C258.772 206.145 279.634 185.895 301.949 207.157C322.021 226.304 301.17 246.351 301.17 246.351L277.738 268.92Z" fill="white" fill-opacity="0.07"/>
<path opacity="0.3" d="M228.042 301.188L235.508 308.366L212.14 331.006C210.444 332.636 199.387 343.085 212.256 354.85C226.283 367.678 237.53 358.9 239.637 356.875C241.743 354.85 262.805 334.6 262.805 334.6L270.177 341.688L247.008 363.963C247.008 363.963 226.146 384.213 203.831 362.95C183.758 343.804 204.61 323.756 204.61 323.756L228.042 301.188Z" fill="white" fill-opacity="0.07"/>
<path opacity="0.3" d="M277.738 348.907L270.272 341.728L293.64 319.089C295.336 317.459 306.393 307.01 293.524 295.245C279.497 282.416 268.25 291.195 266.143 293.22C264.037 295.245 242.975 315.495 242.975 315.495L235.603 308.407L258.772 286.132C258.772 286.132 279.634 265.882 301.949 287.145C322.021 306.291 301.17 326.338 301.17 326.338L277.738 348.907Z" fill="white" fill-opacity="0.07"/>
<path opacity="0.3" d="M228.042 381.176L235.508 388.354L212.14 410.994C210.444 412.624 199.387 423.073 212.256 434.838C226.283 447.666 237.53 438.888 239.637 436.863C241.743 434.838 262.805 414.588 262.805 414.588L270.177 421.676L247.008 443.951C247.008 443.951 226.146 464.201 203.831 442.938C183.758 423.792 204.61 403.744 204.61 403.744L228.042 381.176Z" fill="white" fill-opacity="0.07"/>
<path opacity="0.3" d="M277.738 428.894L270.272 421.716L293.64 399.076C295.336 397.446 306.393 386.997 293.524 375.232C279.497 362.404 268.25 371.182 266.143 373.207C264.037 375.232 242.975 395.482 242.975 395.482L235.603 388.394L258.772 366.119C258.772 366.119 279.634 345.869 301.949 367.132C322.021 386.278 301.17 406.326 301.17 406.326L277.738 428.894Z" fill="white" fill-opacity="0.07"/>
<path opacity="0.3" d="M228.042 461.163L235.508 468.342L212.14 490.981C210.444 492.611 199.387 503.06 212.256 514.825C226.283 527.654 237.53 518.875 239.637 516.85C241.743 514.825 262.805 494.576 262.805 494.576L270.177 501.663L247.008 523.938C247.008 523.938 226.146 544.188 203.831 522.925C183.758 503.779 204.61 483.732 204.61 483.732L228.042 461.163Z" fill="white" fill-opacity="0.07"/>
<path opacity="0.3" d="M277.738 508.883L270.272 501.704L293.64 479.064C295.336 477.434 306.393 466.985 293.524 455.22C279.497 442.392 268.25 451.17 266.143 453.195C264.037 455.22 242.975 475.47 242.975 475.47L235.603 468.383L258.772 446.108C258.772 446.108 279.634 425.858 301.949 447.12C322.021 466.267 301.17 486.314 301.17 486.314L277.738 508.883Z" fill="white" fill-opacity="0.07"/>
<path opacity="0.3" d="M228.042 543.174L235.508 550.352L212.14 572.992C210.444 574.622 199.387 585.071 212.256 596.836C226.283 609.665 237.53 600.886 239.637 598.861C241.743 596.836 262.805 576.586 262.805 576.586L270.177 583.674L247.008 605.949C247.008 605.949 226.146 626.199 203.831 604.936C183.758 585.79 204.61 565.743 204.61 565.743L228.042 543.174Z" fill="white" fill-opacity="0.07"/>
<path opacity="0.3" d="M277.738 590.894L270.272 583.715L293.64 561.075C295.336 559.445 306.393 548.996 293.524 537.231C279.497 524.403 268.25 533.181 266.143 535.206C264.037 537.231 242.975 557.481 242.975 557.481L235.603 550.393L258.772 528.118C258.772 528.118 279.634 507.868 301.949 529.131C322.021 548.277 301.17 568.325 301.17 568.325L277.738 590.894Z" fill="white" fill-opacity="0.07"/>
<path opacity="0.3" d="M690.096 63.5547L697.562 70.7333L674.194 93.3726C672.498 95.0027 661.44 105.452 674.309 117.217C688.337 130.045 699.584 121.267 701.69 119.242C703.797 117.217 724.859 96.967 724.859 96.967L732.231 104.054L709.062 126.329C709.062 126.329 688.2 146.579 665.885 125.317C645.812 106.171 666.664 86.1232 666.664 86.1232L690.096 63.5547Z" fill="white" fill-opacity="0.07"/>
<path opacity="0.3" d="M739.803 111.273L732.336 104.095L755.705 81.4552C757.4 79.8251 768.458 69.3761 755.589 57.6109C741.561 44.7825 730.314 53.5609 728.208 55.5859C726.102 57.6109 705.039 77.8609 705.039 77.8609L697.667 70.7734L720.836 48.4984C720.836 48.4984 741.698 28.2483 764.014 49.5109C784.086 68.6572 763.234 88.7048 763.234 88.7048L739.803 111.273Z" fill="white" fill-opacity="0.07"/>
<path opacity="0.3" d="M690.359 141.213L697.826 148.391L674.457 171.031C672.762 172.661 661.704 183.11 674.562 194.875C688.59 207.704 699.837 198.925 701.943 196.9C704.05 194.875 725.112 174.625 725.112 174.625L732.484 181.713L709.315 203.988C709.315 203.988 688.453 224.238 666.137 202.975C646.065 183.829 666.917 163.781 666.917 163.781L690.359 141.213Z" fill="white" fill-opacity="0.07"/>
<path opacity="0.3" d="M740.055 188.932L732.589 181.754L755.957 159.114C757.653 157.484 768.71 147.035 755.852 135.27C741.824 122.442 730.577 131.22 728.471 133.245C726.365 135.27 705.302 155.52 705.302 155.52L697.931 148.432L721.099 126.158C721.099 126.158 741.961 105.908 764.277 127.17C784.349 146.316 763.498 166.364 763.498 166.364L740.055 188.932Z" fill="white" fill-opacity="0.07"/>
<path opacity="0.3" d="M690.359 221.2L697.826 228.379L674.457 251.018C672.762 252.648 661.704 263.097 674.562 274.863C688.59 287.691 699.837 278.913 701.943 276.888C704.05 274.863 725.112 254.613 725.112 254.613L732.484 261.7L709.315 283.975C709.315 283.975 688.453 304.225 666.137 282.963C646.065 263.816 666.917 243.769 666.917 243.769L690.359 221.2Z" fill="white" fill-opacity="0.07"/>
<path opacity="0.3" d="M740.055 268.92L732.589 261.741L755.957 239.102C757.653 237.471 768.71 227.022 755.852 215.257C741.824 202.429 730.577 211.207 728.471 213.232C726.365 215.257 705.302 235.507 705.302 235.507L697.931 228.42L721.099 206.145C721.099 206.145 741.961 185.895 764.277 207.157C784.349 226.304 763.498 246.351 763.498 246.351L740.055 268.92Z" fill="white" fill-opacity="0.07"/>
<path opacity="0.3" d="M690.359 301.188L697.826 308.366L674.457 331.006C672.762 332.636 661.704 343.085 674.562 354.85C688.59 367.678 699.837 358.9 701.943 356.875C704.05 354.85 725.112 334.6 725.112 334.6L732.484 341.688L709.315 363.963C709.315 363.963 688.453 384.213 666.137 362.95C646.065 343.804 666.917 323.756 666.917 323.756L690.359 301.188Z" fill="white" fill-opacity="0.07"/>
<path opacity="0.3" d="M740.055 348.907L732.589 341.728L755.957 319.089C757.653 317.459 768.71 307.01 755.852 295.245C741.824 282.416 730.577 291.195 728.471 293.22C726.365 295.245 705.302 315.495 705.302 315.495L697.931 308.407L721.099 286.132C721.099 286.132 741.961 265.882 764.277 287.145C784.349 306.291 763.498 326.338 763.498 326.338L740.055 348.907Z" fill="white" fill-opacity="0.07"/>
<path opacity="0.3" d="M690.359 381.176L697.826 388.354L674.457 410.994C672.762 412.624 661.704 423.073 674.562 434.838C688.59 447.666 699.837 438.888 701.943 436.863C704.05 434.838 725.112 414.588 725.112 414.588L732.484 421.676L709.315 443.951C709.315 443.951 688.453 464.201 666.137 442.938C646.065 423.792 666.917 403.744 666.917 403.744L690.359 381.176Z" fill="white" fill-opacity="0.07"/>
<path opacity="0.3" d="M740.055 428.894L732.589 421.716L755.957 399.076C757.653 397.446 768.71 386.997 755.852 375.232C741.824 362.404 730.577 371.182 728.471 373.207C726.365 375.232 705.302 395.482 705.302 395.482L697.931 388.394L721.099 366.119C721.099 366.119 741.961 345.869 764.277 367.132C784.349 386.278 763.498 406.326 763.498 406.326L740.055 428.894Z" fill="white" fill-opacity="0.07"/>
<path opacity="0.3" d="M690.359 461.163L697.826 468.342L674.457 490.981C672.762 492.611 661.704 503.06 674.562 514.825C688.59 527.654 699.837 518.875 701.943 516.85C704.05 514.825 725.112 494.576 725.112 494.576L732.484 501.663L709.315 523.938C709.315 523.938 688.453 544.188 666.137 522.925C646.065 503.779 666.917 483.732 666.917 483.732L690.359 461.163Z" fill="white" fill-opacity="0.07"/>
<path opacity="0.3" d="M740.055 508.883L732.589 501.704L755.957 479.064C757.653 477.434 768.71 466.985 755.852 455.22C741.824 442.392 730.577 451.17 728.471 453.195C726.365 455.22 705.302 475.47 705.302 475.47L697.931 468.383L721.099 446.108C721.099 446.108 741.961 425.858 764.277 447.12C784.349 466.267 763.498 486.314 763.498 486.314L740.055 508.883Z" fill="white" fill-opacity="0.07"/>
<path opacity="0.3" d="M690.359 543.174L697.826 550.352L674.457 572.992C672.762 574.622 661.704 585.071 674.562 596.836C688.59 609.665 699.837 600.886 701.943 598.861C704.05 596.836 725.112 576.586 725.112 576.586L732.484 583.674L709.315 605.949C709.315 605.949 688.453 626.199 666.137 604.936C646.065 585.79 666.917 565.743 666.917 565.743L690.359 543.174Z" fill="white" fill-opacity="0.07"/>
<path opacity="0.3" d="M740.055 590.894L732.589 583.715L755.957 561.075C757.653 559.445 768.71 548.996 755.852 537.231C741.824 524.403 730.577 533.181 728.471 535.206C726.365 537.231 705.302 557.481 705.302 557.481L697.931 550.393L721.099 528.118C721.099 528.118 741.961 507.868 764.277 529.131C784.349 548.277 763.498 568.325 763.498 568.325L740.055 590.894Z" fill="white" fill-opacity="0.07"/>
<path opacity="0.3" d="M458.411 63.5547L465.877 70.7333L442.509 93.3726C440.813 95.0027 429.755 105.452 442.624 117.217C456.652 130.045 467.899 121.267 470.005 119.242C472.112 117.217 493.174 96.967 493.174 96.967L500.546 104.054L477.377 126.329C477.377 126.329 456.515 146.579 434.199 125.317C414.127 106.171 434.979 86.1232 434.979 86.1232L458.411 63.5547Z" fill="white" fill-opacity="0.07"/>
<path opacity="0.3" d="M508.117 111.273L500.651 104.095L524.02 81.4552C525.715 79.8251 536.773 69.3761 523.904 57.6109C509.876 44.7825 498.629 53.5609 496.523 55.5859C494.416 57.6109 473.354 77.8609 473.354 77.8609L465.982 70.7734L489.151 48.4984C489.151 48.4984 510.013 28.2483 532.329 49.5109C552.401 68.6572 531.549 88.7048 531.549 88.7048L508.117 111.273Z" fill="white" fill-opacity="0.07"/>
<path opacity="0.3" d="M458.674 141.213L466.14 148.391L442.772 171.031C441.076 172.661 430.019 183.11 442.888 194.875C456.915 207.704 468.162 198.925 470.268 196.9C472.375 194.875 493.437 174.625 493.437 174.625L500.809 181.713L477.64 203.988C477.64 203.988 456.778 224.238 434.463 202.975C414.39 183.829 435.242 163.781 435.242 163.781L458.674 141.213Z" fill="white" fill-opacity="0.07"/>
<path opacity="0.3" d="M508.37 188.932L500.904 181.754L524.272 159.114C525.968 157.484 537.025 147.035 524.167 135.27C510.139 122.442 498.892 131.22 496.786 133.245C494.68 135.27 473.617 155.52 473.617 155.52L466.246 148.432L489.414 126.158C489.414 126.158 510.276 105.908 532.592 127.17C552.664 146.316 531.812 166.364 531.812 166.364L508.37 188.932Z" fill="white" fill-opacity="0.07"/>
<path opacity="0.3" d="M458.674 221.2L466.14 228.379L442.772 251.018C441.076 252.648 430.019 263.097 442.888 274.863C456.915 287.691 468.162 278.913 470.268 276.888C472.375 274.863 493.437 254.613 493.437 254.613L500.809 261.7L477.64 283.975C477.64 283.975 456.778 304.225 434.463 282.963C414.39 263.816 435.242 243.769 435.242 243.769L458.674 221.2Z" fill="white" fill-opacity="0.07"/>
<path opacity="0.3" d="M508.37 268.92L500.904 261.741L524.272 239.102C525.968 237.471 537.025 227.022 524.167 215.257C510.139 202.429 498.892 211.207 496.786 213.232C494.68 215.257 473.617 235.507 473.617 235.507L466.246 228.42L489.414 206.145C489.414 206.145 510.276 185.895 532.592 207.157C552.664 226.304 531.812 246.351 531.812 246.351L508.37 268.92Z" fill="white" fill-opacity="0.07"/>
<path opacity="0.3" d="M458.674 301.188L466.14 308.366L442.772 331.006C441.076 332.636 430.019 343.085 442.888 354.85C456.915 367.678 468.162 358.9 470.268 356.875C472.375 354.85 493.437 334.6 493.437 334.6L500.809 341.688L477.64 363.963C477.64 363.963 456.778 384.213 434.463 362.95C414.39 343.804 435.242 323.756 435.242 323.756L458.674 301.188Z" fill="white" fill-opacity="0.07"/>
<path opacity="0.3" d="M508.37 348.907L500.904 341.728L524.272 319.089C525.968 317.459 537.025 307.01 524.167 295.245C510.139 282.416 498.892 291.195 496.786 293.22C494.68 295.245 473.617 315.495 473.617 315.495L466.246 308.407L489.414 286.132C489.414 286.132 510.276 265.882 532.592 287.145C552.664 306.291 531.812 326.338 531.812 326.338L508.37 348.907Z" fill="white" fill-opacity="0.07"/>
<path opacity="0.3" d="M458.674 381.176L466.14 388.354L442.772 410.994C441.076 412.624 430.019 423.073 442.888 434.838C456.915 447.666 468.162 438.888 470.268 436.863C472.375 434.838 493.437 414.588 493.437 414.588L500.809 421.676L477.64 443.951C477.64 443.951 456.778 464.201 434.463 442.938C414.39 423.792 435.242 403.744 435.242 403.744L458.674 381.176Z" fill="white" fill-opacity="0.07"/>
<path opacity="0.3" d="M508.37 428.894L500.904 421.716L524.272 399.076C525.968 397.446 537.025 386.997 524.167 375.232C510.139 362.404 498.892 371.182 496.786 373.207C494.68 375.232 473.617 395.482 473.617 395.482L466.246 388.394L489.414 366.119C489.414 366.119 510.276 345.869 532.592 367.132C552.664 386.278 531.812 406.326 531.812 406.326L508.37 428.894Z" fill="white" fill-opacity="0.07"/>
<path opacity="0.3" d="M458.674 461.163L466.14 468.342L442.772 490.981C441.076 492.611 430.019 503.06 442.888 514.825C456.915 527.654 468.162 518.875 470.268 516.85C472.375 514.825 493.437 494.576 493.437 494.576L500.809 501.663L477.64 523.938C477.64 523.938 456.778 544.188 434.463 522.925C414.39 503.779 435.242 483.732 435.242 483.732L458.674 461.163Z" fill="white" fill-opacity="0.07"/>
<path opacity="0.3" d="M508.37 508.883L500.904 501.704L524.272 479.064C525.968 477.434 537.025 466.985 524.167 455.22C510.139 442.392 498.892 451.17 496.786 453.195C494.68 455.22 473.617 475.47 473.617 475.47L466.246 468.383L489.414 446.108C489.414 446.108 510.276 425.858 532.592 447.12C552.664 466.267 531.812 486.314 531.812 486.314L508.37 508.883Z" fill="white" fill-opacity="0.07"/>
<path opacity="0.3" d="M458.674 543.174L466.14 550.352L442.772 572.992C441.076 574.622 430.019 585.071 442.888 596.836C456.915 609.665 468.162 600.886 470.268 598.861C472.375 596.836 493.437 576.586 493.437 576.586L500.809 583.674L477.64 605.949C477.64 605.949 456.778 626.199 434.463 604.936C414.39 585.79 435.242 565.743 435.242 565.743L458.674 543.174Z" fill="white" fill-opacity="0.07"/>
<path opacity="0.3" d="M508.37 590.894L500.904 583.715L524.272 561.075C525.968 559.445 537.025 548.996 524.167 537.231C510.139 524.403 498.892 533.181 496.786 535.206C494.68 537.231 473.617 557.481 473.617 557.481L466.246 550.393L489.414 528.118C489.414 528.118 510.276 507.868 532.592 529.131C552.664 548.277 531.812 568.325 531.812 568.325L508.37 590.894Z" fill="white" fill-opacity="0.07"/>
<path opacity="0.3" d="M392.528 104.055L385.061 111.233L408.43 133.873C410.125 135.503 421.183 145.952 408.314 157.717C394.286 170.546 383.039 161.767 380.933 159.742C378.827 157.717 357.764 137.467 357.764 137.467L350.393 144.555L373.561 166.83C373.561 166.83 394.423 187.08 416.739 165.817C436.811 146.671 415.959 126.623 415.959 126.623L392.528 104.055Z" fill="white" fill-opacity="0.07"/>
<path opacity="0.3" d="M342.831 151.773L350.298 144.595L326.929 121.955C325.234 120.325 314.176 109.876 327.045 98.1109C341.073 85.2825 352.32 94.0609 354.426 96.0859C356.532 98.1109 377.595 118.361 377.595 118.361L384.966 111.273L361.798 88.9984C361.798 88.9984 340.936 68.7483 318.62 90.0109C298.548 109.157 319.4 129.205 319.4 129.205L342.831 151.773Z" fill="white" fill-opacity="0.07"/>
<path opacity="0.3" d="M392.275 181.713L384.809 188.892L408.177 211.531C409.873 213.161 420.93 223.61 408.061 235.375C394.034 248.204 382.787 239.425 380.68 237.4C378.574 235.375 357.512 215.125 357.512 215.125L350.14 222.213L373.309 244.488C373.309 244.488 394.171 264.738 416.486 243.475C436.559 224.329 415.707 204.282 415.707 204.282L392.275 181.713Z" fill="white" fill-opacity="0.07"/>
<path opacity="0.3" d="M342.568 229.431L350.035 222.253L326.666 199.613C324.971 197.983 313.913 187.534 326.782 175.769C340.81 162.941 352.057 171.719 354.163 173.744C356.269 175.769 377.332 196.019 377.332 196.019L384.703 188.931L361.535 166.657C361.535 166.657 340.673 146.407 318.357 167.669C298.285 186.815 319.136 206.863 319.136 206.863L342.568 229.431Z" fill="white" fill-opacity="0.07"/>
<path opacity="0.3" d="M392.275 261.701L384.809 268.88L408.177 291.519C409.873 293.149 420.93 303.598 408.061 315.364C394.034 328.192 382.787 319.413 380.68 317.389C378.574 315.364 357.512 295.114 357.512 295.114L350.14 302.201L373.309 324.476C373.309 324.476 394.171 344.726 416.486 323.463C436.559 304.317 415.707 284.27 415.707 284.27L392.275 261.701Z" fill="white" fill-opacity="0.07"/>
<path opacity="0.3" d="M342.568 309.419L350.035 302.24L326.666 279.601C324.971 277.97 313.913 267.522 326.782 255.756C340.81 242.928 352.057 251.706 354.163 253.731C356.269 255.756 377.332 276.006 377.332 276.006L384.703 268.919L361.535 246.644C361.535 246.644 340.673 226.394 318.357 247.656C298.285 266.803 319.136 286.85 319.136 286.85L342.568 309.419Z" fill="white" fill-opacity="0.07"/>
<path opacity="0.3" d="M392.275 341.688L384.809 348.866L408.177 371.506C409.873 373.136 420.93 383.585 408.061 395.35C394.034 408.178 382.787 399.4 380.68 397.375C378.574 395.35 357.512 375.1 357.512 375.1L350.14 382.187L373.309 404.462C373.309 404.462 394.171 424.712 416.486 403.45C436.559 384.303 415.707 364.256 415.707 364.256L392.275 341.688Z" fill="white" fill-opacity="0.07"/>
<path opacity="0.3" d="M342.568 389.407L350.035 382.228L326.666 359.589C324.971 357.959 313.913 347.51 326.782 335.745C340.81 322.916 352.057 331.695 354.163 333.72C356.269 335.745 377.332 355.995 377.332 355.995L384.703 348.907L361.535 326.632C361.535 326.632 340.673 306.382 318.357 327.645C298.285 346.791 319.136 366.838 319.136 366.838L342.568 389.407Z" fill="white" fill-opacity="0.07"/>
<path opacity="0.3" d="M392.275 421.675L384.809 428.853L408.177 451.493C409.873 453.123 420.93 463.572 408.061 475.337C394.034 488.166 382.787 479.387 380.68 477.362C378.574 475.337 357.512 455.087 357.512 455.087L350.14 462.175L373.309 484.45C373.309 484.45 394.171 504.7 416.486 483.437C436.559 464.291 415.707 444.243 415.707 444.243L392.275 421.675Z" fill="white" fill-opacity="0.07"/>
<path opacity="0.3" d="M342.568 469.394L350.035 462.216L326.666 439.576C324.971 437.946 313.913 427.497 326.782 415.732C340.81 402.904 352.057 411.682 354.163 413.707C356.269 415.732 377.332 435.982 377.332 435.982L384.703 428.894L361.535 406.619C361.535 406.619 340.673 386.369 318.357 407.632C298.285 426.778 319.136 446.826 319.136 446.826L342.568 469.394Z" fill="white" fill-opacity="0.07"/>
<path opacity="0.3" d="M392.275 501.662L384.809 508.841L408.177 531.48C409.873 533.11 420.93 543.559 408.061 555.324C394.034 568.153 382.787 559.374 380.68 557.349C378.574 555.324 357.512 535.074 357.512 535.074L350.14 542.162L373.309 564.437C373.309 564.437 394.171 584.687 416.486 563.424C436.559 544.278 415.707 524.231 415.707 524.231L392.275 501.662Z" fill="white" fill-opacity="0.07"/>
<path opacity="0.3" d="M342.568 549.382L350.035 542.203L326.666 519.564C324.971 517.933 313.913 507.484 326.782 495.719C340.81 482.891 352.057 491.669 354.163 493.694C356.269 495.719 377.332 515.969 377.332 515.969L384.703 508.882L361.535 486.607C361.535 486.607 340.673 466.357 318.357 487.619C298.285 506.766 319.136 526.813 319.136 526.813L342.568 549.382Z" fill="white" fill-opacity="0.07"/>
<path opacity="0.3" d="M392.275 23.7627L384.809 30.9413L408.177 53.5807C409.873 55.2108 420.93 65.6598 408.061 77.425C394.034 90.2534 382.787 81.475 380.68 79.45C378.574 77.425 357.512 57.1751 357.512 57.1751L350.14 64.2626L373.309 86.5375C373.309 86.5375 394.171 106.787 416.486 85.525C436.559 66.3787 415.707 46.3313 415.707 46.3313L392.275 23.7627Z" fill="white" fill-opacity="0.07"/>
<path opacity="0.3" d="M342.568 71.4821L350.035 64.3035L326.666 41.6641C324.971 40.034 313.913 29.585 326.782 17.8198C340.81 4.99145 352.057 13.7698 354.163 15.7948C356.269 17.8198 377.332 38.0697 377.332 38.0697L384.703 30.9822L361.535 8.70731C361.535 8.70731 340.673 -11.5426 318.357 9.71981C298.285 28.8661 319.136 48.9136 319.136 48.9136L342.568 71.4821Z" fill="white" fill-opacity="0.07"/>
<path opacity="0.3" d="M-7.06554 63.5547L0.401035 70.7333L-22.9676 93.3726C-24.6631 95.0027 -35.7208 105.452 -22.8517 117.217C-8.82424 130.045 2.42302 121.267 4.52924 119.242C6.63547 117.217 27.6977 96.967 27.6977 96.967L35.0695 104.054L11.901 126.329C11.901 126.329 -8.96114 146.579 -31.2766 125.317C-51.349 106.171 -30.4973 86.1232 -30.4973 86.1232L-7.06554 63.5547Z" fill="white" fill-opacity="0.07"/>
<path opacity="0.3" d="M42.6414 111.273L35.1748 104.095L58.5434 81.4552C60.2389 79.8251 71.2966 69.3761 58.4276 57.6109C44.4001 44.7825 33.1529 53.5609 31.0466 55.5859C28.9404 57.6109 7.87814 77.8609 7.87814 77.8609L0.506348 70.7734L23.6748 48.4984C23.6748 48.4984 44.537 28.2483 66.8525 49.5109C86.9248 68.6572 66.0732 88.7048 66.0732 88.7048L42.6414 111.273Z" fill="white" fill-opacity="0.07"/>
<path opacity="0.3" d="M-6.80235 141.213L0.664219 148.391L-22.7044 171.031C-24.3999 172.661 -35.4576 183.11 -22.5885 194.875C-8.56105 207.704 2.6862 198.925 4.79243 196.9C6.89865 194.875 27.9609 174.625 27.9609 174.625L35.3327 181.713L12.1642 203.988C12.1642 203.988 -8.69796 224.238 -31.0134 202.975C-51.0858 183.829 -30.2341 163.781 -30.2341 163.781L-6.80235 141.213Z" fill="white" fill-opacity="0.07"/>
<path opacity="0.3" d="M42.8939 188.932L35.4273 181.754L58.7959 159.114C60.4914 157.484 71.5491 147.035 58.68 135.27C44.6526 122.442 33.4053 131.22 31.2991 133.245C29.1929 135.27 8.13058 155.52 8.13058 155.52L0.758789 148.432L23.9273 126.158C23.9273 126.158 44.7895 105.908 67.1049 127.17C87.1773 146.316 66.3256 166.364 66.3256 166.364L42.8939 188.932Z" fill="white" fill-opacity="0.07"/>
<path opacity="0.3" d="M-6.80235 221.2L0.664219 228.379L-22.7044 251.018C-24.3999 252.648 -35.4576 263.097 -22.5885 274.863C-8.56105 287.691 2.6862 278.913 4.79243 276.888C6.89865 274.863 27.9609 254.613 27.9609 254.613L35.3327 261.7L12.1642 283.975C12.1642 283.975 -8.69796 304.225 -31.0134 282.963C-51.0858 263.816 -30.2341 243.769 -30.2341 243.769L-6.80235 221.2Z" fill="white" fill-opacity="0.07"/>
<path opacity="0.3" d="M42.8939 268.92L35.4273 261.741L58.7959 239.102C60.4914 237.471 71.5491 227.022 58.68 215.257C44.6526 202.429 33.4053 211.207 31.2991 213.232C29.1929 215.257 8.13058 235.507 8.13058 235.507L0.758789 228.42L23.9273 206.145C23.9273 206.145 44.7895 185.895 67.1049 207.157C87.1773 226.304 66.3256 246.351 66.3256 246.351L42.8939 268.92Z" fill="white" fill-opacity="0.07"/>
<path opacity="0.3" d="M-6.80235 301.188L0.664219 308.366L-22.7044 331.006C-24.3999 332.636 -35.4576 343.085 -22.5885 354.85C-8.56105 367.678 2.6862 358.9 4.79243 356.875C6.89865 354.85 27.9609 334.6 27.9609 334.6L35.3327 341.688L12.1642 363.963C12.1642 363.963 -8.69796 384.213 -31.0134 362.95C-51.0858 343.804 -30.2341 323.756 -30.2341 323.756L-6.80235 301.188Z" fill="white" fill-opacity="0.07"/>
<path opacity="0.3" d="M42.8939 348.907L35.4273 341.728L58.7959 319.089C60.4914 317.459 71.5491 307.01 58.68 295.245C44.6526 282.416 33.4053 291.195 31.2991 293.22C29.1929 295.245 8.13058 315.495 8.13058 315.495L0.758789 308.407L23.9273 286.132C23.9273 286.132 44.7895 265.882 67.1049 287.145C87.1773 306.291 66.3256 326.338 66.3256 326.338L42.8939 348.907Z" fill="white" fill-opacity="0.07"/>
<path opacity="0.3" d="M-6.80235 381.176L0.664219 388.354L-22.7044 410.994C-24.3999 412.624 -35.4576 423.073 -22.5885 434.838C-8.56105 447.666 2.6862 438.888 4.79243 436.863C6.89865 434.838 27.9609 414.588 27.9609 414.588L35.3327 421.676L12.1642 443.951C12.1642 443.951 -8.69796 464.201 -31.0134 442.938C-51.0858 423.792 -30.2341 403.744 -30.2341 403.744L-6.80235 381.176Z" fill="white" fill-opacity="0.07"/>
<path opacity="0.3" d="M42.8939 428.894L35.4273 421.716L58.7959 399.076C60.4914 397.446 71.5491 386.997 58.68 375.232C44.6526 362.404 33.4053 371.182 31.2991 373.207C29.1929 375.232 8.13058 395.482 8.13058 395.482L0.758789 388.394L23.9273 366.119C23.9273 366.119 44.7895 345.869 67.1049 367.132C87.1773 386.278 66.3256 406.326 66.3256 406.326L42.8939 428.894Z" fill="white" fill-opacity="0.07"/>
<path opacity="0.3" d="M-6.80235 461.163L0.664219 468.342L-22.7044 490.981C-24.3999 492.611 -35.4576 503.06 -22.5885 514.825C-8.56105 527.654 2.6862 518.875 4.79243 516.85C6.89865 514.825 27.9609 494.576 27.9609 494.576L35.3327 501.663L12.1642 523.938C12.1642 523.938 -8.69796 544.188 -31.0134 522.925C-51.0858 503.779 -30.2341 483.732 -30.2341 483.732L-6.80235 461.163Z" fill="white" fill-opacity="0.07"/>
<path opacity="0.3" d="M42.8939 508.883L35.4273 501.704L58.7959 479.064C60.4914 477.434 71.5491 466.985 58.68 455.22C44.6526 442.392 33.4053 451.17 31.2991 453.195C29.1929 455.22 8.13058 475.47 8.13058 475.47L0.758789 468.383L23.9273 446.108C23.9273 446.108 44.7895 425.858 67.1049 447.12C87.1773 466.267 66.3256 486.314 66.3256 486.314L42.8939 508.883Z" fill="white" fill-opacity="0.07"/>
<path opacity="0.3" d="M-6.80235 543.174L0.664219 550.352L-22.7044 572.992C-24.3999 574.622 -35.4576 585.071 -22.5885 596.836C-8.56105 609.665 2.6862 600.886 4.79243 598.861C6.89865 596.836 27.9609 576.586 27.9609 576.586L35.3327 583.674L12.1642 605.949C12.1642 605.949 -8.69796 626.199 -31.0134 604.936C-51.0858 585.79 -30.2341 565.743 -30.2341 565.743L-6.80235 543.174Z" fill="white" fill-opacity="0.07"/>
<path opacity="0.3" d="M42.8939 590.894L35.4273 583.715L58.7959 561.075C60.4914 559.445 71.5491 548.996 58.68 537.231C44.6526 524.403 33.4053 533.181 31.2991 535.206C29.1929 537.231 8.13058 557.481 8.13058 557.481L0.758789 550.393L23.9273 528.118C23.9273 528.118 44.7895 507.868 67.1049 529.131C87.1773 548.277 66.3256 568.325 66.3256 568.325L42.8939 590.894Z" fill="white" fill-opacity="0.07"/>
<path opacity="0.3" d="M157.683 104.055L150.217 111.233L173.585 133.873C175.281 135.503 186.339 145.952 173.47 157.717C159.442 170.546 148.195 161.767 146.089 159.742C143.982 157.717 122.92 137.467 122.92 137.467L115.548 144.555L138.717 166.83C138.717 166.83 159.579 187.08 181.894 165.817C201.967 146.671 181.115 126.623 181.115 126.623L157.683 104.055Z" fill="white" fill-opacity="0.07"/>
<path opacity="0.3" d="M107.987 151.773L115.454 144.595L92.0852 121.955C90.3897 120.325 79.332 109.876 92.201 98.1109C106.228 85.2825 117.476 94.0609 119.582 96.0859C121.688 98.1109 142.75 118.361 142.75 118.361L150.122 111.273L126.954 88.9984C126.954 88.9984 106.092 68.7483 83.7761 90.0109C63.7038 109.157 84.5554 129.205 84.5554 129.205L107.987 151.773Z" fill="white" fill-opacity="0.07"/>
<path opacity="0.3" d="M157.431 181.713L149.964 188.892L173.333 211.531C175.028 213.161 186.086 223.61 173.217 235.375C159.19 248.204 147.942 239.425 145.836 237.4C143.73 235.375 122.668 215.125 122.668 215.125L115.296 222.213L138.464 244.488C138.464 244.488 159.327 264.738 181.642 243.475C201.714 224.329 180.863 204.282 180.863 204.282L157.431 181.713Z" fill="white" fill-opacity="0.07"/>
<path opacity="0.3" d="M107.724 229.431L115.191 222.253L91.822 199.613C90.1265 197.983 79.0688 187.534 91.9378 175.769C105.965 162.941 117.213 171.719 119.319 173.744C121.425 175.769 142.487 196.019 142.487 196.019L149.859 188.931L126.691 166.657C126.691 166.657 105.828 146.407 83.5129 167.669C63.4406 186.815 84.2922 206.863 84.2922 206.863L107.724 229.431Z" fill="white" fill-opacity="0.07"/>
<path opacity="0.3" d="M157.431 261.701L149.964 268.88L173.333 291.519C175.028 293.149 186.086 303.598 173.217 315.364C159.19 328.192 147.942 319.413 145.836 317.389C143.73 315.364 122.668 295.114 122.668 295.114L115.296 302.201L138.464 324.476C138.464 324.476 159.327 344.726 181.642 323.463C201.714 304.317 180.863 284.27 180.863 284.27L157.431 261.701Z" fill="white" fill-opacity="0.07"/>
<path opacity="0.3" d="M107.724 309.419L115.191 302.24L91.822 279.601C90.1265 277.97 79.0688 267.522 91.9378 255.756C105.965 242.928 117.213 251.706 119.319 253.731C121.425 255.756 142.487 276.006 142.487 276.006L149.859 268.919L126.691 246.644C126.691 246.644 105.828 226.394 83.5129 247.656C63.4406 266.803 84.2922 286.85 84.2922 286.85L107.724 309.419Z" fill="white" fill-opacity="0.07"/>
<path opacity="0.3" d="M157.431 341.688L149.964 348.866L173.333 371.506C175.028 373.136 186.086 383.585 173.217 395.35C159.19 408.178 147.942 399.4 145.836 397.375C143.73 395.35 122.668 375.1 122.668 375.1L115.296 382.187L138.464 404.462C138.464 404.462 159.327 424.712 181.642 403.45C201.714 384.303 180.863 364.256 180.863 364.256L157.431 341.688Z" fill="white" fill-opacity="0.07"/>
<path opacity="0.3" d="M107.724 389.407L115.191 382.228L91.822 359.589C90.1265 357.959 79.0688 347.51 91.9378 335.745C105.965 322.916 117.213 331.695 119.319 333.72C121.425 335.745 142.487 355.995 142.487 355.995L149.859 348.907L126.691 326.632C126.691 326.632 105.828 306.382 83.5129 327.645C63.4406 346.791 84.2922 366.838 84.2922 366.838L107.724 389.407Z" fill="white" fill-opacity="0.07"/>
<path opacity="0.3" d="M157.431 421.675L149.964 428.853L173.333 451.493C175.028 453.123 186.086 463.572 173.217 475.337C159.19 488.166 147.942 479.387 145.836 477.362C143.73 475.337 122.668 455.087 122.668 455.087L115.296 462.175L138.464 484.45C138.464 484.45 159.327 504.7 181.642 483.437C201.714 464.291 180.863 444.243 180.863 444.243L157.431 421.675Z" fill="white" fill-opacity="0.07"/>
<path opacity="0.3" d="M107.724 469.394L115.191 462.216L91.822 439.576C90.1265 437.946 79.0688 427.497 91.9378 415.732C105.965 402.904 117.213 411.682 119.319 413.707C121.425 415.732 142.487 435.982 142.487 435.982L149.859 428.894L126.691 406.619C126.691 406.619 105.828 386.369 83.5129 407.632C63.4406 426.778 84.2922 446.826 84.2922 446.826L107.724 469.394Z" fill="white" fill-opacity="0.07"/>
<path opacity="0.3" d="M157.431 501.662L149.964 508.841L173.333 531.48C175.028 533.11 186.086 543.559 173.217 555.324C159.19 568.153 147.942 559.374 145.836 557.349C143.73 555.324 122.668 535.074 122.668 535.074L115.296 542.162L138.464 564.437C138.464 564.437 159.327 584.687 181.642 563.424C201.714 544.278 180.863 524.231 180.863 524.231L157.431 501.662Z" fill="white" fill-opacity="0.07"/>
<path opacity="0.3" d="M107.724 549.382L115.191 542.203L91.822 519.564C90.1265 517.933 79.0688 507.484 91.9378 495.719C105.965 482.891 117.213 491.669 119.319 493.694C121.425 495.719 142.487 515.969 142.487 515.969L149.859 508.882L126.691 486.607C126.691 486.607 105.828 466.357 83.5129 487.619C63.4406 506.766 84.2922 526.813 84.2922 526.813L107.724 549.382Z" fill="white" fill-opacity="0.07"/>
<path opacity="0.3" d="M157.431 23.7627L149.964 30.9413L173.333 53.5807C175.028 55.2108 186.086 65.6598 173.217 77.425C159.19 90.2534 147.942 81.475 145.836 79.45C143.73 77.425 122.668 57.1751 122.668 57.1751L115.296 64.2626L138.464 86.5375C138.464 86.5375 159.327 106.787 181.642 85.525C201.714 66.3787 180.863 46.3313 180.863 46.3313L157.431 23.7627Z" fill="white" fill-opacity="0.07"/>
<path opacity="0.3" d="M107.724 71.4821L115.191 64.3035L91.822 41.6641C90.1265 40.034 79.0688 29.585 91.9378 17.8198C105.965 4.99145 117.213 13.7698 119.319 15.7948C121.425 17.8198 142.487 38.0697 142.487 38.0697L149.859 30.9822L126.691 8.70731C126.691 8.70731 105.828 -11.5426 83.5129 9.71981C63.4406 28.8661 84.2922 48.9136 84.2922 48.9136L107.724 71.4821Z" fill="white" fill-opacity="0.07"/>
<path opacity="0.3" d="M624.213 104.055L616.746 111.233L640.115 133.873C641.81 135.503 652.868 145.952 640.01 157.717C625.982 170.546 614.735 161.767 612.629 159.742C610.522 157.717 589.46 137.467 589.46 137.467L582.088 144.555L605.257 166.83C605.257 166.83 626.119 187.08 648.435 165.817C668.507 146.671 647.655 126.623 647.655 126.623L624.213 104.055Z" fill="white" fill-opacity="0.07"/>
<path opacity="0.3" d="M574.517 151.773L581.983 144.595L558.615 121.955C556.919 120.325 545.862 109.876 558.72 98.1109C572.748 85.2825 583.995 94.0609 586.101 96.0859C588.207 98.1109 609.27 118.361 609.27 118.361L616.641 111.273L593.473 88.9984C593.473 88.9984 572.611 68.7483 550.295 90.0109C530.223 109.157 551.074 129.205 551.074 129.205L574.517 151.773Z" fill="white" fill-opacity="0.07"/>
<path opacity="0.3" d="M623.96 181.713L616.493 188.892L639.862 211.531C641.557 213.161 652.615 223.61 639.746 235.375C625.718 248.204 614.471 239.425 612.365 237.4C610.259 235.375 589.197 215.125 589.197 215.125L581.825 222.213L604.993 244.488C604.993 244.488 625.855 264.738 648.171 243.475C668.243 224.329 647.392 204.282 647.392 204.282L623.96 181.713Z" fill="white" fill-opacity="0.07"/>
<path opacity="0.3" d="M574.253 229.431L581.719 222.253L558.351 199.613C556.655 197.983 545.598 187.534 558.467 175.769C572.494 162.941 583.741 171.719 585.848 173.744C587.954 175.769 609.016 196.019 609.016 196.019L616.388 188.931L593.219 166.657C593.219 166.657 572.357 146.407 550.042 167.669C529.969 186.815 550.821 206.863 550.821 206.863L574.253 229.431Z" fill="white" fill-opacity="0.07"/>
<path opacity="0.3" d="M623.96 261.701L616.493 268.88L639.862 291.519C641.557 293.149 652.615 303.598 639.746 315.364C625.718 328.192 614.471 319.413 612.365 317.389C610.259 315.364 589.197 295.114 589.197 295.114L581.825 302.201L604.993 324.476C604.993 324.476 625.855 344.726 648.171 323.463C668.243 304.317 647.392 284.27 647.392 284.27L623.96 261.701Z" fill="white" fill-opacity="0.07"/>
<path opacity="0.3" d="M574.253 309.419L581.719 302.24L558.351 279.601C556.655 277.97 545.598 267.522 558.467 255.756C572.494 242.928 583.741 251.706 585.848 253.731C587.954 255.756 609.016 276.006 609.016 276.006L616.388 268.919L593.219 246.644C593.219 246.644 572.357 226.394 550.042 247.656C529.969 266.803 550.821 286.85 550.821 286.85L574.253 309.419Z" fill="white" fill-opacity="0.07"/>
<path opacity="0.3" d="M623.96 341.688L616.493 348.866L639.862 371.506C641.557 373.136 652.615 383.585 639.746 395.35C625.718 408.178 614.471 399.4 612.365 397.375C610.259 395.35 589.197 375.1 589.197 375.1L581.825 382.187L604.993 404.462C604.993 404.462 625.855 424.712 648.171 403.45C668.243 384.303 647.392 364.256 647.392 364.256L623.96 341.688Z" fill="white" fill-opacity="0.07"/>
<path opacity="0.3" d="M574.253 389.407L581.719 382.228L558.351 359.589C556.655 357.959 545.598 347.51 558.467 335.745C572.494 322.916 583.741 331.695 585.848 333.72C587.954 335.745 609.016 355.995 609.016 355.995L616.388 348.907L593.219 326.632C593.219 326.632 572.357 306.382 550.042 327.645C529.969 346.791 550.821 366.838 550.821 366.838L574.253 389.407Z" fill="white" fill-opacity="0.07"/>
<path opacity="0.3" d="M623.96 421.675L616.493 428.853L639.862 451.493C641.557 453.123 652.615 463.572 639.746 475.337C625.718 488.166 614.471 479.387 612.365 477.362C610.259 475.337 589.197 455.087 589.197 455.087L581.825 462.175L604.993 484.45C604.993 484.45 625.855 504.7 648.171 483.437C668.243 464.291 647.392 444.243 647.392 444.243L623.96 421.675Z" fill="white" fill-opacity="0.07"/>
<path opacity="0.3" d="M574.253 469.394L581.719 462.216L558.351 439.576C556.655 437.946 545.598 427.497 558.467 415.732C572.494 402.904 583.741 411.682 585.848 413.707C587.954 415.732 609.016 435.982 609.016 435.982L616.388 428.894L593.219 406.619C593.219 406.619 572.357 386.369 550.042 407.632C529.969 426.778 550.821 446.826 550.821 446.826L574.253 469.394Z" fill="white" fill-opacity="0.07"/>
<path opacity="0.3" d="M623.96 501.662L616.493 508.841L639.862 531.48C641.557 533.11 652.615 543.559 639.746 555.324C625.718 568.153 614.471 559.374 612.365 557.349C610.259 555.324 589.197 535.074 589.197 535.074L581.825 542.162L604.993 564.437C604.993 564.437 625.855 584.687 648.171 563.424C668.243 544.278 647.392 524.231 647.392 524.231L623.96 501.662Z" fill="white" fill-opacity="0.07"/>
<path opacity="0.3" d="M574.253 549.382L581.719 542.203L558.351 519.564C556.655 517.933 545.598 507.484 558.467 495.719C572.494 482.891 583.741 491.669 585.848 493.694C587.954 495.719 609.016 515.969 609.016 515.969L616.388 508.882L593.219 486.607C593.219 486.607 572.357 466.357 550.042 487.619C529.969 506.766 550.821 526.813 550.821 526.813L574.253 549.382Z" fill="white" fill-opacity="0.07"/>
<path opacity="0.3" d="M623.96 23.7627L616.493 30.9413L639.862 53.5807C641.557 55.2108 652.615 65.6598 639.746 77.425C625.718 90.2534 614.471 81.475 612.365 79.45C610.259 77.425 589.197 57.1751 589.197 57.1751L581.825 64.2626L604.993 86.5375C604.993 86.5375 625.855 106.787 648.171 85.525C668.243 66.3787 647.392 46.3313 647.392 46.3313L623.96 23.7627Z" fill="white" fill-opacity="0.07"/>
<path opacity="0.3" d="M574.253 71.4821L581.719 64.3035L558.351 41.6641C556.655 40.034 545.598 29.585 558.467 17.8198C572.494 4.99145 583.741 13.7698 585.848 15.7948C587.954 17.8198 609.016 38.0697 609.016 38.0697L616.388 30.9822L593.219 8.70731C593.219 8.70731 572.357 -11.5426 550.042 9.71981C529.969 28.8661 550.821 48.9136 550.821 48.9136L574.253 71.4821Z" fill="white" fill-opacity="0.07"/>
<path opacity="0.3" d="M921.781 63.5547L929.247 70.7333L905.879 93.3726C904.183 95.0027 893.125 105.452 905.994 117.217C920.022 130.045 931.269 121.267 933.375 119.242C935.482 117.217 956.544 96.967 956.544 96.967L963.916 104.054L940.747 126.329C940.747 126.329 919.885 146.579 897.57 125.317C877.497 106.171 898.349 86.1232 898.349 86.1232L921.781 63.5547Z" fill="white" fill-opacity="0.07"/>
<path opacity="0.3" d="M971.488 111.273L964.021 104.095L987.39 81.4552C989.085 79.8251 1000.14 69.3761 987.274 57.6109C973.246 44.7825 961.999 53.5609 959.893 55.5859C957.787 57.6109 936.724 77.8609 936.724 77.8609L929.353 70.7734L952.521 48.4984C952.521 48.4984 973.383 28.2483 995.699 49.5109C1015.77 68.6572 994.919 88.7048 994.919 88.7048L971.488 111.273Z" fill="white" fill-opacity="0.07"/>
<path opacity="0.3" d="M922.044 141.213L929.511 148.391L906.142 171.031C904.447 172.661 893.389 183.11 906.247 194.875C920.275 207.704 931.522 198.925 933.628 196.9C935.735 194.875 956.797 174.625 956.797 174.625L964.169 181.713L941 203.988C941 203.988 920.138 224.238 897.823 202.975C877.75 183.829 898.602 163.781 898.602 163.781L922.044 141.213Z" fill="white" fill-opacity="0.07"/>
<path opacity="0.3" d="M971.74 188.932L964.274 181.754L987.642 159.114C989.338 157.484 1000.4 147.035 987.537 135.27C973.51 122.442 962.262 131.22 960.156 133.245C958.05 135.27 936.988 155.52 936.988 155.52L929.616 148.432L952.784 126.158C952.784 126.158 973.646 105.908 995.962 127.17C1016.03 146.316 995.183 166.364 995.183 166.364L971.74 188.932Z" fill="white" fill-opacity="0.07"/>
<path opacity="0.3" d="M922.044 221.2L929.511 228.379L906.142 251.018C904.447 252.648 893.389 263.097 906.247 274.863C920.275 287.691 931.522 278.913 933.628 276.888C935.735 274.863 956.797 254.613 956.797 254.613L964.169 261.7L941 283.975C941 283.975 920.138 304.225 897.823 282.963C877.75 263.816 898.602 243.769 898.602 243.769L922.044 221.2Z" fill="white" fill-opacity="0.07"/>
<path opacity="0.3" d="M971.74 268.92L964.274 261.741L987.642 239.102C989.338 237.471 1000.4 227.022 987.537 215.257C973.51 202.429 962.262 211.207 960.156 213.232C958.05 215.257 936.988 235.507 936.988 235.507L929.616 228.42L952.784 206.145C952.784 206.145 973.646 185.895 995.962 207.157C1016.03 226.304 995.183 246.351 995.183 246.351L971.74 268.92Z" fill="white" fill-opacity="0.07"/>
<path opacity="0.3" d="M922.044 301.188L929.511 308.366L906.142 331.006C904.447 332.636 893.389 343.085 906.247 354.85C920.275 367.678 931.522 358.9 933.628 356.875C935.735 354.85 956.797 334.6 956.797 334.6L964.169 341.688L941 363.963C941 363.963 920.138 384.213 897.823 362.95C877.75 343.804 898.602 323.756 898.602 323.756L922.044 301.188Z" fill="white" fill-opacity="0.07"/>
<path opacity="0.3" d="M971.74 348.907L964.274 341.728L987.642 319.089C989.338 317.459 1000.4 307.01 987.537 295.245C973.51 282.416 962.262 291.195 960.156 293.22C958.05 295.245 936.988 315.495 936.988 315.495L929.616 308.407L952.784 286.132C952.784 286.132 973.646 265.882 995.962 287.145C1016.03 306.291 995.183 326.338 995.183 326.338L971.74 348.907Z" fill="white" fill-opacity="0.07"/>
<path opacity="0.3" d="M922.044 381.176L929.511 388.354L906.142 410.994C904.447 412.624 893.389 423.073 906.247 434.838C920.275 447.666 931.522 438.888 933.628 436.863C935.735 434.838 956.797 414.588 956.797 414.588L964.169 421.676L941 443.951C941 443.951 920.138 464.201 897.823 442.938C877.75 423.792 898.602 403.744 898.602 403.744L922.044 381.176Z" fill="white" fill-opacity="0.07"/>
<path opacity="0.3" d="M971.74 428.894L964.274 421.716L987.642 399.076C989.338 397.446 1000.4 386.997 987.537 375.232C973.51 362.404 962.262 371.182 960.156 373.207C958.05 375.232 936.988 395.482 936.988 395.482L929.616 388.394L952.784 366.119C952.784 366.119 973.646 345.869 995.962 367.132C1016.03 386.278 995.183 406.326 995.183 406.326L971.74 428.894Z" fill="white" fill-opacity="0.07"/>
<path opacity="0.3" d="M922.044 461.163L929.511 468.342L906.142 490.981C904.447 492.611 893.389 503.06 906.247 514.825C920.275 527.654 931.522 518.875 933.628 516.85C935.735 514.825 956.797 494.576 956.797 494.576L964.169 501.663L941 523.938C941 523.938 920.138 544.188 897.823 522.925C877.75 503.779 898.602 483.732 898.602 483.732L922.044 461.163Z" fill="white" fill-opacity="0.07"/>
<path opacity="0.3" d="M971.74 508.883L964.274 501.704L987.642 479.064C989.338 477.434 1000.4 466.985 987.537 455.22C973.51 442.392 962.262 451.17 960.156 453.195C958.05 455.22 936.988 475.47 936.988 475.47L929.616 468.383L952.784 446.108C952.784 446.108 973.646 425.858 995.962 447.12C1016.03 466.267 995.183 486.314 995.183 486.314L971.74 508.883Z" fill="white" fill-opacity="0.07"/>
<path opacity="0.3" d="M922.044 543.174L929.511 550.352L906.142 572.992C904.447 574.622 893.389 585.071 906.247 596.836C920.275 609.665 931.522 600.886 933.628 598.861C935.735 596.836 956.797 576.586 956.797 576.586L964.169 583.674L941 605.949C941 605.949 920.138 626.199 897.823 604.936C877.75 585.79 898.602 565.743 898.602 565.743L922.044 543.174Z" fill="white" fill-opacity="0.07"/>
<path opacity="0.3" d="M971.74 590.894L964.274 583.715L987.642 561.075C989.338 559.445 1000.4 548.996 987.537 537.231C973.51 524.403 962.262 533.181 960.156 535.206C958.05 537.231 936.988 557.481 936.988 557.481L929.616 550.393L952.784 528.118C952.784 528.118 973.646 507.868 995.962 529.131C1016.03 548.277 995.183 568.325 995.183 568.325L971.74 590.894Z" fill="white" fill-opacity="0.07"/>
<path opacity="0.3" d="M855.897 104.055L848.431 111.233L871.8 133.873C873.495 135.503 884.553 145.952 871.694 157.717C857.667 170.546 846.419 161.767 844.313 159.742C842.207 157.717 821.145 137.467 821.145 137.467L813.773 144.555L836.941 166.83C836.941 166.83 857.804 187.08 880.119 165.817C900.191 146.671 879.34 126.623 879.34 126.623L855.897 104.055Z" fill="white" fill-opacity="0.07"/>
<path opacity="0.3" d="M806.201 151.773L813.668 144.595L790.299 121.955C788.604 120.325 777.546 109.876 790.405 98.1109C804.432 85.2825 815.679 94.0609 817.786 96.0859C819.892 98.1109 840.954 118.361 840.954 118.361L848.326 111.273L825.157 88.9984C825.157 88.9984 804.295 68.7483 781.98 90.0109C761.907 109.157 782.759 129.205 782.759 129.205L806.201 151.773Z" fill="white" fill-opacity="0.07"/>
<path opacity="0.3" d="M855.645 181.713L848.178 188.892L871.547 211.531C873.242 213.161 884.3 223.61 871.431 235.375C857.404 248.204 846.156 239.425 844.05 237.4C841.944 235.375 820.882 215.125 820.882 215.125L813.51 222.213L836.678 244.488C836.678 244.488 857.54 264.738 879.856 243.475C899.928 224.329 879.077 204.282 879.077 204.282L855.645 181.713Z" fill="white" fill-opacity="0.07"/>
<path opacity="0.3" d="M805.938 229.431L813.404 222.253L790.036 199.613C788.34 197.983 777.283 187.534 790.152 175.769C804.179 162.941 815.426 171.719 817.533 173.744C819.639 175.769 840.701 196.019 840.701 196.019L848.073 188.931L824.904 166.657C824.904 166.657 804.042 146.407 781.727 167.669C761.654 186.815 782.506 206.863 782.506 206.863L805.938 229.431Z" fill="white" fill-opacity="0.07"/>
<path opacity="0.3" d="M855.645 261.701L848.178 268.88L871.547 291.519C873.242 293.149 884.3 303.598 871.431 315.364C857.404 328.192 846.156 319.413 844.05 317.389C841.944 315.364 820.882 295.114 820.882 295.114L813.51 302.201L836.678 324.476C836.678 324.476 857.54 344.726 879.856 323.463C899.928 304.317 879.077 284.27 879.077 284.27L855.645 261.701Z" fill="white" fill-opacity="0.07"/>
<path opacity="0.3" d="M805.938 309.419L813.404 302.24L790.036 279.601C788.34 277.97 777.283 267.522 790.152 255.756C804.179 242.928 815.426 251.706 817.533 253.731C819.639 255.756 840.701 276.006 840.701 276.006L848.073 268.919L824.904 246.644C824.904 246.644 804.042 226.394 781.727 247.656C761.654 266.803 782.506 286.85 782.506 286.85L805.938 309.419Z" fill="white" fill-opacity="0.07"/>
<path opacity="0.3" d="M855.645 341.688L848.178 348.866L871.547 371.506C873.242 373.136 884.3 383.585 871.431 395.35C857.404 408.178 846.156 399.4 844.05 397.375C841.944 395.35 820.882 375.1 820.882 375.1L813.51 382.187L836.678 404.462C836.678 404.462 857.54 424.712 879.856 403.45C899.928 384.303 879.077 364.256 879.077 364.256L855.645 341.688Z" fill="white" fill-opacity="0.07"/>
<path opacity="0.3" d="M805.938 389.407L813.404 382.228L790.036 359.589C788.34 357.959 777.283 347.51 790.152 335.745C804.179 322.916 815.426 331.695 817.533 333.72C819.639 335.745 840.701 355.995 840.701 355.995L848.073 348.907L824.904 326.632C824.904 326.632 804.042 306.382 781.727 327.645C761.654 346.791 782.506 366.838 782.506 366.838L805.938 389.407Z" fill="white" fill-opacity="0.07"/>
<path opacity="0.3" d="M855.645 421.675L848.178 428.853L871.547 451.493C873.242 453.123 884.3 463.572 871.431 475.337C857.404 488.166 846.156 479.387 844.05 477.362C841.944 475.337 820.882 455.087 820.882 455.087L813.51 462.175L836.678 484.45C836.678 484.45 857.54 504.7 879.856 483.437C899.928 464.291 879.077 444.243 879.077 444.243L855.645 421.675Z" fill="white" fill-opacity="0.07"/>
<path opacity="0.3" d="M805.938 469.394L813.404 462.216L790.036 439.576C788.34 437.946 777.283 427.497 790.152 415.732C804.179 402.904 815.426 411.682 817.533 413.707C819.639 415.732 840.701 435.982 840.701 435.982L848.073 428.894L824.904 406.619C824.904 406.619 804.042 386.369 781.727 407.632C761.654 426.778 782.506 446.826 782.506 446.826L805.938 469.394Z" fill="white" fill-opacity="0.07"/>
<path opacity="0.3" d="M855.645 501.662L848.178 508.841L871.547 531.48C873.242 533.11 884.3 543.559 871.431 555.324C857.404 568.153 846.156 559.374 844.05 557.349C841.944 555.324 820.882 535.074 820.882 535.074L813.51 542.162L836.678 564.437C836.678 564.437 857.54 584.687 879.856 563.424C899.928 544.278 879.077 524.231 879.077 524.231L855.645 501.662Z" fill="white" fill-opacity="0.07"/>
<path opacity="0.3" d="M805.938 549.382L813.404 542.203L790.036 519.564C788.34 517.933 777.283 507.484 790.152 495.719C804.179 482.891 815.426 491.669 817.533 493.694C819.639 495.719 840.701 515.969 840.701 515.969L848.073 508.882L824.904 486.607C824.904 486.607 804.042 466.357 781.727 487.619C761.654 506.766 782.506 526.813 782.506 526.813L805.938 549.382Z" fill="white" fill-opacity="0.07"/>
<path opacity="0.3" d="M855.645 23.7627L848.178 30.9413L871.547 53.5807C873.242 55.2108 884.3 65.6598 871.431 77.425C857.404 90.2534 846.156 81.475 844.05 79.45C841.944 77.425 820.882 57.1751 820.882 57.1751L813.51 64.2626L836.678 86.5375C836.678 86.5375 857.54 106.787 879.856 85.525C899.928 66.3787 879.077 46.3313 879.077 46.3313L855.645 23.7627Z" fill="white" fill-opacity="0.07"/>
<path opacity="0.3" d="M805.938 71.4821L813.404 64.3035L790.036 41.6641C788.34 40.034 777.283 29.585 790.152 17.8198C804.179 4.99145 815.426 13.7698 817.533 15.7948C819.639 17.8198 840.701 38.0697 840.701 38.0697L848.073 30.9822L824.904 8.70731C824.904 8.70731 804.042 -11.5426 781.727 9.71981C761.654 28.8661 782.506 48.9136 782.506 48.9136L805.938 71.4821Z" fill="white" fill-opacity="0.07"/>
<path opacity="0.3" d="M1153.47 63.5547L1160.93 70.7333L1137.56 93.3726C1135.87 95.0027 1124.81 105.452 1137.68 117.217C1151.71 130.045 1162.95 121.267 1165.06 119.242C1167.17 117.217 1188.23 96.967 1188.23 96.967L1195.6 104.054L1172.43 126.329C1172.43 126.329 1151.57 146.579 1129.25 125.317C1109.18 106.171 1130.03 86.1232 1130.03 86.1232L1153.47 63.5547Z" fill="white" fill-opacity="0.07"/>
<path opacity="0.3" d="M1203.17 111.273L1195.71 104.095L1219.07 81.4552C1220.77 79.8251 1231.83 69.3761 1218.97 57.6109C1204.94 44.7825 1193.69 53.5609 1191.59 55.5859C1189.48 57.6109 1168.42 77.8609 1168.42 77.8609L1161.05 70.7734L1184.22 48.4984C1184.22 48.4984 1205.08 28.2483 1227.39 49.5109C1247.47 68.6572 1226.61 88.7048 1226.61 88.7048L1203.17 111.273Z" fill="white" fill-opacity="0.07"/>
<path opacity="0.3" d="M1153.73 141.213L1161.2 148.391L1137.83 171.031C1136.13 172.661 1125.07 183.11 1137.93 194.875C1151.96 207.704 1163.21 198.925 1165.31 196.9C1167.42 194.875 1188.48 174.625 1188.48 174.625L1195.85 181.713L1172.69 203.988C1172.69 203.988 1151.82 224.238 1129.51 202.975C1109.44 183.829 1130.29 163.781 1130.29 163.781L1153.73 141.213Z" fill="white" fill-opacity="0.07"/>
<path opacity="0.3" d="M1203.42 188.932L1195.96 181.754L1219.33 159.114C1221.02 157.484 1232.08 147.035 1219.21 135.27C1205.18 122.442 1193.94 131.22 1191.83 133.245C1189.72 135.27 1168.66 155.52 1168.66 155.52L1161.29 148.432L1184.46 126.158C1184.46 126.158 1205.32 105.908 1227.64 127.17C1247.71 146.316 1226.86 166.364 1226.86 166.364L1203.42 188.932Z" fill="white" fill-opacity="0.07"/>
<path opacity="0.3" d="M1153.73 221.2L1161.2 228.379L1137.83 251.018C1136.13 252.648 1125.07 263.097 1137.93 274.863C1151.96 287.691 1163.21 278.913 1165.31 276.888C1167.42 274.863 1188.48 254.613 1188.48 254.613L1195.85 261.7L1172.69 283.975C1172.69 283.975 1151.82 304.225 1129.51 282.963C1109.44 263.816 1130.29 243.769 1130.29 243.769L1153.73 221.2Z" fill="white" fill-opacity="0.07"/>
<path opacity="0.3" d="M1203.42 268.92L1195.96 261.741L1219.33 239.102C1221.02 237.471 1232.08 227.022 1219.21 215.257C1205.18 202.429 1193.94 211.207 1191.83 213.232C1189.72 215.257 1168.66 235.507 1168.66 235.507L1161.29 228.42L1184.46 206.145C1184.46 206.145 1205.32 185.895 1227.64 207.157C1247.71 226.304 1226.86 246.351 1226.86 246.351L1203.42 268.92Z" fill="white" fill-opacity="0.07"/>
<path opacity="0.3" d="M1153.73 301.188L1161.2 308.366L1137.83 331.006C1136.13 332.636 1125.07 343.085 1137.93 354.85C1151.96 367.678 1163.21 358.9 1165.31 356.875C1167.42 354.85 1188.48 334.6 1188.48 334.6L1195.85 341.688L1172.69 363.963C1172.69 363.963 1151.82 384.213 1129.51 362.95C1109.44 343.804 1130.29 323.756 1130.29 323.756L1153.73 301.188Z" fill="white" fill-opacity="0.07"/>
<path opacity="0.3" d="M1203.42 348.907L1195.96 341.728L1219.33 319.089C1221.02 317.459 1232.08 307.01 1219.21 295.245C1205.18 282.416 1193.94 291.195 1191.83 293.22C1189.72 295.245 1168.66 315.495 1168.66 315.495L1161.29 308.407L1184.46 286.132C1184.46 286.132 1205.32 265.882 1227.64 287.145C1247.71 306.291 1226.86 326.338 1226.86 326.338L1203.42 348.907Z" fill="white" fill-opacity="0.07"/>
<path opacity="0.3" d="M1153.73 381.176L1161.2 388.354L1137.83 410.994C1136.13 412.624 1125.07 423.073 1137.93 434.838C1151.96 447.666 1163.21 438.888 1165.31 436.863C1167.42 434.838 1188.48 414.588 1188.48 414.588L1195.85 421.676L1172.69 443.951C1172.69 443.951 1151.82 464.201 1129.51 442.938C1109.44 423.792 1130.29 403.744 1130.29 403.744L1153.73 381.176Z" fill="white" fill-opacity="0.07"/>
<path opacity="0.3" d="M1203.42 428.894L1195.96 421.716L1219.33 399.076C1221.02 397.446 1232.08 386.997 1219.21 375.232C1205.18 362.404 1193.94 371.182 1191.83 373.207C1189.72 375.232 1168.66 395.482 1168.66 395.482L1161.29 388.394L1184.46 366.119C1184.46 366.119 1205.32 345.869 1227.64 367.132C1247.71 386.278 1226.86 406.326 1226.86 406.326L1203.42 428.894Z" fill="white" fill-opacity="0.07"/>
<path opacity="0.3" d="M1153.73 461.163L1161.2 468.342L1137.83 490.981C1136.13 492.611 1125.07 503.06 1137.93 514.825C1151.96 527.654 1163.21 518.875 1165.31 516.85C1167.42 514.825 1188.48 494.576 1188.48 494.576L1195.85 501.663L1172.69 523.938C1172.69 523.938 1151.82 544.188 1129.51 522.925C1109.44 503.779 1130.29 483.732 1130.29 483.732L1153.73 461.163Z" fill="white" fill-opacity="0.07"/>
<path opacity="0.3" d="M1203.42 508.883L1195.96 501.704L1219.33 479.064C1221.02 477.434 1232.08 466.985 1219.21 455.22C1205.18 442.392 1193.94 451.17 1191.83 453.195C1189.72 455.22 1168.66 475.47 1168.66 475.47L1161.29 468.383L1184.46 446.108C1184.46 446.108 1205.32 425.858 1227.64 447.12C1247.71 466.267 1226.86 486.314 1226.86 486.314L1203.42 508.883Z" fill="white" fill-opacity="0.07"/>
<path opacity="0.3" d="M1153.73 543.174L1161.2 550.352L1137.83 572.992C1136.13 574.622 1125.07 585.071 1137.93 596.836C1151.96 609.665 1163.21 600.886 1165.31 598.861C1167.42 596.836 1188.48 576.586 1188.48 576.586L1195.85 583.674L1172.69 605.949C1172.69 605.949 1151.82 626.199 1129.51 604.936C1109.44 585.79 1130.29 565.743 1130.29 565.743L1153.73 543.174Z" fill="white" fill-opacity="0.07"/>
<path opacity="0.3" d="M1203.42 590.894L1195.96 583.715L1219.33 561.075C1221.02 559.445 1232.08 548.996 1219.21 537.231C1205.18 524.403 1193.94 533.181 1191.83 535.206C1189.72 537.231 1168.66 557.481 1168.66 557.481L1161.29 550.393L1184.46 528.118C1184.46 528.118 1205.32 507.868 1227.64 529.131C1247.71 548.277 1226.86 568.325 1226.86 568.325L1203.42 590.894Z" fill="white" fill-opacity="0.07"/>
<path opacity="0.3" d="M1087.58 104.055L1080.12 111.233L1103.48 133.873C1105.18 135.503 1116.24 145.952 1103.37 157.717C1089.34 170.546 1078.09 161.767 1075.99 159.742C1073.88 157.717 1052.82 137.467 1052.82 137.467L1045.45 144.555L1068.62 166.83C1068.62 166.83 1089.48 187.08 1111.79 165.817C1131.87 146.671 1111.01 126.623 1111.01 126.623L1087.58 104.055Z" fill="white" fill-opacity="0.07"/>
<path opacity="0.3" d="M1037.89 151.773L1045.35 144.595L1021.98 121.955C1020.29 120.325 1009.23 109.876 1022.09 98.1109C1036.12 85.2825 1047.36 94.0609 1049.47 96.0859C1051.58 98.1109 1072.64 118.361 1072.64 118.361L1080.01 111.273L1056.84 88.9984C1056.84 88.9984 1035.98 68.7483 1013.66 90.0109C993.592 109.157 1014.44 129.205 1014.44 129.205L1037.89 151.773Z" fill="white" fill-opacity="0.07"/>
<path opacity="0.3" d="M1087.33 181.713L1079.86 188.892L1103.23 211.531C1104.93 213.161 1115.99 223.61 1103.13 235.375C1089.1 248.204 1077.85 239.425 1075.75 237.4C1073.64 235.375 1052.58 215.125 1052.58 215.125L1045.21 222.213L1068.37 244.488C1068.37 244.488 1089.24 264.738 1111.55 243.475C1131.62 224.329 1110.77 204.282 1110.77 204.282L1087.33 181.713Z" fill="white" fill-opacity="0.07"/>
<path opacity="0.3" d="M1037.62 229.431L1045.09 222.253L1021.72 199.613C1020.03 197.983 1008.97 187.534 1021.84 175.769C1035.86 162.941 1047.11 171.719 1049.22 173.744C1051.32 175.769 1072.39 196.019 1072.39 196.019L1079.76 188.931L1056.59 166.657C1056.59 166.657 1035.73 146.407 1013.41 167.669C993.34 186.815 1014.19 206.863 1014.19 206.863L1037.62 229.431Z" fill="white" fill-opacity="0.07"/>
<path opacity="0.3" d="M1087.33 261.701L1079.86 268.88L1103.23 291.519C1104.93 293.149 1115.99 303.598 1103.13 315.364C1089.1 328.192 1077.85 319.413 1075.75 317.389C1073.64 315.364 1052.58 295.114 1052.58 295.114L1045.21 302.201L1068.37 324.476C1068.37 324.476 1089.24 344.726 1111.55 323.463C1131.62 304.317 1110.77 284.27 1110.77 284.27L1087.33 261.701Z" fill="white" fill-opacity="0.07"/>
<path opacity="0.3" d="M1037.62 309.419L1045.09 302.24L1021.72 279.601C1020.03 277.97 1008.97 267.522 1021.84 255.756C1035.86 242.928 1047.11 251.706 1049.22 253.731C1051.32 255.756 1072.39 276.006 1072.39 276.006L1079.76 268.919L1056.59 246.644C1056.59 246.644 1035.73 226.394 1013.41 247.656C993.34 266.803 1014.19 286.85 1014.19 286.85L1037.62 309.419Z" fill="white" fill-opacity="0.07"/>
<path opacity="0.3" d="M1087.33 341.688L1079.86 348.866L1103.23 371.506C1104.93 373.136 1115.99 383.585 1103.13 395.35C1089.1 408.178 1077.85 399.4 1075.75 397.375C1073.64 395.35 1052.58 375.1 1052.58 375.1L1045.21 382.187L1068.37 404.462C1068.37 404.462 1089.24 424.712 1111.55 403.45C1131.62 384.303 1110.77 364.256 1110.77 364.256L1087.33 341.688Z" fill="white" fill-opacity="0.07"/>
<path opacity="0.3" d="M1037.62 389.407L1045.09 382.228L1021.72 359.589C1020.03 357.959 1008.97 347.51 1021.84 335.745C1035.86 322.916 1047.11 331.695 1049.22 333.72C1051.32 335.745 1072.39 355.995 1072.39 355.995L1079.76 348.907L1056.59 326.632C1056.59 326.632 1035.73 306.382 1013.41 327.645C993.34 346.791 1014.19 366.838 1014.19 366.838L1037.62 389.407Z" fill="white" fill-opacity="0.07"/>
<path opacity="0.3" d="M1087.33 421.675L1079.86 428.853L1103.23 451.493C1104.93 453.123 1115.99 463.572 1103.13 475.337C1089.1 488.166 1077.85 479.387 1075.75 477.362C1073.64 475.337 1052.58 455.087 1052.58 455.087L1045.21 462.175L1068.37 484.45C1068.37 484.45 1089.24 504.7 1111.55 483.437C1131.62 464.291 1110.77 444.243 1110.77 444.243L1087.33 421.675Z" fill="white" fill-opacity="0.07"/>
<path opacity="0.3" d="M1037.62 469.394L1045.09 462.216L1021.72 439.576C1020.03 437.946 1008.97 427.497 1021.84 415.732C1035.86 402.904 1047.11 411.682 1049.22 413.707C1051.32 415.732 1072.39 435.982 1072.39 435.982L1079.76 428.894L1056.59 406.619C1056.59 406.619 1035.73 386.369 1013.41 407.632C993.34 426.778 1014.19 446.826 1014.19 446.826L1037.62 469.394Z" fill="white" fill-opacity="0.07"/>
<path opacity="0.3" d="M1087.33 501.662L1079.86 508.841L1103.23 531.48C1104.93 533.11 1115.99 543.559 1103.13 555.324C1089.1 568.153 1077.85 559.374 1075.75 557.349C1073.64 555.324 1052.58 535.074 1052.58 535.074L1045.21 542.162L1068.37 564.437C1068.37 564.437 1089.24 584.687 1111.55 563.424C1131.62 544.278 1110.77 524.231 1110.77 524.231L1087.33 501.662Z" fill="white" fill-opacity="0.07"/>
<path opacity="0.3" d="M1037.62 549.382L1045.09 542.203L1021.72 519.564C1020.03 517.933 1008.97 507.484 1021.84 495.719C1035.86 482.891 1047.11 491.669 1049.22 493.694C1051.32 495.719 1072.39 515.969 1072.39 515.969L1079.76 508.882L1056.59 486.607C1056.59 486.607 1035.73 466.357 1013.41 487.619C993.34 506.766 1014.19 526.813 1014.19 526.813L1037.62 549.382Z" fill="white" fill-opacity="0.07"/>
<path opacity="0.3" d="M1087.33 23.7627L1079.86 30.9413L1103.23 53.5807C1104.93 55.2108 1115.99 65.6598 1103.13 77.425C1089.1 90.2534 1077.85 81.475 1075.75 79.45C1073.64 77.425 1052.58 57.1751 1052.58 57.1751L1045.21 64.2626L1068.37 86.5375C1068.37 86.5375 1089.24 106.787 1111.55 85.525C1131.62 66.3787 1110.77 46.3313 1110.77 46.3313L1087.33 23.7627Z" fill="white" fill-opacity="0.07"/>
<path opacity="0.3" d="M1037.62 71.4821L1045.09 64.3035L1021.72 41.6641C1020.03 40.034 1008.97 29.585 1021.84 17.8198C1035.86 4.99145 1047.11 13.7698 1049.22 15.7948C1051.32 17.8198 1072.39 38.0697 1072.39 38.0697L1079.76 30.9822L1056.59 8.70731C1056.59 8.70731 1035.73 -11.5426 1013.41 9.71981C993.34 28.8661 1014.19 48.9136 1014.19 48.9136L1037.62 71.4821Z" fill="white" fill-opacity="0.07"/>
<path opacity="0.3" d="M1385.15 63.5547L1392.62 70.7333L1369.25 93.3726C1367.55 95.0027 1356.5 105.452 1369.36 117.217C1383.39 130.045 1394.64 121.267 1396.75 119.242C1398.85 117.217 1419.91 96.967 1419.91 96.967L1427.29 104.054L1404.12 126.329C1404.12 126.329 1383.25 146.579 1360.94 125.317C1340.87 106.171 1361.72 86.1232 1361.72 86.1232L1385.15 63.5547Z" fill="white" fill-opacity="0.07"/>
<path opacity="0.3" d="M1434.86 111.273L1427.39 104.095L1450.76 81.4552C1452.45 79.8251 1463.51 69.3761 1450.65 57.6109C1436.63 44.7825 1425.38 53.5609 1423.27 55.5859C1421.17 57.6109 1400.1 77.8609 1400.1 77.8609L1392.73 70.7734L1415.9 48.4984C1415.9 48.4984 1436.76 28.2483 1459.08 49.5109C1479.15 68.6572 1458.3 88.7048 1458.3 88.7048L1434.86 111.273Z" fill="white" fill-opacity="0.07"/>
<path opacity="0.3" d="M1385.41 141.213L1392.88 148.391L1369.51 171.031C1367.82 172.661 1356.76 183.11 1369.62 194.875C1383.64 207.704 1394.89 198.925 1397 196.9C1399.1 194.875 1420.17 174.625 1420.17 174.625L1427.54 181.713L1404.37 203.988C1404.37 203.988 1383.51 224.238 1361.19 202.975C1341.12 183.829 1361.97 163.781 1361.97 163.781L1385.41 141.213Z" fill="white" fill-opacity="0.07"/>
<path opacity="0.3" d="M1435.11 188.932L1427.64 181.754L1451.01 159.114C1452.71 157.484 1463.76 147.035 1450.9 135.27C1436.87 122.442 1425.62 131.22 1423.51 133.245C1421.41 135.27 1400.35 155.52 1400.35 155.52L1392.97 148.432L1416.14 126.158C1416.14 126.158 1437.01 105.908 1459.32 127.17C1479.39 146.316 1458.54 166.364 1458.54 166.364L1435.11 188.932Z" fill="white" fill-opacity="0.07"/>
<path opacity="0.3" d="M1385.41 221.2L1392.88 228.379L1369.51 251.018C1367.82 252.648 1356.76 263.097 1369.62 274.863C1383.64 287.691 1394.89 278.913 1397 276.888C1399.1 274.863 1420.17 254.613 1420.17 254.613L1427.54 261.7L1404.37 283.975C1404.37 283.975 1383.51 304.225 1361.19 282.963C1341.12 263.816 1361.97 243.769 1361.97 243.769L1385.41 221.2Z" fill="white" fill-opacity="0.07"/>
<path opacity="0.3" d="M1435.11 268.92L1427.64 261.741L1451.01 239.102C1452.71 237.471 1463.76 227.022 1450.9 215.257C1436.87 202.429 1425.62 211.207 1423.51 213.232C1421.41 215.257 1400.35 235.507 1400.35 235.507L1392.97 228.42L1416.14 206.145C1416.14 206.145 1437.01 185.895 1459.32 207.157C1479.39 226.304 1458.54 246.351 1458.54 246.351L1435.11 268.92Z" fill="white" fill-opacity="0.07"/>
<path opacity="0.3" d="M1385.41 301.188L1392.88 308.366L1369.51 331.006C1367.82 332.636 1356.76 343.085 1369.62 354.85C1383.64 367.678 1394.89 358.9 1397 356.875C1399.1 354.85 1420.17 334.6 1420.17 334.6L1427.54 341.688L1404.37 363.963C1404.37 363.963 1383.51 384.213 1361.19 362.95C1341.12 343.804 1361.97 323.756 1361.97 323.756L1385.41 301.188Z" fill="white" fill-opacity="0.07"/>
<path opacity="0.3" d="M1435.11 348.907L1427.64 341.728L1451.01 319.089C1452.71 317.459 1463.76 307.01 1450.9 295.245C1436.87 282.416 1425.62 291.195 1423.51 293.22C1421.41 295.245 1400.35 315.495 1400.35 315.495L1392.97 308.407L1416.14 286.132C1416.14 286.132 1437.01 265.882 1459.32 287.145C1479.39 306.291 1458.54 326.338 1458.54 326.338L1435.11 348.907Z" fill="white" fill-opacity="0.07"/>
<path opacity="0.3" d="M1385.41 381.176L1392.88 388.354L1369.51 410.994C1367.82 412.624 1356.76 423.073 1369.62 434.838C1383.64 447.666 1394.89 438.888 1397 436.863C1399.1 434.838 1420.17 414.588 1420.17 414.588L1427.54 421.676L1404.37 443.951C1404.37 443.951 1383.51 464.201 1361.19 442.938C1341.12 423.792 1361.97 403.744 1361.97 403.744L1385.41 381.176Z" fill="white" fill-opacity="0.07"/>
<path opacity="0.3" d="M1435.11 428.894L1427.64 421.716L1451.01 399.076C1452.71 397.446 1463.76 386.997 1450.9 375.232C1436.87 362.404 1425.62 371.182 1423.51 373.207C1421.41 375.232 1400.35 395.482 1400.35 395.482L1392.97 388.394L1416.14 366.119C1416.14 366.119 1437.01 345.869 1459.32 367.132C1479.39 386.278 1458.54 406.326 1458.54 406.326L1435.11 428.894Z" fill="white" fill-opacity="0.07"/>
<path opacity="0.3" d="M1385.41 461.163L1392.88 468.342L1369.51 490.981C1367.82 492.611 1356.76 503.06 1369.62 514.825C1383.64 527.654 1394.89 518.875 1397 516.85C1399.1 514.825 1420.17 494.576 1420.17 494.576L1427.54 501.663L1404.37 523.938C1404.37 523.938 1383.51 544.188 1361.19 522.925C1341.12 503.779 1361.97 483.732 1361.97 483.732L1385.41 461.163Z" fill="white" fill-opacity="0.07"/>
<path opacity="0.3" d="M1435.11 508.883L1427.64 501.704L1451.01 479.064C1452.71 477.434 1463.76 466.985 1450.9 455.22C1436.87 442.392 1425.62 451.17 1423.51 453.195C1421.41 455.22 1400.35 475.47 1400.35 475.47L1392.97 468.383L1416.14 446.108C1416.14 446.108 1437.01 425.858 1459.32 447.12C1479.39 466.267 1458.54 486.314 1458.54 486.314L1435.11 508.883Z" fill="white" fill-opacity="0.07"/>
<path opacity="0.3" d="M1385.41 543.174L1392.88 550.352L1369.51 572.992C1367.82 574.622 1356.76 585.071 1369.62 596.836C1383.64 609.665 1394.89 600.886 1397 598.861C1399.1 596.836 1420.17 576.586 1420.17 576.586L1427.54 583.674L1404.37 605.949C1404.37 605.949 1383.51 626.199 1361.19 604.936C1341.12 585.79 1361.97 565.743 1361.97 565.743L1385.41 543.174Z" fill="white" fill-opacity="0.07"/>
<path opacity="0.3" d="M1435.11 590.894L1427.64 583.715L1451.01 561.075C1452.71 559.445 1463.76 548.996 1450.9 537.231C1436.87 524.403 1425.62 533.181 1423.51 535.206C1421.41 537.231 1400.35 557.481 1400.35 557.481L1392.97 550.393L1416.14 528.118C1416.14 528.118 1437.01 507.868 1459.32 529.131C1479.39 548.277 1458.54 568.325 1458.54 568.325L1435.11 590.894Z" fill="white" fill-opacity="0.07"/>
<path opacity="0.3" d="M1319.27 104.055L1311.8 111.233L1335.17 133.873C1336.86 135.503 1347.92 145.952 1335.05 157.717C1321.03 170.546 1309.78 161.767 1307.67 159.742C1305.57 157.717 1284.5 137.467 1284.5 137.467L1277.13 144.555L1300.3 166.83C1300.3 166.83 1321.16 187.08 1343.48 165.817C1363.55 146.671 1342.7 126.623 1342.7 126.623L1319.27 104.055Z" fill="white" fill-opacity="0.07"/>
<path opacity="0.3" d="M1269.57 151.773L1277.04 144.595L1253.67 121.955C1251.97 120.325 1240.92 109.876 1253.77 98.1109C1267.8 85.2825 1279.05 94.0609 1281.16 96.0859C1283.26 98.1109 1304.32 118.361 1304.32 118.361L1311.7 111.273L1288.53 88.9984C1288.53 88.9984 1267.67 68.7483 1245.35 90.0109C1225.28 109.157 1246.13 129.205 1246.13 129.205L1269.57 151.773Z" fill="white" fill-opacity="0.07"/>
<path opacity="0.3" d="M1319.02 181.713L1311.55 188.892L1334.92 211.531C1336.61 213.161 1347.67 223.61 1334.81 235.375C1320.78 248.204 1309.54 239.425 1307.43 237.4C1305.32 235.375 1284.26 215.125 1284.26 215.125L1276.89 222.213L1300.06 244.488C1300.06 244.488 1320.92 264.738 1343.24 243.475C1363.31 224.329 1342.46 204.282 1342.46 204.282L1319.02 181.713Z" fill="white" fill-opacity="0.07"/>
<path opacity="0.3" d="M1269.31 229.431L1276.77 222.253L1253.41 199.613C1251.71 197.983 1240.65 187.534 1253.52 175.769C1267.55 162.941 1278.8 171.719 1280.9 173.744C1283.01 175.769 1304.07 196.019 1304.07 196.019L1311.44 188.931L1288.27 166.657C1288.27 166.657 1267.41 146.407 1245.1 167.669C1225.02 186.815 1245.88 206.863 1245.88 206.863L1269.31 229.431Z" fill="white" fill-opacity="0.07"/>
<path opacity="0.3" d="M1319.02 261.701L1311.55 268.88L1334.92 291.519C1336.61 293.149 1347.67 303.598 1334.81 315.364C1320.78 328.192 1309.54 319.413 1307.43 317.389C1305.32 315.364 1284.26 295.114 1284.26 295.114L1276.89 302.201L1300.06 324.476C1300.06 324.476 1320.92 344.726 1343.24 323.463C1363.31 304.317 1342.46 284.27 1342.46 284.27L1319.02 261.701Z" fill="white" fill-opacity="0.07"/>
<path opacity="0.3" d="M1269.31 309.419L1276.77 302.24L1253.41 279.601C1251.71 277.97 1240.65 267.522 1253.52 255.756C1267.55 242.928 1278.8 251.706 1280.9 253.731C1283.01 255.756 1304.07 276.006 1304.07 276.006L1311.44 268.919L1288.27 246.644C1288.27 246.644 1267.41 226.394 1245.1 247.656C1225.02 266.803 1245.88 286.85 1245.88 286.85L1269.31 309.419Z" fill="white" fill-opacity="0.07"/>
<path opacity="0.3" d="M1319.02 341.688L1311.55 348.866L1334.92 371.506C1336.61 373.136 1347.67 383.585 1334.81 395.35C1320.78 408.178 1309.54 399.4 1307.43 397.375C1305.32 395.35 1284.26 375.1 1284.26 375.1L1276.89 382.187L1300.06 404.462C1300.06 404.462 1320.92 424.712 1343.24 403.45C1363.31 384.303 1342.46 364.256 1342.46 364.256L1319.02 341.688Z" fill="white" fill-opacity="0.07"/>
<path opacity="0.3" d="M1269.31 389.407L1276.77 382.228L1253.41 359.589C1251.71 357.959 1240.65 347.51 1253.52 335.745C1267.55 322.916 1278.8 331.695 1280.9 333.72C1283.01 335.745 1304.07 355.995 1304.07 355.995L1311.44 348.907L1288.27 326.632C1288.27 326.632 1267.41 306.382 1245.1 327.645C1225.02 346.791 1245.88 366.838 1245.88 366.838L1269.31 389.407Z" fill="white" fill-opacity="0.07"/>
<path opacity="0.3" d="M1319.02 421.675L1311.55 428.853L1334.92 451.493C1336.61 453.123 1347.67 463.572 1334.81 475.337C1320.78 488.166 1309.54 479.387 1307.43 477.362C1305.32 475.337 1284.26 455.087 1284.26 455.087L1276.89 462.175L1300.06 484.45C1300.06 484.45 1320.92 504.7 1343.24 483.437C1363.31 464.291 1342.46 444.243 1342.46 444.243L1319.02 421.675Z" fill="white" fill-opacity="0.07"/>
<path opacity="0.3" d="M1269.31 469.394L1276.77 462.216L1253.41 439.576C1251.71 437.946 1240.65 427.497 1253.52 415.732C1267.55 402.904 1278.8 411.682 1280.9 413.707C1283.01 415.732 1304.07 435.982 1304.07 435.982L1311.44 428.894L1288.27 406.619C1288.27 406.619 1267.41 386.369 1245.1 407.632C1225.02 426.778 1245.88 446.826 1245.88 446.826L1269.31 469.394Z" fill="white" fill-opacity="0.07"/>
<path opacity="0.3" d="M1319.02 501.662L1311.55 508.841L1334.92 531.48C1336.61 533.11 1347.67 543.559 1334.81 555.324C1320.78 568.153 1309.54 559.374 1307.43 557.349C1305.32 555.324 1284.26 535.074 1284.26 535.074L1276.89 542.162L1300.06 564.437C1300.06 564.437 1320.92 584.687 1343.24 563.424C1363.31 544.278 1342.46 524.231 1342.46 524.231L1319.02 501.662Z" fill="white" fill-opacity="0.07"/>
<path opacity="0.3" d="M1269.31 549.382L1276.77 542.203L1253.41 519.564C1251.71 517.933 1240.65 507.484 1253.52 495.719C1267.55 482.891 1278.8 491.669 1280.9 493.694C1283.01 495.719 1304.07 515.969 1304.07 515.969L1311.44 508.882L1288.27 486.607C1288.27 486.607 1267.41 466.357 1245.1 487.619C1225.02 506.766 1245.88 526.813 1245.88 526.813L1269.31 549.382Z" fill="white" fill-opacity="0.07"/>
<path opacity="0.3" d="M1319.02 23.7627L1311.55 30.9413L1334.92 53.5807C1336.61 55.2108 1347.67 65.6598 1334.81 77.425C1320.78 90.2534 1309.54 81.475 1307.43 79.45C1305.32 77.425 1284.26 57.1751 1284.26 57.1751L1276.89 64.2626L1300.06 86.5375C1300.06 86.5375 1320.92 106.787 1343.24 85.525C1363.31 66.3787 1342.46 46.3313 1342.46 46.3313L1319.02 23.7627Z" fill="white" fill-opacity="0.07"/>
<path opacity="0.3" d="M1269.31 71.4821L1276.77 64.3035L1253.41 41.6641C1251.71 40.034 1240.65 29.585 1253.52 17.8198C1267.55 4.99145 1278.8 13.7698 1280.9 15.7948C1283.01 17.8198 1304.07 38.0697 1304.07 38.0697L1311.44 30.9822L1288.27 8.70731C1288.27 8.70731 1267.41 -11.5426 1245.1 9.71981C1225.02 28.8661 1245.88 48.9136 1245.88 48.9136L1269.31 71.4821Z" fill="white" fill-opacity="0.07"/>
</svg>
