<svg width="233" height="237" viewBox="0 0 233 237" fill="none" xmlns="http://www.w3.org/2000/svg">
<g filter="url(#filter0_bd)">
<circle cx="116.5" cy="116.5" r="96" stroke="white"/>
</g>
<g filter="url(#filter1_bd)">
<circle cx="116.5" cy="116.5" r="96.5" fill="url(#paint0_linear)"/>
</g>
<rect x="36" y="36" width="161" height="161" rx="80.5" fill="#433373"/>
<mask id="mask0" mask-type="alpha" maskUnits="userSpaceOnUse" x="36" y="36" width="161" height="161">
<rect x="36" y="36" width="161" height="161" rx="80.5" fill="#433373"/>
</mask>
<g mask="url(#mask0)">
<path d="M53.4669 120.674C51.9311 121.917 50.6725 123.546 48.9241 124.458C47.6407 125.127 46.1397 125.361 44.7151 125.115C44.3116 125.045 43.8351 124.959 43.5429 125.25C43.2457 125.547 43.3519 126.09 43.6525 126.385C43.953 126.679 44.3814 126.79 44.7882 126.89C43.5362 127.162 40.6638 126.279 41.0324 127.705C41.4724 128.017 42.0104 128.15 42.54 128.25C45.9089 128.879 49.6265 128.71 52.7812 127.362C54.4864 126.633 55.9027 125.306 57.3804 124.182C58.2654 123.509 61.357 121.452 61.3454 120.222C61.3138 116.914 54.4581 119.87 53.4669 120.674Z" fill="#5ECFC4"/>
<path d="M173.591 83.0299C175.075 81.959 176.739 81.0408 177.791 79.5349C178.886 79.3124 178.094 81.4078 177.748 82.2745C179.806 80.2687 182.157 78.5702 184.699 77.2519C185.471 76.9065 185.318 77.559 184.992 77.8263C185.34 77.5225 185.735 77.202 186.193 77.2186C186.651 77.2353 187.066 77.8214 186.766 78.1734C187.332 78.3228 187.513 79.2128 187.05 79.5764C187.252 79.5133 187.453 79.7308 187.461 79.945C187.47 80.1592 187.35 80.3534 187.231 80.5311C184.836 84.1125 181.278 86.7442 177.526 88.8113C174.992 90.2077 172.267 91.3999 169.388 91.5709C168.714 91.6107 167.907 91.5211 167.582 90.92C167.187 90.1895 167.824 89.3128 168.515 88.8578C169.798 88.016 170.224 87.5711 170.791 86.1896C171.338 84.863 172.458 83.8452 173.591 83.0299Z" fill="white"/>
<path d="M96.1082 59.7015C96.0734 61.6906 96.3656 63.7046 97.1476 65.5294C97.9297 67.3541 99.2214 68.9829 100.915 69.9908C100.772 68.8053 101.131 67.6214 101.499 66.4874C103.138 61.4432 105.066 56.4704 106.06 51.2568C106.232 50.3602 106.374 49.4404 106.243 48.5355C106.112 47.6322 105.665 46.734 104.892 46.2641C102.874 45.0388 101.046 47.5592 99.9653 48.9107C98.4261 50.8351 97.3153 53.0998 96.691 55.4908C96.3324 56.8639 96.1331 58.2802 96.1082 59.7015Z" fill="#5ECFC4"/>
<path d="M149.796 92.6916C158.118 90.1263 166.498 87.84 174.923 85.8359C175.313 86.95 174.36 88.0376 173.523 88.6901C166.89 93.8555 159.971 98.654 152.446 101.457C151.159 101.937 149.826 102.36 148.485 102.247C147.141 102.134 145.77 101.399 145.058 100.004C143.09 96.1535 147.415 93.4255 149.796 92.6916Z" fill="white"/>
<path d="M76.9952 109.496C69.0221 113.185 61.1852 117.122 53.501 121.299C53.9327 122.4 55.3656 122.571 56.4232 122.496C64.8164 121.899 73.1847 120.833 80.7095 117.861C81.9962 117.353 83.2814 116.771 84.2245 115.78C85.1659 114.789 85.7254 113.311 85.3535 111.784C84.3307 107.57 79.2766 108.44 76.9952 109.496Z" fill="#5ECFC4"/>
<path d="M132.977 84.2992C135.728 86.0907 138.282 88.2276 141.194 89.7186C144.749 91.54 148.805 92.3835 151.956 94.8874C153.157 95.8404 154.271 97.2434 154.092 98.8291C153.961 99.983 153.135 100.969 152.146 101.492C151.155 102.015 150.019 102.133 148.92 102.1C146.698 102.032 144.54 101.389 142.409 100.752C136.296 98.9204 130.179 97.0873 124.149 94.9837C122.611 94.4474 121.054 93.8795 119.754 92.8717C118.454 91.8638 117.426 90.3346 117.366 88.6244C117.329 87.5585 117.665 86.5075 118.11 85.5411C121.117 78.996 128.509 81.3885 132.977 84.2992Z" fill="white"/>
<path d="M88.8062 90.4954C87.4829 93.6584 86.5199 96.9858 84.891 99.9993C82.9019 103.68 79.9398 106.862 78.6763 110.858C78.1948 112.379 78.0387 114.219 79.0847 115.416C79.8452 116.286 81.0988 116.593 82.2328 116.415C83.3668 116.238 84.3963 115.638 85.3095 114.938C87.1558 113.52 88.6219 111.667 90.0697 109.835C94.2223 104.577 98.3749 99.3169 102.303 93.8859C103.305 92.5011 104.306 91.0782 104.84 89.451C105.375 87.8238 105.385 85.9343 104.473 84.4882C103.906 83.5866 103.029 82.9274 102.109 82.4027C95.8761 78.8545 90.9564 85.3582 88.8062 90.4954Z" fill="#5ECFC4"/>
<path d="M104.358 69.8998C107.513 69.0032 110.566 67.743 113.44 66.1523C113.324 72.1297 116.02 78.102 120.561 81.9242C117.478 85.2117 112.731 86.8057 108.32 86.0386C107.811 85.9506 107.298 85.8294 106.86 85.5538C104.479 84.0594 105.806 80.6822 105.822 78.4706C105.829 77.672 105 69.7172 104.358 69.8998Z" fill="white"/>
<path d="M97.9353 143.111C97.9353 143.111 94.5631 135.47 91.7554 123.497C90.0635 116.284 90.0352 108.819 90.6761 102.264C90.7874 101.122 89.0374 100.006 89.1851 98.9252C90.4852 89.3549 94.8453 82.4328 94.8453 82.4328C94.8453 82.4328 102.823 77.9481 110.454 78.4711C118.086 78.9942 131.604 85.1309 131.604 85.1309C131.604 85.1309 132.889 90.997 126.211 98.9252C119.533 106.852 114.222 110.373 114.947 115.333C115.671 120.293 118.003 125.212 118.003 125.212L120.5 134.605L107.705 145.703L97.9353 143.111Z" fill="white"/>
<path d="M197.041 130.061C201.217 133.915 203.45 139.445 205.132 144.906C205.841 147.209 206.495 149.575 207.803 151.593C209.112 153.608 211.229 155.259 213.611 155.314C215.994 155.367 219.949 153.715 218.285 150.948C217.862 150.361 216.94 150.508 216.294 150.754C217.055 149.765 218.63 149.723 219.647 150.437C220.664 151.151 221.181 152.418 221.332 153.661C221.74 156.994 219.633 160.472 216.515 161.615C219.74 163.489 220.736 167.647 221.388 171.353C222.393 177.056 223.306 182.917 222.25 188.611C221.194 194.304 217.782 199.884 212.432 201.943C208.979 203.273 204.717 202.865 202.067 200.258C199.417 197.651 199.106 192.728 201.901 190.281C199.89 192.197 201.98 196.056 204.733 196.26C207.486 196.464 209.88 194.238 211.177 191.77C212.598 189.065 213.125 185.745 211.974 182.911C210.823 180.076 208.265 176.573 204.775 178.562C203.813 179.414 203.714 181.082 204.567 182.045C205.421 183.008 207.069 183.09 208.011 182.215C206.97 185.303 202.087 185.328 200.144 182.725C198.203 180.119 198.698 176.35 200.166 173.446C197.801 174.994 194.223 174.084 192.863 171.59C194.1 172.769 196.289 172.07 197.248 170.652C198.208 169.234 198.284 167.408 198.327 165.689C198.555 156.625 198.693 147.131 194.645 139.044C193.19 136.136 190.932 133.197 187.879 131.904C186.026 131.119 182.117 131.987 182.277 129.496C182.396 127.619 186.194 126.149 187.631 126.018C190.887 125.716 194.741 127.939 197.041 130.061Z" fill="#433373"/>
<path d="M103.542 147.52C103.542 147.52 91.0507 174.414 91.7845 177.317C92.5184 180.219 92.1648 183.749 94.73 184.24C97.2953 184.732 128.514 192.658 128.514 192.658V188.424L99.844 177.317L114.945 155.627L103.542 147.52Z" fill="#5ECFC4"/>
<path d="M140.61 162.99C141.501 172.776 147.367 181.962 155.815 186.803C156.431 187.157 157.095 187.522 157.432 188.152C157.771 188.786 157.71 189.553 157.638 190.27C156.34 203.322 155.041 216.376 153.741 229.428C155.727 229.825 157.774 229.915 159.787 229.692C161.13 214.402 163.747 199.228 167.597 184.381C167.876 183.308 168.162 182.201 168.001 181.105C167.871 180.228 167.463 179.423 167.134 178.599C164.549 172.111 167.001 164.847 168.402 157.996C169.233 153.938 169.684 149.802 169.751 145.659C169.786 143.443 169.686 141.128 168.635 139.182C167.18 136.491 164.119 135.01 161.103 134.694C146.789 133.198 139.49 150.727 140.61 162.99Z" fill="#5ECFC4"/>
<path d="M97.9341 143.11C97.9341 143.11 106.854 139.997 110.676 135.923C114.498 131.85 118.003 125.21 118.003 125.21C118.003 125.21 120.87 127.553 131.063 127.604C141.256 127.657 179.483 120.551 185.535 124.911C191.587 129.269 195.728 143.456 192.544 151.356C189.357 159.257 189.357 159.257 189.357 159.257C189.357 159.257 182.03 165.064 158.458 167.32C134.886 169.577 114.179 164.74 110.038 162.482C105.897 160.225 97.9341 143.11 97.9341 143.11Z" fill="#5ECFC4"/>
<path d="M103.542 154.221C103.542 154.221 108.764 159.575 110.675 180.85C112.586 202.122 112.905 228.763 112.905 228.763H117.365V155.926L103.542 154.221Z" fill="#5ECFC4"/>
<path d="M164.183 161.941C165.074 171.727 170.94 180.912 179.388 185.754C180.004 186.108 180.668 186.473 181.005 187.102C181.344 187.736 181.283 188.504 181.211 189.221C179.913 202.273 178.614 215.327 177.314 228.379C179.3 228.776 181.347 228.865 183.36 228.643C184.703 213.353 187.318 198.177 191.17 183.33C191.447 182.257 191.735 181.15 191.574 180.054C191.444 179.177 191.036 178.372 190.707 177.548C188.122 171.06 190.574 163.796 191.975 156.945C192.806 152.887 193.257 148.751 193.324 144.608C193.359 142.392 193.259 140.077 192.208 138.131C190.753 135.44 187.692 133.959 184.676 133.643C170.362 132.149 163.065 149.677 164.183 161.941Z" fill="#5ECFC4"/>
<path d="M128.516 188.427V192.659L123.91 191.492L124.238 186.77L128.516 188.427Z" fill="white"/>
<path d="M105.816 78.2672C107.339 76.5387 108.783 74.8684 110.427 73.2595C111.378 72.328 112.358 71.4065 113.099 70.2974C113.841 69.1883 114.332 67.85 114.183 66.5184C114.133 66.0701 114.003 65.6185 113.723 65.2698C113.047 64.4296 111.767 64.4612 110.739 64.765C108.267 65.4956 106.218 67.4482 105.213 69.8325C104.666 71.1359 104.617 71.8847 105.019 73.1134C105.537 74.6974 105.642 76.6018 105.816 78.2672Z" fill="#5ECFC4"/>
<path d="M103.388 47.0171C102.126 48.5247 101.345 50.3827 100.726 52.2572C98.966 57.5854 98.3682 63.3037 98.9892 68.8875C99.1669 70.4815 99.5305 72.2199 100.792 73.1895C101.742 73.9184 103.012 74.0496 104.203 73.9799C108.687 73.7142 112.808 70.8932 115.277 67.0926C117.745 63.2921 118.683 58.6214 118.55 54.0753C118.474 51.4437 117.995 48.6808 116.33 46.6568C113.169 42.818 106.449 43.3593 103.388 47.0171Z" fill="white"/>
<path d="M107.32 56.6471C107.32 56.6471 108.457 55.606 109.702 55.8799C110.947 56.1538 111.54 57.7972 111.54 57.7972C111.54 57.7972 110.582 58.1801 109.167 57.7972C107.753 57.4143 107.32 56.6471 107.32 56.6471Z" fill="#5ECFC4"/>
<path d="M108.753 56.4335C108.723 56.4923 108.701 56.5583 108.707 56.6242C108.713 56.6902 108.753 56.7562 108.813 56.7777C108.875 56.8006 108.944 56.7763 108.997 56.7375C109.05 56.6988 109.091 56.6472 109.14 56.6027C109.225 56.5253 109.332 56.4737 109.446 56.4565C109.506 56.4464 109.572 56.445 109.622 56.4106C109.689 56.3632 109.707 56.2586 109.658 56.1926C109.423 55.8671 108.888 56.1682 108.753 56.4335Z" fill="#5ECFC4"/>
<path d="M101.702 55.5377C101.702 55.5377 102.633 54.5526 103.651 54.8121C104.671 55.0717 105.157 56.6262 105.157 56.6262C105.157 56.6262 104.372 56.989 103.215 56.6262C102.056 56.2634 101.702 55.5377 101.702 55.5377Z" fill="#5ECFC4"/>
<path d="M121.019 61.8673C120.408 59.0331 120.277 56.1141 119.751 53.2633C119.226 50.4124 118.245 47.5333 116.244 45.4579C114.906 44.0698 113.146 43.1035 111.266 42.7249C109.754 42.4211 104.758 42.2351 100.95 47.4437C99.7998 49.0177 100.187 51.5315 101.576 52.893C102.226 52.3999 102.979 52.0462 103.77 51.8619C103.914 51.8287 104.074 51.7922 104.163 51.6726C104.24 51.5713 104.248 51.4352 104.26 51.309C104.336 50.4539 104.688 49.6902 105.156 48.9729C105.497 49.8678 105.847 50.8873 106.26 51.852C106.521 52.4596 106.835 53.0723 107.356 53.4692C107.879 53.866 108.663 53.9822 109.176 53.5721C109.101 53.1454 109.025 52.7203 108.95 52.2936C109.402 52.9511 109.862 53.6186 110.479 54.1184C111.095 54.6198 111.902 54.9402 112.679 54.7958C112.852 54.7626 113.045 54.7128 113.192 54.8091C113.287 54.8722 113.338 54.9834 113.383 55.0897C114.501 57.7645 114.333 60.9541 112.942 63.4928C113.224 63.4148 113.504 63.3367 113.787 63.2587C113.664 67.134 113.695 71.2916 115.854 74.4928C116.99 73.7987 118.223 73.2691 119.507 72.9287C119.389 72.3326 119.224 71.7448 119.015 71.1737C119.475 71.5672 119.967 71.9225 120.483 72.2347C120.593 72.3011 120.714 72.3675 120.84 72.3575C120.956 72.3476 121.056 72.2762 121.15 72.2081C122.427 71.2766 123.702 70.3435 124.979 69.412C122.799 67.5358 121.63 64.7016 121.019 61.8673Z" fill="#5ECFC4"/>
</g>
<defs>
<filter id="filter0_bd" x="-37.6316" y="-37.6316" width="308.263" height="308.263" filterUnits="userSpaceOnUse" color-interpolation-filters="sRGB">
<feFlood flood-opacity="0" result="BackgroundImageFix"/>
<feGaussianBlur in="BackgroundImage" stdDeviation="28.8158"/>
<feComposite in2="SourceAlpha" operator="in" result="effect1_backgroundBlur"/>
<feColorMatrix in="SourceAlpha" type="matrix" values="0 0 0 0 0 0 0 0 0 0 0 0 0 0 0 0 0 0 127 0"/>
<feOffset/>
<feGaussianBlur stdDeviation="10"/>
<feColorMatrix type="matrix" values="0 0 0 0 0.431373 0 0 0 0 0.223529 0 0 0 0 0.898039 0 0 0 1 0"/>
<feBlend mode="normal" in2="effect1_backgroundBlur" result="effect2_dropShadow"/>
<feBlend mode="normal" in="SourceGraphic" in2="effect2_dropShadow" result="shape"/>
</filter>
<filter id="filter1_bd" x="0" y="0" width="233" height="237" filterUnits="userSpaceOnUse" color-interpolation-filters="sRGB">
<feFlood flood-opacity="0" result="BackgroundImageFix"/>
<feGaussianBlur in="BackgroundImage" stdDeviation="10"/>
<feComposite in2="SourceAlpha" operator="in" result="effect1_backgroundBlur"/>
<feColorMatrix in="SourceAlpha" type="matrix" values="0 0 0 0 0 0 0 0 0 0 0 0 0 0 0 0 0 0 127 0"/>
<feOffset dy="4"/>
<feGaussianBlur stdDeviation="10"/>
<feColorMatrix type="matrix" values="0 0 0 0 1 0 0 0 0 1 0 0 0 0 1 0 0 0 0.15 0"/>
<feBlend mode="normal" in2="effect1_backgroundBlur" result="effect2_dropShadow"/>
<feBlend mode="normal" in="SourceGraphic" in2="effect2_dropShadow" result="shape"/>
</filter>
<linearGradient id="paint0_linear" x1="135.029" y1="10.4595" x2="135.029" y2="213" gradientUnits="userSpaceOnUse">
<stop stop-color="white" stop-opacity="0.4"/>
<stop offset="1" stop-color="white" stop-opacity="0.25"/>
</linearGradient>
</defs>
</svg>
