<svg width="233" height="237" viewBox="0 0 233 237" fill="none" xmlns="http://www.w3.org/2000/svg">
<g filter="url(#filter0_bd)">
<circle cx="116.5" cy="116.5" r="96" stroke="white"/>
</g>
<g filter="url(#filter1_bd)">
<circle cx="116.5" cy="116.5" r="96.5" fill="url(#paint0_linear)"/>
</g>
<rect x="36" y="36" width="161" height="161" rx="80.5" fill="#5ECFC4"/>
<mask id="mask0" mask-type="alpha" maskUnits="userSpaceOnUse" x="36" y="36" width="161" height="161">
<rect x="36" y="36" width="161" height="161" rx="80.5" fill="#5ECFC4"/>
</mask>
<g mask="url(#mask0)">
<path d="M137.905 103.258C139.962 94.4112 142.76 85.4607 148.489 78.4105C154.492 71.0234 163.305 66.3186 172.476 63.7691C181.647 61.2214 191.242 60.6666 200.756 60.3662C202.304 60.3168 203.894 60.2801 205.359 60.7873C206.824 61.2927 208.16 62.4653 208.412 63.9956C208.705 65.7905 207.454 67.5011 205.983 68.5713C204.513 69.6432 202.774 70.319 201.364 71.4682C203.469 71.2054 206.074 72.087 206.45 74.1748C206.773 75.9597 205.307 77.5372 203.878 78.6566C201.849 80.2459 199.641 81.6036 197.306 82.6938C198.66 81.431 201.093 82.967 201.205 84.8134C201.316 86.6599 199.951 88.2647 198.491 89.4011C193.361 93.3858 186.514 94.11 180.075 94.9629C175.521 95.5657 170.951 96.3142 166.647 97.9209C162.344 99.5294 158.29 102.058 155.494 105.702C152.352 109.797 151.015 114.957 148.737 119.59C147.846 121.397 146.697 123.236 144.858 124.053C143.532 124.644 142.025 124.619 140.573 124.585C139.114 124.55 137.591 124.499 136.309 123.798C133.184 122.09 134.871 118.993 135.293 116.537C136.06 112.088 136.882 107.658 137.905 103.258Z" fill="#433373"/>
<path d="M65.2643 155.503C64.8707 157.451 67.2014 171.84 69.1493 174.879C69.5955 175.576 78.4853 179.84 81.0199 179.708C80.8459 176.384 79.0219 168.207 78.0329 165.029C77.4392 163.119 77.2165 160.867 78.4238 159.272C79.106 158.372 80.1416 157.825 81.1268 157.273C83.4385 155.977 85.65 154.505 87.7351 152.871C88.8145 152.027 89.9128 151.058 90.2895 149.741C90.6499 148.474 90.2613 147.093 89.5811 145.963C87.6763 142.805 81.8391 138.791 78.6045 141.054C77.2686 141.99 65.6931 153.386 65.2643 155.503Z" fill="white"/>
<path d="M174.603 166.582C174.133 164.779 172.484 163.582 171.355 162.101C169.182 159.25 168.977 155.387 169.16 151.807C169.452 146.092 170.502 140.388 170.045 134.684C169.585 128.98 167.298 123.035 162.47 119.965C158.56 117.48 153.459 117.272 149.097 118.833C144.736 120.393 138.967 124.903 136.215 128.629C132.652 133.452 133.906 151.853 139.987 158.214C144.154 162.572 149.017 166.557 154.989 167.371C155.718 167.471 156.514 167.561 157.032 168.082C158.253 169.311 156.849 171.304 155.516 172.411C152.864 174.614 150.174 176.824 148.066 179.554C147.218 180.651 146.47 181.847 145.883 183.109C145.063 182.623 143.209 181.796 140.586 182.208C136.969 182.778 133.83 187.14 134.494 190.23C135.159 193.321 136.385 193.778 136.385 193.778L156.2 193.595C156.2 193.595 157.018 190.995 157.388 188.416C159.106 182.939 162.817 178.089 167.703 175.066C169.376 174.031 171.195 173.186 172.636 171.846C174.074 170.503 175.099 168.485 174.603 166.582Z" fill="white"/>
<path d="M112.98 185.997C112.26 185.951 111.55 185.758 110.905 185.433C111.604 187.352 112.665 189.137 114.014 190.67C111.774 190.894 109.509 190.022 107.766 188.598C106.023 187.171 104.763 185.23 103.837 183.177C102.868 181.028 102.243 178.718 102.036 176.366C101.914 174.994 101.437 170.832 103.357 170.381C105.079 169.976 106.157 172.839 106.525 174.022C107.179 176.118 107.795 178.201 108.749 180.188C109.795 182.363 111.165 184.393 112.98 185.997Z" fill="#433373"/>
<path d="M96.6873 183.901C96.6873 183.901 94.532 182.112 90.9146 182.682C87.2972 183.251 84.1587 187.613 84.8222 190.703C85.4874 193.794 86.7132 194.251 86.7132 194.251L106.529 194.067C106.529 194.067 108.488 187.84 107.717 185.101C106.947 182.361 96.6873 183.901 96.6873 183.901Z" fill="#433373"/>
<path d="M77.2252 177.3C77.2252 177.3 78.496 179.511 81.6021 179.785C84.7083 180.06 88.459 176.575 88.7584 173.45C89.0578 170.326 88.1811 169.607 88.1811 169.607L71.9644 165.281C71.9644 165.281 68.6698 170.827 68.5517 173.638C68.4353 176.451 77.2252 177.3 77.2252 177.3Z" fill="white"/>
<path d="M117.049 110.604C117.049 110.604 120.887 112.833 131.153 114.406C141.419 115.979 160.537 111.58 169.951 114.909C177.863 117.708 183.515 132.489 178.92 144.285C174.681 155.171 173.6 158.008 156.957 161.501C127.536 167.676 94.3867 164.393 88.2423 160.489C77.2165 153.484 75.7406 141.374 77.791 132.368C79.8414 123.363 105.011 111.277 105.011 111.277L117.049 110.604Z" fill="#433373"/>
<path d="M76.3896 129.15C75.2828 131.837 74.8155 134.784 75.035 137.683C75.1033 138.577 75.2426 139.489 75.6807 140.269C76.1188 141.05 76.9115 141.684 77.8057 141.718C79.4587 141.781 80.4861 139.991 81.1244 138.466C81.3811 139.836 83.0372 140.466 84.4297 140.388C87.1835 140.236 89.721 138.146 90.4002 135.471C90.0926 136.284 90.5979 137.242 91.3603 137.657C92.1228 138.071 93.0579 138.04 93.8981 137.822C96.2652 137.206 98.1689 135.096 98.5407 132.679C99.4918 133.822 101.18 134.146 102.626 133.793C104.071 133.44 105.311 132.518 106.405 131.509C107.171 130.802 107.945 129.728 107.456 128.806C108.696 129.817 110.55 129.996 111.96 129.241C113.369 128.486 114.248 126.842 114.092 125.251C115.245 125.13 116.214 124.211 116.624 123.126C117.035 122.04 116.957 120.823 116.658 119.702C115.601 115.743 111.91 112.888 107.947 111.843C103.984 110.799 99.7789 111.294 95.7704 112.142C92.4867 112.837 89.252 113.767 86.0996 114.919C83.483 115.877 80.8903 117.007 78.7015 118.73L76.3896 129.15Z" fill="white"/>
<path d="M78.8396 117.28C77.4928 119.326 76.2631 121.447 75.1594 123.632C74.4943 124.947 73.8611 126.351 73.9237 127.822C73.9597 128.66 74.256 129.525 74.897 130.065C75.7751 130.803 77.1099 130.759 78.1448 130.267C79.1796 129.773 79.9847 128.912 80.7618 128.069C80.5716 130.005 82.1743 131.81 84.0581 132.297C85.9419 132.783 87.9685 132.174 89.6133 131.133C90.8131 130.376 91.9252 129.287 92.1778 127.892C92.2978 129.492 94.1524 130.353 95.7527 130.468C99.2015 130.712 102.98 128.553 103.584 125.149C104.765 126.598 106.898 127.187 108.654 126.546C110.412 125.905 111.665 124.085 111.639 122.215C113.445 123.465 116.216 122.302 117.034 120.265C117.853 118.227 117.016 115.8 115.459 114.251C113.903 112.702 111.759 111.891 109.626 111.369C106.514 110.612 103.294 110.384 100.091 110.389C92.443 110.401 84.392 111.919 78.6063 116.919C79.0601 116.619 79.4083 116.165 79.5766 115.648L78.8396 117.28Z" fill="#433373"/>
<path d="M120.232 109.324C119.691 109.077 119.103 108.981 118.512 108.895C118.534 108.826 118.541 108.791 118.541 108.791C118.541 108.791 117.384 108.183 114.646 105.712C111.909 103.241 109.501 86.6539 108.575 79.2759C107.651 71.898 103.8 65.2986 95.3533 64.8016C86.9063 64.3046 81.0103 66.9643 81.0103 66.9643C81.0103 66.9643 80.5105 85.404 80.6508 85.8314C80.7912 86.2589 82.6447 100.737 81.4096 105.95C80.2241 110.955 75.6825 115.948 75.323 116.338C74.3235 116.782 73.9028 118.142 74.3046 119.179C74.7248 120.265 75.8153 120.978 76.9461 121.255C78.6761 121.678 80.6003 121.2 81.929 120.015C82.7188 122.075 84.7402 123.607 86.9386 123.809C89.1371 124.012 91.4034 122.874 92.557 120.992C93.152 123.065 95.7598 123.726 97.9158 123.719C99.2084 123.715 100.546 123.59 101.673 122.955C102.798 122.321 103.659 121.068 103.484 119.787C104.886 121.386 107.245 122.073 109.287 121.48C111.329 120.886 112.95 119.041 113.276 116.938C114.683 117.792 116.619 117.662 117.901 116.63C119.183 115.597 119.718 113.73 119.18 112.175C119.918 112.888 121.389 112.419 121.577 111.412C121.741 110.533 121.043 109.692 120.232 109.324Z" fill="white"/>
<path d="M81.0072 66.9623C81.0072 66.9623 67.1177 68.1824 63.4491 74.0362C59.7822 79.8901 60.1547 90.6833 60.7916 91.1346C61.4268 91.5858 63.7918 87.2542 67.519 86.7901C71.2445 86.326 80.7557 86.4858 80.7557 86.4858C80.7557 86.4858 84.3787 82.8502 85.1833 79.8357C86.5463 74.7292 81.0072 66.9623 81.0072 66.9623Z" fill="#433373"/>
<path d="M158.2 183.532C158.2 183.532 156.045 181.743 152.427 182.312C148.81 182.882 145.671 187.244 146.335 190.334C147 193.425 148.226 193.882 148.226 193.882L168.042 193.698C168.042 193.698 170 187.471 169.228 184.732C168.458 181.992 158.2 183.532 158.2 183.532Z" fill="#433373"/>
<path d="M186.445 166.686C185.975 164.884 184.327 163.686 183.198 162.205C181.025 159.354 180.82 155.491 181.003 151.912C181.295 146.196 182.345 140.493 181.887 134.788C181.428 129.084 179.141 123.139 174.313 120.069C170.403 117.585 165.302 117.376 160.94 118.937C156.578 120.496 150.81 125.006 148.058 128.733C144.495 133.556 145.749 151.958 151.83 158.319C155.997 162.676 160.859 166.662 166.832 167.476C167.56 167.576 168.357 167.666 168.875 168.187C170.096 169.415 168.692 171.409 167.359 172.516C164.707 174.719 162.017 176.928 159.909 179.658C157.801 182.386 156.299 185.725 156.403 189.171C160.462 189.816 164.52 190.459 168.579 191.103C169.826 184.585 173.904 178.66 179.546 175.168C181.219 174.134 183.038 173.289 184.478 171.949C185.919 170.607 186.942 168.59 186.445 166.686Z" fill="#433373"/>
<path d="M77.5667 152.22C77.5667 152.22 85.4098 163.651 88.8256 170.717C92.2397 177.783 93.354 192.057 93.354 192.057C93.354 192.057 106.663 192.89 106.439 192.187C106.214 191.482 107.417 186.057 105.686 175.654C103.31 161.381 98.4305 149.991 98.4305 149.991L77.5667 152.22Z" fill="#433373"/>
<path d="M176.789 116.96C180.19 117.846 182.58 120.775 185.261 123.044C190.334 127.337 197.546 129.508 203.825 127.329C210.102 125.149 214.61 117.942 212.617 111.603C213.109 111.517 213.602 111.432 214.095 111.346C215.888 117.106 214.175 123.808 209.841 128.005C205.506 132.201 198.752 133.695 193.053 131.717C187.645 129.84 183.026 125.117 177.307 125.377C175.505 125.457 173.765 126.048 171.976 126.27C170.187 126.492 168.191 126.271 166.906 125.007C161.516 119.698 173.406 116.077 176.789 116.96Z" fill="#433373"/>
<path d="M125.346 98.4795C126.561 89.4789 128.502 80.3018 133.541 72.7459C138.821 64.8264 147.149 59.311 156.04 55.9084C164.928 52.5075 174.429 51.0499 183.873 49.8555C185.411 49.6601 186.989 49.4756 188.496 49.8408C190.002 50.2061 191.443 51.2463 191.835 52.7471C192.297 54.5078 191.212 56.3265 189.848 57.5318C188.486 58.7372 186.82 59.5738 185.523 60.8512C187.594 60.3899 190.27 61.024 190.843 63.0675C191.333 64.8145 190.022 66.5226 188.706 67.7703C186.836 69.5441 184.764 71.1033 182.545 72.4087C183.773 71.0244 186.342 72.3242 186.625 74.152C186.911 75.9798 185.704 77.7067 184.355 78.9747C179.624 83.425 172.874 84.7932 166.546 86.2486C162.069 87.2781 157.589 88.4534 153.458 90.4602C149.327 92.467 145.528 95.3675 143.087 99.2586C140.345 103.632 139.5 108.896 137.669 113.722C136.955 115.603 135.983 117.541 134.231 118.53C132.965 119.243 131.463 119.361 130.013 119.464C128.557 119.566 127.036 119.659 125.695 119.083C122.423 117.676 123.812 114.435 124 111.95C124.34 107.445 124.741 102.955 125.346 98.4795Z" fill="white"/>
<path d="M94.4723 74.0737C95.389 74.0856 96.1418 73.3521 96.1537 72.4354C96.1656 71.5186 95.4321 70.7658 94.5153 70.754C93.5986 70.7421 92.8458 71.4756 92.8339 72.3923C92.822 73.309 93.5556 74.0618 94.4723 74.0737Z" fill="#433373"/>
<path d="M96.8604 57.1161C97.3467 58.0605 97.6774 59.0863 97.834 60.1377C100.683 57.7668 102.187 53.8809 101.677 50.2105C105.103 54.6067 105.939 60.8786 103.784 66.019C103.191 67.4341 102.056 68.9482 100.527 68.8154C99.9891 68.7685 99.4938 68.5154 99.0052 68.2815C97.2873 67.4618 95.4729 66.8441 93.6123 66.4447C92.19 66.1396 90.0278 66.2193 91.5998 64.6275C92.7247 63.4903 93.9958 62.7302 94.9497 61.3736C95.4064 60.7264 97.2874 57.9468 96.8604 57.1161Z" fill="white"/>
</g>
<defs>
<filter id="filter0_bd" x="-37.6316" y="-37.6316" width="308.263" height="308.263" filterUnits="userSpaceOnUse" color-interpolation-filters="sRGB">
<feFlood flood-opacity="0" result="BackgroundImageFix"/>
<feGaussianBlur in="BackgroundImage" stdDeviation="28.8158"/>
<feComposite in2="SourceAlpha" operator="in" result="effect1_backgroundBlur"/>
<feColorMatrix in="SourceAlpha" type="matrix" values="0 0 0 0 0 0 0 0 0 0 0 0 0 0 0 0 0 0 127 0"/>
<feOffset/>
<feGaussianBlur stdDeviation="10"/>
<feColorMatrix type="matrix" values="0 0 0 0 0.431373 0 0 0 0 0.223529 0 0 0 0 0.898039 0 0 0 1 0"/>
<feBlend mode="normal" in2="effect1_backgroundBlur" result="effect2_dropShadow"/>
<feBlend mode="normal" in="SourceGraphic" in2="effect2_dropShadow" result="shape"/>
</filter>
<filter id="filter1_bd" x="0" y="0" width="233" height="237" filterUnits="userSpaceOnUse" color-interpolation-filters="sRGB">
<feFlood flood-opacity="0" result="BackgroundImageFix"/>
<feGaussianBlur in="BackgroundImage" stdDeviation="10"/>
<feComposite in2="SourceAlpha" operator="in" result="effect1_backgroundBlur"/>
<feColorMatrix in="SourceAlpha" type="matrix" values="0 0 0 0 0 0 0 0 0 0 0 0 0 0 0 0 0 0 127 0"/>
<feOffset dy="4"/>
<feGaussianBlur stdDeviation="10"/>
<feColorMatrix type="matrix" values="0 0 0 0 1 0 0 0 0 1 0 0 0 0 1 0 0 0 0.15 0"/>
<feBlend mode="normal" in2="effect1_backgroundBlur" result="effect2_dropShadow"/>
<feBlend mode="normal" in="SourceGraphic" in2="effect2_dropShadow" result="shape"/>
</filter>
<linearGradient id="paint0_linear" x1="135.029" y1="10.4595" x2="135.029" y2="213" gradientUnits="userSpaceOnUse">
<stop stop-color="white" stop-opacity="0.4"/>
<stop offset="1" stop-color="white" stop-opacity="0.25"/>
</linearGradient>
</defs>
</svg>
