<svg width="233" height="237" viewBox="0 0 233 237" fill="none" xmlns="http://www.w3.org/2000/svg">
<g filter="url(#filter0_bd)">
<circle cx="116.5" cy="116.5" r="96" stroke="white"/>
</g>
<g filter="url(#filter1_bd)">
<circle cx="116.5" cy="116.5" r="96.5" fill="url(#paint0_linear)"/>
</g>
<rect x="36" y="36" width="161" height="161" rx="80.5" fill="#5ECFC4"/>
<mask id="mask0" mask-type="alpha" maskUnits="userSpaceOnUse" x="36" y="36" width="161" height="161">
<rect x="36" y="36" width="161" height="161" rx="80.5" fill="#5ECFC4"/>
</mask>
<g mask="url(#mask0)">
<path d="M155.902 81.9775C155.902 81.9775 133.766 100.665 145.945 127.317L159.626 138.604L167.402 114.159C167.397 114.154 148.373 104.924 155.902 81.9775Z" fill="#433373"/>
<path d="M175.078 123.241C175.078 123.241 179.322 99.3199 202.289 94.3438C202.289 94.3438 190.748 116.553 192.524 130.151L179.258 137.036L175.078 123.241Z" fill="white"/>
<path d="M240.901 113.833C240.901 113.833 227.605 117.716 217.277 125.897C212.667 129.543 208.655 134.044 206.682 139.436C200.281 156.911 219.538 200.979 175.42 200.979C139.479 200.979 142.601 185.67 142.601 185.67V183.662C142.601 183.662 173.452 187.683 183.666 169.96C193.88 152.237 187.727 131.877 187.727 131.877C187.727 131.877 198.847 117.879 215.674 112.987C223.124 110.82 231.691 110.44 240.901 113.833Z" fill="white"/>
<path d="M144.321 179.591C144.321 179.591 166.476 169.555 155.806 150.353C145.137 131.151 120.192 144.773 118.881 159.217C118.881 159.217 105.377 120.541 142.347 120.486C181.078 120.427 173.198 178.256 144.152 183.672L144.321 179.591Z" fill="white"/>
<path d="M191.911 152.074C189.943 192.526 143.99 185.14 143.99 185.14V181.861C143.99 181.861 159.656 180.303 164.993 163.97C169.049 151.559 160.729 138.862 159.25 122.286C158.29 111.523 161.995 102.53 167.021 95.5208C169.934 91.4548 173.293 88.0566 176.434 85.3806C178.432 83.679 180.342 82.2594 182.004 81.1465L182.009 81.1415C186.109 78.3863 188.667 77.4465 187.148 78.5051C182.968 81.4235 179.041 89.9561 178.155 100.779C178.027 102.273 177.962 103.806 177.962 105.379C177.962 118.349 193.45 120.51 191.911 152.074Z" fill="#433373"/>
<path d="M195.847 216.486C173.361 218.786 151.542 210.417 142.594 189.409L143.989 187.441C143.989 187.441 177.14 212.222 196.5 189.741C207.175 177.35 201.026 167.353 191.494 162.026C183.728 157.693 173.727 156.451 168.726 159.533C169.067 159.246 179.746 150.471 192.983 149.857C199.112 149.571 205.799 151.045 212.259 155.927C238.827 176.019 217.978 214.226 195.847 216.486Z" fill="#433373"/>
<path d="M90.8152 154.206C90.8152 154.206 92.2942 183.994 84.9092 192.526H91.6363C91.6363 192.526 103.29 176.114 90.8152 154.206Z" fill="white"/>
<path d="M86.5525 146.906C86.5525 146.906 98.7801 185.8 112.279 194.006C112.279 194.006 135.953 198.106 138.906 197.453C141.859 196.796 149.407 188.426 145.964 178.088C142.517 167.75 126.352 155.438 122.617 141.653C118.882 127.867 121.875 96.3877 121.875 96.3877C121.875 96.3877 84.2524 135.747 86.5525 146.906Z" fill="white"/>
<path d="M93.8134 194.658C93.2248 195.667 92.6065 196.651 91.9684 197.616C91.9684 197.616 89.1736 198.071 86.1513 198.145C85.9832 198.15 85.815 198.15 85.6419 198.155C84.0244 198.17 82.3822 198.061 81.1109 197.705C80.9477 197.665 80.7894 197.616 80.641 197.556C80.0969 197.364 79.6418 197.111 79.3203 196.795C79.3203 196.795 80.2799 192.744 81.7045 189.875C82.4019 188.46 83.2181 187.327 84.0837 187.115C86.7103 186.462 89.6633 187.446 89.6633 187.446C89.6633 187.446 89.7375 187.342 89.876 187.129C91.36 184.834 99.9272 169.639 94.6345 132.956L110.181 117.859C110.181 117.859 111.255 165.123 93.8134 194.658Z" fill="#433373"/>
<path d="M138.9 197.448L110.196 197.522C110.107 197.542 110.018 197.562 109.924 197.581C107.292 198.14 103.721 198.111 100.798 197.938C100.629 197.928 100.466 197.918 100.303 197.908C99.0664 197.824 97.9732 197.72 97.1521 197.631C96.9592 197.616 96.7812 197.596 96.6229 197.577C95.965 197.502 95.5742 197.448 95.5742 197.448C95.5742 195.316 99.6798 188.752 101.935 188.752C103.479 188.752 104.542 189.445 106.377 190.196C107.223 190.548 108.232 190.904 109.528 191.215C113.629 192.2 119.54 191.215 119.54 191.215C106.249 181.041 104.067 168.961 111.502 162.823C118.931 156.684 129.388 169.224 129.388 169.224C141.858 181.693 138.9 197.448 138.9 197.448Z" fill="#433373"/>
<path d="M110.181 77.4024C110.181 77.4024 116.581 63.864 135.041 55C135.041 55 133.81 72.2334 122.611 81.5871L117.308 85.7718L110.181 77.4024Z" fill="white"/>
<path d="M108.212 122.202C94.1791 136.236 87.7784 143.373 87.7784 154.206C87.7784 154.206 82.3621 149.527 84.0834 138.699C84.0834 138.699 81.7734 140.544 81.625 142.898C81.6696 140.791 82.3126 124.641 91.9582 110.638C102.306 95.6203 98.8585 94.3886 98.8585 94.3886C98.8585 94.3886 77.9548 96.7629 70.174 87.3993C68.5961 85.4949 67.5574 83.1058 67.3496 80.1083C67.3496 80.1083 70.3125 80.227 74.5813 80.227C81.0315 80.227 90.4643 79.9648 97.1371 78.6342C108.217 76.4182 114.613 71.2492 119.54 83.3136C124.461 95.373 122.245 108.174 108.212 122.202Z" fill="#433373"/>
<path d="M70.174 87.3995C68.5961 85.4951 67.5574 83.1059 67.3496 80.1084C67.3496 80.1084 70.3125 80.2271 74.5813 80.2271C74.6456 82.2601 74.0867 85.6138 70.174 87.3995Z" fill="white"/>
<path d="M100.248 85.025C100.248 85.025 102.034 83.3086 103.508 83.3086C104.987 83.3086 105.907 84.5551 105.907 84.5551C105.907 84.5551 103.325 86.9789 100.248 85.025Z" fill="white"/>
<path d="M154.002 64.3545C154.002 64.3545 147.849 81.0933 119.783 87.2466L117.31 81.583L123.473 75.7956L154.002 64.3545Z" fill="#433373"/>
<path d="M93.8134 194.658C93.2248 195.667 92.6065 196.651 91.9684 197.616C91.9684 197.616 89.1736 198.071 86.1513 198.145C85.9832 198.15 85.815 198.15 85.6419 198.155C84.0244 198.17 82.3822 198.061 81.1109 197.705C80.9477 197.665 80.7894 197.616 80.641 197.556C80.0969 197.363 79.6418 197.111 79.3203 196.794C79.3203 196.794 80.2799 192.743 81.7045 189.874C82.4019 188.46 83.2181 187.327 84.0837 187.114C86.7103 186.461 89.6633 187.446 89.6633 187.446C89.6633 187.446 89.7375 187.342 89.876 187.129C92.3542 188.633 94.2388 191.091 93.8134 194.658Z" fill="#433373"/>
<path d="M116.092 77.4018C116.092 77.4018 133.815 63.1264 154.001 64.3531C154.001 64.3531 147.848 69.2748 133.815 73.2171C119.782 77.1545 117.813 83.3079 117.813 83.3079L116.092 77.4018Z" fill="#433373"/>
<path d="M109.928 197.581C107.296 198.14 103.725 198.111 100.802 197.938C100.633 197.928 100.47 197.918 100.307 197.908C99.0703 197.824 97.9771 197.72 97.156 197.631C96.9631 197.616 96.7851 197.596 96.6268 197.576C95.9689 197.502 95.5781 197.448 95.5781 197.448C95.5781 195.316 99.6837 188.752 101.939 188.752C103.483 188.752 104.546 189.444 106.381 190.196C107.712 191.769 109.117 194.134 109.928 197.581Z" fill="#433373"/>
</g>
<defs>
<filter id="filter0_bd" x="-37.6316" y="-37.6316" width="308.263" height="308.263" filterUnits="userSpaceOnUse" color-interpolation-filters="sRGB">
<feFlood flood-opacity="0" result="BackgroundImageFix"/>
<feGaussianBlur in="BackgroundImage" stdDeviation="28.8158"/>
<feComposite in2="SourceAlpha" operator="in" result="effect1_backgroundBlur"/>
<feColorMatrix in="SourceAlpha" type="matrix" values="0 0 0 0 0 0 0 0 0 0 0 0 0 0 0 0 0 0 127 0"/>
<feOffset/>
<feGaussianBlur stdDeviation="10"/>
<feColorMatrix type="matrix" values="0 0 0 0 0.431373 0 0 0 0 0.223529 0 0 0 0 0.898039 0 0 0 1 0"/>
<feBlend mode="normal" in2="effect1_backgroundBlur" result="effect2_dropShadow"/>
<feBlend mode="normal" in="SourceGraphic" in2="effect2_dropShadow" result="shape"/>
</filter>
<filter id="filter1_bd" x="0" y="0" width="233" height="237" filterUnits="userSpaceOnUse" color-interpolation-filters="sRGB">
<feFlood flood-opacity="0" result="BackgroundImageFix"/>
<feGaussianBlur in="BackgroundImage" stdDeviation="10"/>
<feComposite in2="SourceAlpha" operator="in" result="effect1_backgroundBlur"/>
<feColorMatrix in="SourceAlpha" type="matrix" values="0 0 0 0 0 0 0 0 0 0 0 0 0 0 0 0 0 0 127 0"/>
<feOffset dy="4"/>
<feGaussianBlur stdDeviation="10"/>
<feColorMatrix type="matrix" values="0 0 0 0 1 0 0 0 0 1 0 0 0 0 1 0 0 0 0.15 0"/>
<feBlend mode="normal" in2="effect1_backgroundBlur" result="effect2_dropShadow"/>
<feBlend mode="normal" in="SourceGraphic" in2="effect2_dropShadow" result="shape"/>
</filter>
<linearGradient id="paint0_linear" x1="135.029" y1="10.4595" x2="135.029" y2="213" gradientUnits="userSpaceOnUse">
<stop stop-color="white" stop-opacity="0.4"/>
<stop offset="1" stop-color="white" stop-opacity="0.25"/>
</linearGradient>
</defs>
</svg>
