<svg width="233" height="237" viewBox="0 0 233 237" fill="none" xmlns="http://www.w3.org/2000/svg">
<g filter="url(#filter0_bd)">
<circle cx="116.5" cy="116.5" r="96" stroke="white"/>
</g>
<g filter="url(#filter1_bd)">
<circle cx="116.5" cy="116.5" r="96.5" fill="url(#paint0_linear)"/>
</g>
<rect x="36" y="36" width="161" height="161" rx="80.5" fill="#5ECFC4"/>
<mask id="mask0" mask-type="alpha" maskUnits="userSpaceOnUse" x="36" y="36" width="161" height="161">
<rect x="36" y="36" width="161" height="161" rx="80.5" fill="#5ECFC4"/>
</mask>
<g mask="url(#mask0)">
<path d="M184.469 96.3153C183.346 98.8472 182.424 100.685 180.568 102.728C181.777 88.8978 177.569 74.6975 168.963 63.882C169.355 65.6669 169.414 67.0751 169.218 68.8931C167.722 65.5347 165.226 62.6391 162.141 60.6823C159.39 58.9436 156.254 57.9586 153.15 57C156.92 60.8608 158.619 66.3545 159.423 71.7226C160.037 75.8081 160.612 80.5416 158.142 83.8338C157.332 81.9299 155.927 79.616 154.241 78.4459C155.744 82.8223 154.012 87.6219 152 91.7868C150.556 94.7749 148.916 97.7234 146.576 100.064C144.289 102.351 141.238 104.01 138.029 104.05C137.186 102.807 136.396 101.518 135.664 100.216C134.742 98.5696 134.109 96.9235 134.396 95.0592L135.638 88.8713C135.657 84.6337 133.187 79.7747 129.463 77.8245C125.699 75.861 121.144 76.1254 117.243 74.4529C114.107 73.1109 111.532 70.4929 110.212 67.3197C109.474 71.3457 110.199 75.6296 112.218 79.1731C109.448 78.0162 106.906 76.2907 104.795 74.1289C106.082 81.2225 111.754 87.0137 112.689 94.1601C112.957 96.183 112.702 98.5233 111.114 99.786C110.212 100.5 109.029 100.738 107.892 100.778C106.442 100.831 104.978 100.599 103.612 100.097C102.077 99.5348 100.489 98.3118 100.567 96.6656L100.312 96.4342C100.495 98.5431 100.685 100.645 100.868 102.754C100.881 102.933 100.894 103.125 100.789 103.263C100.665 103.429 100.437 103.455 100.234 103.442C98.4371 103.369 97.1106 101.749 96.2088 100.176C94.3857 96.9962 93.301 93.3866 93.0527 89.7175C92.1248 91.5686 90.635 94.9997 90.3801 97.0623C86.4791 90.8678 83.9502 83.5826 78.5201 78.7037C73.1488 73.8777 65.7518 72.1589 58.6293 71.2003C42.4304 69.0121 25.1338 67.7097 10 61.469C14.3911 67.4717 20.2329 72.3837 26.8785 75.6561C24.5979 75.8544 21.8404 76.1585 19.5599 76.3568C22.3109 80.211 26.0616 83.728 30.2894 85.784C34.5237 87.8466 39.5553 89.8233 44.064 91.1521C41.398 91.7471 37.5623 92.3553 34.9681 91.4959C38.2876 93.38 42.9466 95.4029 46.3838 97.0557C49.8143 98.715 53.1404 100.996 54.9504 104.381C52.3366 104.467 49.5007 104.043 46.9 103.244C52.7679 108.44 57.7994 111.487 59.9688 117.569C57.6491 117.47 56.9761 118.35 53.3625 116.637C55.1987 119.487 57.7014 121.814 59.8643 124.412C62.0272 127.01 63.9156 130.064 64.1182 133.462L64.1051 133.416C61.988 133.522 59.8382 132.609 58.4333 131.003L58.1261 130.52C59.5702 134.487 63.2883 137.058 66.7973 139.359C69.3 140.999 72.136 142.889 74.6321 144.529C72.711 144.826 70.7572 144.919 68.8165 144.82C68.2153 144.787 67.5031 144.674 67.2286 144.126C69.5875 148.793 75.5796 149.52 80.0688 149.983C84.5579 150.446 89.0928 149.857 93.5297 149.018C91.3342 150.313 87.9166 151.517 85.4597 152.164C89.3085 152.786 93.5363 152.938 97.2478 151.735C96.4898 154.577 94.2289 156.957 91.9811 158.828C91.1969 159.483 90.3605 160.157 89.3542 160.296C91.6282 160.772 94.3335 161.122 96.2938 159.853C97.1041 167.389 94.34 176.255 87.9166 180.162C86.5183 181.008 85.0088 181.636 83.4994 182.264C81.8919 182.932 79.9446 183.791 78.3306 184.459V184.591C79.9642 185.272 81.8396 185.213 83.5124 184.644H83.6562C77.3766 188.492 70.5089 193.119 64.9154 197.925C59.3154 202.732 54.395 208.51 51.5982 215.378L51.6244 215.425C53.5912 212.945 55.826 210.751 58.5051 209.085H58.5705C54.5453 213.071 51.4022 219.821 50.128 225.374C48.8538 230.927 48.71 236.679 48.8276 242.377C48.9845 250.277 49.6967 258.449 53.4409 265.383L53.4802 264.974C51.9511 254.436 54.9569 243.415 61.2235 234.854L61.3149 235.033C61.5436 237.022 60.7595 239.581 60.3217 241.538L60.5243 241.419C67.6337 237.829 73.1423 231.132 75.5731 223.477L75.6384 223.675C76.1285 225.962 75.266 230.081 74.4622 232.282L74.6321 232.289C86.4268 225.467 95.1895 213.659 98.9337 200.444L99.0644 200.953C99.3977 203.789 101.012 207.306 103.514 208.615L103.358 208.291C102.867 203.009 103.795 197.595 106.024 192.789C107.611 189.364 109.977 186.548 113.316 184.836C124.039 180.03 133.717 172.116 140.486 162.451V162.458C143.087 162.134 148.347 160.805 150.686 159.608C152.81 158.524 154.744 157.109 156.672 155.695C159.475 153.645 162.285 151.589 164.886 149.275C169.597 145.078 173.89 139.392 176.89 133.812C175.864 134.864 174.191 135.597 172.734 135.551C183.417 126.045 188.161 110.218 184.469 96.3153Z" fill="white"/>
<path d="M131.051 87.6216C130.299 86.5374 129.071 85.8036 127.764 85.678C126.464 85.5458 125.111 86.0218 124.164 86.9407C124.333 87.5754 124.961 87.972 125.575 88.1902C127.209 88.7786 129.104 88.5604 130.561 87.615L131.051 87.6216Z" fill="#433373"/>
<path d="M136.671 88.2702C135.75 87.933 134.678 87.6818 133.822 88.171C132.443 88.9577 132.463 91.1525 131.149 92.0582C130.744 92.3359 130.254 92.4615 129.862 92.759C129.47 93.0565 129.248 93.6316 129.522 94.0415C130.934 96.1438 134.318 94.9737 134.318 94.9737C140.827 94.8414 145.538 98.5502 145.538 98.5502C144.591 94.0547 140.951 89.837 136.671 88.2702Z" fill="#5ECFC4"/>
</g>
<defs>
<filter id="filter0_bd" x="-37.6316" y="-37.6316" width="308.263" height="308.263" filterUnits="userSpaceOnUse" color-interpolation-filters="sRGB">
<feFlood flood-opacity="0" result="BackgroundImageFix"/>
<feGaussianBlur in="BackgroundImage" stdDeviation="28.8158"/>
<feComposite in2="SourceAlpha" operator="in" result="effect1_backgroundBlur"/>
<feColorMatrix in="SourceAlpha" type="matrix" values="0 0 0 0 0 0 0 0 0 0 0 0 0 0 0 0 0 0 127 0"/>
<feOffset/>
<feGaussianBlur stdDeviation="10"/>
<feColorMatrix type="matrix" values="0 0 0 0 0.431373 0 0 0 0 0.223529 0 0 0 0 0.898039 0 0 0 1 0"/>
<feBlend mode="normal" in2="effect1_backgroundBlur" result="effect2_dropShadow"/>
<feBlend mode="normal" in="SourceGraphic" in2="effect2_dropShadow" result="shape"/>
</filter>
<filter id="filter1_bd" x="0" y="0" width="233" height="237" filterUnits="userSpaceOnUse" color-interpolation-filters="sRGB">
<feFlood flood-opacity="0" result="BackgroundImageFix"/>
<feGaussianBlur in="BackgroundImage" stdDeviation="10"/>
<feComposite in2="SourceAlpha" operator="in" result="effect1_backgroundBlur"/>
<feColorMatrix in="SourceAlpha" type="matrix" values="0 0 0 0 0 0 0 0 0 0 0 0 0 0 0 0 0 0 127 0"/>
<feOffset dy="4"/>
<feGaussianBlur stdDeviation="10"/>
<feColorMatrix type="matrix" values="0 0 0 0 1 0 0 0 0 1 0 0 0 0 1 0 0 0 0.15 0"/>
<feBlend mode="normal" in2="effect1_backgroundBlur" result="effect2_dropShadow"/>
<feBlend mode="normal" in="SourceGraphic" in2="effect2_dropShadow" result="shape"/>
</filter>
<linearGradient id="paint0_linear" x1="135.029" y1="10.4595" x2="135.029" y2="213" gradientUnits="userSpaceOnUse">
<stop stop-color="white" stop-opacity="0.4"/>
<stop offset="1" stop-color="white" stop-opacity="0.25"/>
</linearGradient>
</defs>
</svg>
