<svg width="518" height="456" viewBox="0 0 518 456" fill="none" xmlns="http://www.w3.org/2000/svg">
<path opacity="0.1" d="M492.051 286.203C498.711 286.203 504.11 285.463 504.11 284.55C504.11 283.638 498.711 282.897 492.051 282.897C485.391 282.897 479.992 283.638 479.992 284.55C479.992 285.463 485.391 286.203 492.051 286.203Z" fill="#5ECFC4"/>
<path opacity="0.1" d="M445.857 290.887C452.517 290.887 457.916 290.147 457.916 289.234C457.916 288.321 452.517 287.581 445.857 287.581C439.197 287.581 433.798 288.321 433.798 289.234C433.798 290.147 439.197 290.887 445.857 290.887Z" fill="#5ECFC4"/>
<path opacity="0.1" d="M391.442 284.55C398.102 284.55 403.501 283.81 403.501 282.897C403.501 281.984 398.102 281.244 391.442 281.244C384.782 281.244 379.383 281.984 379.383 282.897C379.383 283.81 384.782 284.55 391.442 284.55Z" fill="#5ECFC4"/>
<path opacity="0.1" d="M464.343 303.74C469.078 303.74 472.916 303.212 472.916 302.561C472.916 301.91 469.078 301.383 464.343 301.383C459.608 301.383 455.77 301.91 455.77 302.561C455.77 303.212 459.608 303.74 464.343 303.74Z" fill="#5ECFC4"/>
<path opacity="0.1" d="M416.399 302.561C421.134 302.561 424.973 302.033 424.973 301.383C424.973 300.732 421.134 300.204 416.399 300.204C411.665 300.204 407.826 300.732 407.826 301.383C407.826 302.033 411.665 302.561 416.399 302.561Z" fill="#5ECFC4"/>
<path d="M445.595 288.858C445.595 288.858 462.512 233.448 442.95 211.255C428.339 194.653 411.704 196.655 404.268 198.694C402.344 199.206 400.553 200.13 399.021 201.402C397.49 202.674 396.253 204.264 395.398 206.062C392.789 211.667 393.269 220.767 411.626 231.389C442.365 249.175 444.28 273.574 444.28 273.574L445.595 288.858Z" fill="#5ECFC4"/>
<path d="M406.913 206.552C406.913 206.552 456.777 222.133 445.594 288.857" stroke="#A1E9E2" stroke-miterlimit="10"/>
<path d="M436.029 212.137C436.029 212.137 429.162 216.762 431.332 223.708" stroke="#A1E9E2" stroke-miterlimit="10"/>
<path d="M411.916 216.25C411.916 216.25 416.09 211.985 421.22 214.336" stroke="#A1E9E2" stroke-miterlimit="10"/>
<path d="M431.626 237.708C431.626 237.708 438.994 233.975 440.898 238.652" stroke="#A1E9E2" stroke-miterlimit="10"/>
<path d="M449.863 245.5C449.863 245.5 444.327 245.062 444.228 247.705" stroke="#A1E9E2" stroke-miterlimit="10"/>
<path d="M446.28 289.302C446.28 289.302 426.451 249.03 421.03 249.912C418.421 250.329 417.252 252.874 416.714 255.423C416.046 258.724 416.424 262.15 417.794 265.227C420.607 271.672 428.157 283.91 446.28 289.302Z" fill="#5ECFC4"/>
<path d="M421.175 257.555C421.175 257.555 441.969 287.684 445.987 289.009" stroke="#A1E9E2" stroke-miterlimit="10"/>
<path d="M419.265 262.259H424.117" stroke="#A1E9E2" stroke-miterlimit="10"/>
<path d="M425.076 273.281L432.684 273.605" stroke="#A1E9E2" stroke-miterlimit="10"/>
<path d="M429.704 264.464L428.88 268.422" stroke="#A1E9E2" stroke-miterlimit="10"/>
<path d="M437.793 276.515L437.646 280.113" stroke="#A1E9E2" stroke-miterlimit="10"/>
<path d="M445.692 289.302C445.692 289.302 465.521 249.03 470.942 249.912C473.551 250.329 474.72 252.874 475.258 255.423C475.926 258.724 475.548 262.15 474.178 265.227C471.365 271.672 463.815 283.91 445.692 289.302Z" fill="#5ECFC4"/>
<path d="M470.797 257.555C470.797 257.555 450.003 287.684 445.985 289.009" stroke="#A1E9E2" stroke-miterlimit="10"/>
<path d="M472.707 262.259H467.854" stroke="#A1E9E2" stroke-miterlimit="10"/>
<path d="M466.895 273.281L459.287 273.605" stroke="#A1E9E2" stroke-miterlimit="10"/>
<path d="M462.267 264.464L463.091 268.422" stroke="#A1E9E2" stroke-miterlimit="10"/>
<path d="M454.173 276.515L454.324 280.113" stroke="#A1E9E2" stroke-miterlimit="10"/>
<path d="M411.677 298.709C411.139 298.268 410.746 297.676 410.55 297.009C410.462 296.673 410.493 296.317 410.637 296.001C410.78 295.685 411.027 295.428 411.337 295.272C412.063 294.996 412.835 295.496 413.425 296.007C414.014 296.518 414.682 297.087 415.449 296.983C415.055 296.625 414.761 296.171 414.594 295.666C414.428 295.16 414.395 294.621 414.5 294.099C414.532 293.883 414.622 293.679 414.761 293.51C415.162 293.082 415.893 293.27 416.373 293.604C417.902 294.683 418.33 296.758 418.34 298.625C418.415 297.932 418.415 297.233 418.34 296.539C418.31 296.194 418.366 295.847 418.501 295.528C418.637 295.208 418.848 294.927 419.118 294.709C419.48 294.511 419.889 294.413 420.302 294.427C420.644 294.379 420.991 294.403 421.323 294.497C421.655 294.591 421.963 294.754 422.228 294.975C422.807 295.601 422.655 296.649 422.149 297.337C421.58 297.967 420.908 298.496 420.161 298.902C419.59 299.239 419.102 299.703 418.737 300.257C418.696 300.334 418.661 300.415 418.632 300.497H414.322C413.364 300.023 412.474 299.421 411.677 298.709Z" fill="#5ECFC4"/>
<path d="M487.167 282.485C486.626 282.046 486.233 281.453 486.039 280.785C485.953 280.45 485.984 280.095 486.127 279.78C486.27 279.465 486.518 279.209 486.827 279.054C487.553 278.778 488.325 279.278 488.915 279.784C489.504 280.29 490.177 280.869 490.944 280.759C490.549 280.402 490.253 279.949 490.085 279.444C489.918 278.938 489.885 278.398 489.989 277.876C490.021 277.66 490.113 277.457 490.256 277.292C490.657 276.864 491.383 277.046 491.863 277.385C493.392 278.46 493.82 280.514 493.83 282.407C493.907 281.714 493.907 281.014 493.83 280.321C493.8 279.976 493.855 279.628 493.991 279.309C494.126 278.99 494.338 278.709 494.607 278.491C494.972 278.298 495.38 278.202 495.792 278.214C496.132 278.161 496.479 278.18 496.81 278.27C497.142 278.36 497.451 278.518 497.717 278.736C498.302 279.356 498.15 280.405 497.639 281.093C497.074 281.735 496.401 282.275 495.651 282.689C495.079 283.026 494.592 283.49 494.227 284.044C494.184 284.121 494.149 284.201 494.122 284.284H489.812C488.854 283.805 487.964 283.2 487.167 282.485Z" fill="#5ECFC4"/>
<path d="M459.692 299.834C459.154 299.393 458.762 298.801 458.565 298.134C458.478 297.798 458.509 297.442 458.652 297.126C458.796 296.81 459.043 296.553 459.353 296.397C460.078 296.121 460.851 296.621 461.44 297.132C462.03 297.643 462.698 298.212 463.465 298.108C463.07 297.75 462.775 297.297 462.608 296.791C462.441 296.286 462.407 295.746 462.51 295.224C462.546 295.008 462.638 294.805 462.776 294.635C463.178 294.207 463.908 294.395 464.388 294.729C465.917 295.808 466.345 297.883 466.356 299.75C466.439 299.058 466.448 298.359 466.382 297.664C466.352 297.319 466.407 296.972 466.543 296.653C466.678 296.333 466.89 296.052 467.159 295.834C467.522 295.636 467.931 295.538 468.344 295.552C468.685 295.504 469.033 295.528 469.365 295.622C469.696 295.716 470.004 295.879 470.269 296.1C470.848 296.726 470.697 297.774 470.191 298.462C469.622 299.092 468.949 299.621 468.203 300.027C467.631 300.364 467.144 300.828 466.778 301.382C466.737 301.459 466.702 301.54 466.674 301.622H462.364C461.396 301.15 460.498 300.548 459.692 299.834Z" fill="#5ECFC4"/>
<path d="M390.658 265.919C390.658 265.919 389.041 268.031 391.404 271.217C393.768 274.403 395.709 277.099 394.927 279.086C394.927 279.086 391.363 273.167 388.461 273.084C385.56 273 387.465 269.48 390.658 265.919Z" fill="#5ECFC4"/>
<path opacity="0.1" d="M390.658 265.919C390.515 266.122 390.403 266.345 390.324 266.581C387.496 269.903 385.988 273.005 388.707 273.084C391.243 273.157 394.285 277.683 395.01 278.82C395.01 278.908 394.958 278.997 394.927 279.08C394.927 279.08 391.363 273.162 388.461 273.078C385.56 272.995 387.465 269.48 390.658 265.919Z" fill="black"/>
<path d="M387.654 268.61C387.654 269.356 387.738 269.955 387.842 269.955C387.947 269.955 388.025 269.356 388.025 268.61C388.025 267.864 387.92 268.219 387.821 268.219C387.722 268.219 387.654 267.87 387.654 268.61Z" fill="#FFD037"/>
<path d="M386.619 269.496C387.271 269.855 387.845 270.069 387.892 269.98C387.939 269.892 387.453 269.527 386.801 269.172C386.149 268.818 386.405 269.073 386.352 269.172C386.3 269.271 385.966 269.141 386.619 269.496Z" fill="#FFD037"/>
<path d="M399.19 265.919C399.19 265.919 400.808 268.031 398.444 271.217C396.08 274.403 394.139 277.099 394.927 279.086C394.927 279.086 398.486 273.167 401.387 273.084C404.288 273 402.384 269.48 399.19 265.919Z" fill="#5ECFC4"/>
<path opacity="0.1" d="M399.19 265.919C399.333 266.122 399.445 266.345 399.524 266.581C402.352 269.903 403.86 273.005 401.141 273.084C398.605 273.157 395.563 277.683 394.838 278.82C394.862 278.908 394.892 278.995 394.927 279.08C394.927 279.08 398.485 273.162 401.387 273.078C404.288 272.995 402.383 269.48 399.19 265.919Z" fill="black"/>
<path d="M402.196 268.61C402.196 269.356 402.112 269.955 402.008 269.955C401.903 269.955 401.825 269.356 401.825 268.61C401.825 267.864 401.93 268.219 402.029 268.219C402.128 268.219 402.196 267.87 402.196 268.61Z" fill="#FFD037"/>
<path d="M403.229 269.496C402.576 269.855 402.002 270.069 401.955 269.98C401.908 269.892 402.394 269.527 403.046 269.172C403.698 268.818 403.442 269.073 403.495 269.172C403.547 269.271 403.881 269.141 403.229 269.496Z" fill="#FFD037"/>
<path d="M401.68 278.809C401.68 278.809 397.167 278.673 395.805 277.703C394.443 276.733 388.854 275.576 388.5 277.13C388.145 278.684 381.716 284.858 386.809 284.899C391.902 284.941 398.664 284.107 400.021 283.278C401.378 282.448 401.68 278.809 401.68 278.809Z" fill="#A8A8A8"/>
<path opacity="0.2" d="M386.734 284.357C391.832 284.399 398.584 283.565 399.946 282.735C400.99 282.11 401.392 279.847 401.512 278.804H401.658C401.658 278.804 401.376 282.454 400.014 283.273C398.652 284.091 391.905 284.936 386.802 284.894C385.331 284.894 384.824 284.373 384.851 283.585C385.075 284.06 385.639 284.352 386.734 284.357Z" fill="black"/>
<path opacity="0.1" d="M103.068 70.9642C109.301 70.9642 114.354 65.9144 114.354 59.6852C114.354 53.456 109.301 48.4062 103.068 48.4062C96.8344 48.4062 91.7812 53.456 91.7812 59.6852C91.7812 65.9144 96.8344 70.9642 103.068 70.9642Z" fill="white"/>
<path opacity="0.1" d="M477.334 97.72C483.568 97.72 488.621 92.6703 488.621 86.4411C488.621 80.2119 483.568 75.1621 477.334 75.1621C471.101 75.1621 466.048 80.2119 466.048 86.4411C466.048 92.6703 471.101 97.72 477.334 97.72Z" fill="white"/>
<path d="M270.656 209.508C269.988 209.571 269.31 209.54 268.647 209.644C267.535 209.865 266.473 210.291 265.516 210.901C260.768 213.602 256.286 217.315 254.318 222.404C254.157 222.717 254.105 223.075 254.172 223.421C254.289 223.706 254.48 223.954 254.725 224.14L256.573 225.819C256.806 226.062 257.084 226.256 257.392 226.393C257.89 226.523 258.416 226.507 258.905 226.346C263.982 225.183 269.378 223.843 272.942 220.047C274.632 218.248 276.192 215.771 278.681 215.703C279.725 215.703 280.701 216.105 281.729 216.225C282.757 216.345 283.993 215.907 284.239 214.905C284.318 214.407 284.26 213.897 284.072 213.43L282.538 208.325C282.12 206.927 277.909 206.854 276.505 207.105C274.366 207.475 272.926 209.3 270.656 209.508Z" fill="#65617D"/>
<path d="M288.729 238.267C288.656 240.014 288.797 241.781 288.51 243.513C288.257 244.878 287.82 246.202 287.211 247.449C286.272 249.455 285.08 251.332 283.662 253.034C282.342 254.599 280.761 256.069 278.804 256.684C276.848 257.3 274.442 256.856 273.221 255.209C272.224 253.869 272.177 252.08 272.251 250.406C272.428 246.292 273.075 242.12 274.922 238.439C275.715 236.874 276.722 235.383 277.531 233.803C279.222 230.523 280.187 226.633 283.104 224.37C284.934 225.215 286.891 225.752 288.896 225.961C289.674 226.044 291.896 226.096 292.157 227.092C292.335 227.765 290.874 229.647 290.592 230.309C289.478 232.822 288.846 235.521 288.729 238.267Z" fill="#65617D"/>
<path d="M268.047 163.063C268.673 164.658 269.466 166.223 269.612 167.923C269.717 168.965 269.612 170.008 269.612 171.051C269.7 172.48 269.938 173.896 270.322 175.275L273.228 187.164C273.661 188.942 274.094 190.767 273.87 192.582C273.719 193.792 273.28 194.965 273.286 196.18C273.341 197.101 273.488 198.015 273.724 198.907C274.274 201.664 274.124 204.515 273.286 207.198C273.2 207.4 273.169 207.622 273.197 207.84C273.27 208.178 273.599 208.387 273.896 208.549C277.025 210.26 280.436 211.395 283.967 211.902C287.154 204.326 289.38 196.382 290.594 188.254C291.335 183.331 291.695 178.346 292.645 173.46C292.666 173.178 292.786 172.912 292.984 172.709C293.339 172.412 293.876 172.6 294.293 172.798C299.626 175.361 304.756 178.324 309.64 181.663C311.357 179.44 312.564 176.868 313.177 174.128C313.789 171.388 313.791 168.547 313.183 165.805C312.569 163.442 311.694 161.154 310.574 158.985C309.38 156.346 307.892 153.85 306.138 151.544C302.267 146.694 296.589 143.597 290.745 141.495C287.192 140.213 283.534 139.264 279.881 138.294C277.836 137.746 274.408 135.963 272.419 137.35C270.332 138.794 268.944 142.377 268.089 144.65C267.032 147.47 266.457 150.447 266.387 153.457C266.302 156.737 266.865 160.002 268.047 163.063Z" fill="#3F3D56"/>
<path d="M309.992 177.398C308.902 178.587 309.82 180.485 309.611 182.091C309.475 182.816 309.215 183.513 308.844 184.151L303.851 193.949C303.016 195.419 302.391 196.999 301.993 198.642C301.309 202.177 302.713 206.151 300.918 209.274C300.339 210.281 299.441 211.146 299.201 212.283C299.024 213.112 299.201 213.978 299.113 214.817C298.993 215.803 298.466 216.689 298.173 217.638C297.946 218.55 297.783 219.477 297.688 220.413C297.055 224.4 294.966 228.012 291.823 230.55C290.023 232.075 287.71 232.861 285.353 232.75C283.026 232.552 280.714 230.972 280.239 228.688C280.077 227.911 280.109 227.045 279.623 226.414C278.935 225.512 277.484 225.476 276.821 224.553L279.389 220.329C280.187 219.02 281.001 217.654 281.131 216.126C281.288 214.254 280.385 212.387 280.709 210.536C280.985 208.946 282.128 207.621 282.472 206.047C282.9 204.091 282.045 202.115 281.58 200.165C280.443 195.362 281.716 190.356 282.984 185.564C284.669 179.223 286.396 172.783 289.809 167.178C296.618 170.844 302.88 174.363 309.992 177.398Z" fill="#3F3D56"/>
<path d="M310.057 78.0718C310.464 79.1773 310.244 80.4027 310.166 81.576C309.984 84.1832 310.537 86.7905 310.411 89.4342C310.286 92.078 309.472 94.6018 308.909 97.1726C307.307 104.509 307.693 112.154 306.242 119.522C304.452 128.647 299.876 137.147 298.974 146.408C298.687 149.349 298.723 152.498 297.111 154.981C287.529 150.766 278.472 145.449 270.123 139.139C271.96 125.524 273.776 111.841 273.53 98.106C273.412 96.4502 273.527 94.7859 273.875 93.1626C274.31 91.799 274.935 90.5035 275.732 89.3143C277.752 86.0344 279.975 82.8848 282.192 79.7405C283.612 77.7277 285.146 75.6158 287.41 74.672C289.675 73.7282 292.357 74.1505 294.825 74.599C297.796 75.1413 300.763 75.6836 303.727 76.2259C305.58 76.5649 309.263 75.9183 310.057 78.0718Z" fill="#5ECFC4"/>
<path d="M238.606 130.244C237.389 129.027 236.061 127.925 234.641 126.953C236.493 124.701 236.128 121.441 236.582 118.558C236.954 116.685 237.518 114.855 238.267 113.098C238.455 112.603 238.721 112.055 239.238 111.925C239.555 111.886 239.877 111.936 240.167 112.071C241.732 112.624 244.998 112.592 246.214 113.604C247.68 114.835 246.339 117.411 245.786 118.949C245.395 119.981 239.384 131.026 238.606 130.244Z" fill="#BE6F72"/>
<path d="M243.152 227.623C243.938 228.895 244.451 230.315 244.66 231.795C244.785 233.276 244.242 234.897 242.98 235.68C241.717 236.462 239.906 236.201 238.403 235.732C235.216 234.696 232.283 232.999 229.797 230.753C227.311 228.506 225.327 225.761 223.975 222.696C223.501 221.6 223.088 220.438 222.248 219.593C221.624 219.045 220.931 218.58 220.187 218.211C218.137 217.053 216.159 215.531 215.209 213.372C214.26 211.213 214.687 208.33 216.655 207.047C217.268 206.693 217.945 206.464 218.648 206.375C219.35 206.285 220.063 206.336 220.746 206.525C222.106 206.911 223.408 207.478 224.617 208.21C226.642 209.31 229.115 210.259 230.879 211.724C232.444 213.012 233.848 214.754 235.184 216.271C236.714 218.017 238.147 219.845 239.478 221.746C239.906 222.304 243.512 227.117 243.152 227.623Z" fill="#65617D"/>
<path d="M204.903 216.679C204.726 219.303 204.262 221.899 203.52 224.423C203.098 225.841 202.539 227.317 201.365 228.219C200.372 228.862 199.247 229.274 198.073 229.423C197.663 229.534 197.235 229.561 196.815 229.502C196.095 229.35 195.584 228.73 195.14 228.141C193.397 225.836 191.701 223.401 190.966 220.606C189.922 216.554 190.966 212.21 192.776 208.424C193.427 206.898 194.376 205.517 195.568 204.362C197.04 203.153 198.809 202.359 200.692 202.063C202.618 201.677 204.981 200.853 205.122 203.194C205.328 207.689 205.255 212.193 204.903 216.679Z" fill="#65617D"/>
<path d="M233.773 118.667C237.373 120.529 241.37 122.896 242.122 126.875C242.586 129.305 241.694 131.792 241.84 134.264C241.97 136.438 242.884 138.539 242.769 140.709C242.647 141.734 242.473 142.752 242.247 143.759C241.939 145.683 242.122 147.644 242.043 149.589C241.871 153.969 240.405 158.182 239.695 162.505C239.193 165.592 239.076 168.729 239.346 171.844C239.518 173.857 239.868 175.86 239.868 177.883C239.868 179.34 239.747 180.795 239.507 182.232C238.808 186.747 237.399 191.124 235.333 195.2C232.823 200.138 233.178 206.51 233.444 212.043C233.56 212.806 233.463 213.585 233.162 214.296C232.505 215.49 230.866 215.662 229.51 215.547C224.479 215.088 219.813 212.727 216.465 208.946C215.976 208.47 215.645 207.857 215.515 207.188C215.4 206.072 216.298 205.155 216.945 204.232C219.147 201.103 218.588 196.864 218.849 193.021C219.04 190.225 219.709 187.482 220.827 184.912C221.474 183.426 222.283 181.961 222.429 180.344C222.565 178.837 222.105 177.346 221.651 175.907L220.086 170.942C217.66 163.23 215.218 155.471 211.544 148.27C209.134 149.837 207.409 152.26 206.717 155.049C205.35 159.961 207.297 165.446 205.434 170.171C205.125 170.826 204.869 171.504 204.667 172.199C204.557 172.799 204.515 173.41 204.541 174.019C204.59 179.102 204.9 184.179 205.47 189.23C205.498 189.995 205.713 190.741 206.096 191.404C206.404 191.847 206.853 192.176 207.182 192.598C208.095 193.782 207.923 195.44 207.704 196.916L206.66 203.893C206.641 204.247 206.524 204.588 206.321 204.878C206.075 205.117 205.768 205.282 205.434 205.358C202.118 206.387 198.623 206.707 195.175 206.297C194.158 206.177 193.234 205.494 192.383 204.92C192.295 203.877 193.594 203.184 193.641 202.146C193.591 201.531 193.305 200.96 192.843 200.55C190.902 198.36 188.585 196.035 188.606 193.109C188.606 192.343 188.788 191.576 188.762 190.81C188.694 188.844 187.338 187.159 186.863 185.267C186.278 182.925 187.056 180.495 187.353 178.102C187.76 174.879 187.28 171.615 186.831 168.398L185.083 156.592C184.88 154.76 184.517 152.949 183.998 151.179C183.34 149.438 182.568 147.741 181.687 146.1C180.017 142.711 178.644 139.186 177.277 135.671C176.843 134.717 176.57 133.696 176.469 132.652C176.39 130.864 177.314 129.174 178.462 127.798C180.612 125.239 183.547 123.461 186.811 122.74C187.356 122.587 187.93 122.564 188.486 122.672C188.953 122.827 189.392 123.058 189.785 123.355C193.819 125.991 198.408 127.658 203.195 128.226C207.981 128.793 212.834 128.245 217.373 126.624C217.894 127.021 218.86 126.849 219.46 126.567C221.135 125.8 222.502 124.523 223.973 123.438C226.713 121.363 230.407 119.392 233.773 118.667Z" fill="#3F3D56"/>
<path d="M125.62 252.58C125.897 253.379 126.314 254.122 126.852 254.775C128.741 257.236 131.376 259.202 132.592 262.076C132.847 262.691 133.035 263.337 133.27 263.963C133.984 265.852 135.148 267.538 136.662 268.875C137.816 269.833 139.07 270.663 140.403 271.352C142.709 272.609 145.204 273.746 147.823 273.678C148.35 273.667 148.874 273.604 149.388 273.49C150.204 273.321 150.99 273.033 151.721 272.635C153.406 271.707 154.852 269.892 154.518 267.999C154.45 267.638 154.336 267.288 154.179 266.956C153.902 266.429 153.582 265.925 153.224 265.449C152.342 264.229 151.434 262.978 150.145 262.195C148.694 261.309 146.868 261.09 145.564 259.995C145.049 259.529 144.604 258.992 144.243 258.399C143.061 256.583 142.18 254.588 141.634 252.491C141.238 250.927 140.972 249.211 139.829 248.064C138.686 246.917 137.116 246.656 135.592 246.396C135.077 246.289 134.552 246.239 134.027 246.244C133.28 246.27 132.508 246.484 131.809 246.135C131.11 245.785 130.875 245.29 130.03 245.358C129.357 245.449 128.722 245.725 128.198 246.156C126.215 247.621 124.9 250.228 125.62 252.58Z" fill="#3F3D56"/>
<path d="M144.16 254.953C144.499 256.721 145.021 258.603 146.388 259.756C147.259 260.507 148.475 260.976 148.908 262.035C149.341 263.093 148.783 264.423 148.063 265.393C147.143 266.619 146.004 267.664 144.702 268.474C143.596 269.158 142.276 269.679 141.008 269.377C139.964 269.132 139.14 268.381 138.362 267.656C136.578 266.003 134.751 264.287 133.75 262.071C132.706 259.735 132.654 257.029 131.516 254.729C130.854 253.389 129.831 252.216 129.429 250.776C129.249 250.256 129.249 249.691 129.429 249.17C129.624 248.798 129.918 248.487 130.279 248.273C130.64 248.058 131.054 247.948 131.474 247.955C132.315 247.983 133.143 248.16 133.922 248.477C136.277 249.316 138.689 249.99 141.138 250.495C142.114 250.677 142.704 250.672 143.225 251.616C143.708 252.673 144.023 253.799 144.16 254.953Z" fill="#FBBEBE"/>
<path d="M150.212 269.898C149.825 270.489 149.551 271.147 149.403 271.838C149.28 272.375 149.261 272.931 149.346 273.475C150.161 273.306 150.947 273.018 151.678 272.62C153.364 271.692 154.809 269.877 154.475 267.984C154.408 267.624 154.294 267.273 154.136 266.941C153.887 266.886 153.628 266.896 153.384 266.972C153.141 267.048 152.921 267.187 152.748 267.374C151.777 268.078 150.921 268.93 150.212 269.898Z" fill="#FBBEBE"/>
<path d="M131.511 230.278C131.284 230.766 131.217 231.313 131.318 231.842C131.558 232.885 132.628 233.485 133.593 233.959L142.772 238.444C143.409 238.738 144.029 239.067 144.63 239.429C146.195 240.389 147.426 241.744 148.762 242.986C150.098 244.227 151.585 245.389 153.354 245.827C155.12 246.214 156.966 245.972 158.572 245.144C159.438 244.713 160.242 244.168 160.962 243.523C161.586 242.976 162.162 242.378 162.684 241.734C163.133 241.261 163.454 240.681 163.618 240.05C163.79 239.096 163.315 238.157 162.762 237.37C162.444 236.916 162.095 236.484 161.719 236.076C158.238 232.233 152.535 230.241 147.63 229.459C145.678 229.146 143.826 228.416 141.948 227.822C140.069 227.227 138.081 226.779 136.129 227.055C134.178 227.332 132.258 228.453 131.511 230.278Z" fill="#3F3D56"/>
<path opacity="0.1" d="M131.511 230.278C131.284 230.766 131.217 231.313 131.318 231.842C131.558 232.885 132.628 233.485 133.593 233.959L142.772 238.444C143.409 238.738 144.029 239.067 144.63 239.429C146.195 240.389 147.426 241.744 148.762 242.986C150.098 244.227 151.585 245.389 153.354 245.827C155.12 246.214 156.966 245.972 158.572 245.144C159.438 244.713 160.242 244.168 160.962 243.523C161.586 242.976 162.162 242.378 162.684 241.734C163.133 241.261 163.454 240.681 163.618 240.05C163.79 239.096 163.315 238.157 162.762 237.37C162.444 236.916 162.095 236.484 161.719 236.076C158.238 232.233 152.535 230.241 147.63 229.459C145.678 229.146 143.826 228.416 141.948 227.822C140.069 227.227 138.081 226.779 136.129 227.055C134.178 227.332 132.258 228.453 131.511 230.278Z" fill="black"/>
<path d="M154.482 233.141C155.187 233.933 155.768 234.828 156.204 235.795C156.595 236.429 156.735 237.186 156.595 237.918C156.39 238.41 156.061 238.841 155.64 239.169L154.727 240.014C154.451 240.3 154.13 240.54 153.777 240.723C153.278 240.91 152.744 240.99 152.212 240.958C150.986 240.958 149.665 240.958 148.669 240.222C147.307 239.242 147.062 237.214 147.683 235.654C148.303 234.095 149.603 232.917 150.912 231.864C151.977 231.003 153.735 232.354 154.482 233.141Z" fill="#FBBEBE"/>
<path d="M160.054 238.533C159.885 239.398 159.966 240.294 160.288 241.114C160.518 241.897 160.742 242.679 160.967 243.477C160.967 243.477 160.967 243.477 160.967 243.508C161.59 242.961 162.166 242.363 162.689 241.719C163.137 241.246 163.459 240.666 163.623 240.035C163.795 239.081 163.32 238.142 162.767 237.355C162.448 236.901 162.1 236.469 161.723 236.062C161.478 236.38 161.264 236.692 161.087 236.896C160.63 237.362 160.278 237.92 160.054 238.533Z" fill="#FBBEBE"/>
<path d="M136.076 199.669C134.996 204.206 135.455 208.951 136.029 213.581C136.468 217.106 136.958 220.757 135.915 224.151C135.529 225.418 134.918 226.706 135.153 228.015C135.596 230.482 138.571 231.431 141.034 231.895C141.744 232.075 142.482 232.12 143.209 232.025C143.939 231.827 144.616 231.471 145.192 230.982C148.693 228.439 151.352 224.907 152.826 220.84C153.76 218.118 154.058 215.224 154.345 212.361C154.825 207.543 155.31 202.668 154.606 197.881C154.397 196.473 154.084 195.08 153.953 193.662C153.789 191.195 153.926 188.717 154.36 186.284C155.259 180.254 156.62 174.302 158.43 168.481C153.462 169.141 148.411 168.229 143.987 165.874C144.843 166.333 143.862 173.649 143.757 174.676C143.441 177.739 142.888 180.772 142.103 183.749C140.647 189.313 137.397 194.142 136.076 199.669Z" fill="#3F3D56"/>
<path opacity="0.1" d="M136.076 199.669C134.996 204.206 135.455 208.951 136.029 213.581C136.468 217.106 136.958 220.757 135.915 224.151C135.529 225.418 134.918 226.706 135.153 228.015C135.596 230.482 138.571 231.431 141.034 231.895C141.744 232.075 142.482 232.12 143.209 232.025C143.939 231.827 144.616 231.471 145.192 230.982C148.693 228.439 151.352 224.907 152.826 220.84C153.76 218.118 154.058 215.224 154.345 212.361C154.825 207.543 155.31 202.668 154.606 197.881C154.397 196.473 154.084 195.08 153.953 193.662C153.789 191.195 153.926 188.717 154.36 186.284C155.259 180.254 156.62 174.302 158.43 168.481C153.462 169.141 148.411 168.229 143.987 165.874C144.843 166.333 143.862 173.649 143.757 174.676C143.441 177.739 142.888 180.772 142.103 183.749C140.647 189.313 137.397 194.142 136.076 199.669Z" fill="black"/>
<path d="M163.169 173.085C165.256 179.129 164.797 185.73 163.894 192.061C162.991 198.391 161.661 204.722 162.052 211.099C162.203 213.602 162.61 216.173 161.88 218.566C161.474 219.734 160.936 220.852 160.278 221.898L143.627 250.672C143.203 251.418 142.599 252.048 141.87 252.503C141.141 252.958 140.31 253.225 139.453 253.279C137.673 253.404 135.925 252.82 134.266 252.168C133.163 251.803 132.139 251.235 131.245 250.494C130.802 250.126 130.454 249.655 130.233 249.123C130.011 248.591 129.921 248.013 129.972 247.439C130.718 242.443 131.84 237.328 132.669 232.317C133.234 228.917 134.464 225.661 136.291 222.738C137.579 220.652 139.166 218.78 140.277 216.611C143.471 210.395 142.364 202.813 139.901 196.274C137.439 189.735 133.77 183.665 131.814 176.98C131.233 175.12 130.902 173.191 130.827 171.244C130.803 169.234 131.176 167.238 131.925 165.372C132.673 163.505 133.783 161.805 135.19 160.367C135.6 159.902 136.118 159.544 136.698 159.324C137.375 159.167 138.082 159.18 138.754 159.361C148.026 161.16 160.106 164.158 163.169 173.085Z" fill="#3F3D56"/>
<path d="M312.837 82.8598C313.14 85.1437 312.315 87.4538 311.141 89.4301C306.701 96.8346 296.463 100.109 288.547 96.6626C285.286 95.239 282.526 92.8925 279.823 90.5772C278.915 89.7951 277.97 88.9764 277.511 87.8709C276.702 85.9155 277.678 83.5846 279.269 82.1871C280.861 80.7896 282.922 80.1013 284.973 79.4808C291.741 77.3741 311.225 70.7308 312.837 82.8598Z" fill="#FBBEBE"/>
<path d="M308.877 75.611C315.039 80.5648 324.009 85.284 330.991 88.955C333.365 90.2064 336 91.6144 336.856 94.1695C337.315 95.5357 337.163 97.0218 337.012 98.461C336.72 101.23 336.417 104.041 335.348 106.611C334.09 109.62 331.867 112.102 330.083 114.835C326.952 119.621 325.115 125.264 321.248 129.492C323.858 138.154 326.712 146.805 327.641 155.794C327.692 156.042 327.665 156.299 327.562 156.53C327.456 156.681 327.317 156.808 327.155 156.9L320.664 161.155C319.956 161.568 319.323 162.097 318.791 162.719C317.643 164.211 317.794 166.307 317.084 168.043C316.695 168.891 316.139 169.651 315.449 170.278C314.758 170.906 313.948 171.387 313.067 171.693C311.293 172.304 309.403 172.504 307.541 172.277C305.17 172.128 302.887 171.325 300.945 169.957C299.291 168.706 298.112 166.948 296.974 165.217C296.131 164.036 295.431 162.76 294.887 161.416C294.193 159.497 294.151 157.406 294.177 155.362C294.195 151.472 294.567 147.592 295.289 143.77C295.591 142.252 295.967 140.756 296.207 139.228C296.687 136.151 296.593 133.012 296.948 129.92C297.433 126.442 298.21 123.011 299.27 119.663C299.85 117.59 300.303 115.482 300.627 113.354C301.237 109.61 302.453 105.996 303.669 102.403L305.756 96.2448C306.2 94.9151 306.648 93.5907 307.175 92.2922C308.156 89.8675 309.419 87.5053 309.753 84.9189C310.124 82.0979 307.076 78.7502 308.104 76.1012C308.188 75.8092 308.642 75.4233 308.877 75.611Z" fill="#3F3D56"/>
<path d="M335.186 92.7148C336.632 93.3667 337.43 94.9206 337.947 96.4224C339.111 99.8069 339.391 103.433 338.761 106.956C338.557 107.841 338.417 108.741 338.343 109.646C338.354 110.696 338.457 111.743 338.651 112.775C339.173 116.764 338.651 120.816 338.823 124.841C339.001 129.368 339.987 134.149 338.088 138.264C336.825 140.996 334.435 143.03 332.076 144.875C323.295 151.714 313.607 157.302 303.288 161.478C305.068 159.341 305.099 156.123 303.915 153.605C302.73 151.086 300.528 149.193 298.175 147.723C301.17 147.057 304.071 146.022 306.811 144.641C312.279 141.867 316.965 137.805 321.593 133.784C322.276 133.294 322.808 132.622 323.127 131.844C323.597 130.28 322.303 128.794 321.405 127.423C318.687 123.251 319.318 117.802 320.456 112.973C321.724 107.68 323.587 102.409 326.984 98.1536C329.102 95.4942 331.868 93.4501 335.186 92.7148Z" fill="#3F3D56"/>
<path d="M302.829 161.608C302.36 162.372 301.751 163.041 301.034 163.579C299.469 164.622 297.319 164.226 295.571 163.485C293.946 162.797 292.447 161.844 291.135 160.664C290.571 160.065 289.905 159.571 289.168 159.204C287.801 158.683 285.891 159.074 285.124 157.817C285.035 157.685 284.991 157.528 284.999 157.369C285.046 156.915 285.641 156.79 286.1 156.764C288.23 156.623 290.298 155.986 292.137 154.902C291.55 154.478 291.047 153.947 290.655 153.338C290.493 153.125 290.405 152.865 290.405 152.598C290.469 152.307 290.629 152.046 290.859 151.857C292.536 150.275 294.647 149.228 296.921 148.849C299.196 148.47 301.533 148.777 303.633 149.73C304.043 149.895 304.402 150.165 304.676 150.512C304.869 150.832 304.999 151.186 305.057 151.555C305.396 153.015 306.623 155.205 306.179 156.681C305.688 158.375 303.836 160.174 302.829 161.608Z" fill="#FBBEBE"/>
<path d="M267.248 155.033C273.739 147.539 276.64 137.679 279.333 128.141L281.258 121.363L285.902 105.036C286.586 102.627 287.269 100.218 287.723 97.7617C288.501 93.5223 288.574 89.1891 288.527 84.8819C288.461 83.0964 288.051 81.3402 287.322 79.7091C286.868 78.5828 286.648 77.3834 286.278 76.2206C285.807 74.5994 285.102 73.0554 284.186 71.6371C283.93 71.2154 283.612 70.8355 283.241 70.5107C282.599 70.0746 281.872 69.7796 281.107 69.6451C279.448 69.1522 277.729 68.8908 275.998 68.8682C274.266 68.9307 272.481 69.5304 271.365 70.8445C270.514 71.8509 270.123 73.1545 269.45 74.286C269.136 74.7493 268.852 75.2317 268.599 75.7305C268.312 76.4881 268.154 77.2881 268.13 78.0978C267.858 81.383 267.627 84.6716 267.436 87.9637C267.347 89.4602 267.269 90.9672 267.326 92.469C267.373 93.637 267.498 94.7999 267.624 95.9627L268.86 107.351C269.147 110.026 268.944 112.529 269.184 115.209C269.768 121.681 268.375 128.152 266.945 134.503C266.262 137.522 265.557 140.583 264.096 143.316C262.807 145.735 260.877 148.191 261.388 150.887C261.565 151.826 262.04 152.702 262.113 153.651C262.078 154.238 262.136 154.828 262.285 155.398C262.498 155.785 262.829 156.095 263.229 156.282C263.63 156.469 264.08 156.525 264.514 156.441C265.547 156.259 266.5 155.768 267.248 155.033Z" fill="#3F3D56"/>
<path d="M268.041 125.044C268.239 126.541 268.088 128.058 268.161 129.565C268.325 131.506 268.674 133.427 269.204 135.301C269.726 137.387 270.394 139.723 272.236 140.881C272.698 141.121 273.14 141.398 273.556 141.71C273.762 141.872 273.912 142.092 273.989 142.342C274.065 142.591 274.064 142.859 273.984 143.107L272.549 142.867C272.712 142.992 272.847 143.149 272.945 143.329C273.042 143.509 273.101 143.708 273.117 143.912C273.132 144.116 273.105 144.321 273.035 144.514C272.966 144.707 272.857 144.883 272.715 145.031C272.573 145.178 272.402 145.295 272.212 145.372C272.022 145.448 271.818 145.484 271.613 145.477C271.408 145.47 271.207 145.419 271.023 145.329C270.839 145.239 270.677 145.111 270.546 144.953C270.6 145.423 270.555 145.899 270.415 146.351C270.342 146.572 270.203 146.766 270.017 146.906C269.83 147.046 269.605 147.125 269.371 147.133C269.101 147.091 268.845 146.984 268.625 146.82L264.879 144.5C263.756 143.896 262.823 142.993 262.181 141.892L260.543 139.426C260.181 138.95 259.895 138.423 259.692 137.862C259.082 135.776 260.788 133.46 259.901 131.495C259.634 131.01 259.322 130.553 258.967 130.128C257.073 127.521 257.193 123.975 257.401 120.742C257.469 119.652 257.667 118.359 258.654 117.885C259.436 117.504 260.376 117.843 261.101 118.318C261.826 118.792 262.468 119.418 263.292 119.699C263.814 119.877 264.388 119.898 264.91 120.085C265.641 120.341 266.319 121.337 266.809 121.926C267.503 122.83 267.93 123.91 268.041 125.044Z" fill="#FBBEBE"/>
<path d="M222.316 78.182C221.872 79.1987 221.25 80.1277 220.479 80.9249C220.091 81.3232 219.616 81.625 219.09 81.8062C218.564 81.9873 218.003 82.0426 217.452 81.9678C216.294 81.7383 215.444 80.7841 214.676 79.8819C212.673 77.5302 210.643 75.1472 209.297 72.3626C207.241 68.1232 206.912 63.2842 206.615 58.5859C206.542 57.3762 206.479 56.0934 207.058 55.0348C207.794 53.6843 209.354 53.0481 210.794 52.511L218.752 49.5388C219.239 49.3079 219.779 49.209 220.317 49.252C221.564 49.4605 222.023 50.9623 222.363 52.1773C222.97 54.3606 223.978 56.4118 225.337 58.2261C227.121 60.6039 231.124 63.8056 228.838 66.7727C226.078 70.329 224.325 74.1669 222.316 78.182Z" fill="#BE6F72"/>
<path d="M232.495 64.6132C235.981 67.8879 237.16 72.9877 236.993 77.7589C236.826 82.5302 235.5 87.1815 234.744 91.8955C233.987 96.6094 233.836 101.641 235.887 105.975C236.591 107.461 237.551 108.837 238.042 110.407C238.453 111.958 238.592 113.569 238.454 115.168C238.445 116.853 238.123 118.522 237.504 120.09C236.393 122.551 234.107 124.262 231.921 125.826C227.459 129.049 222.909 132.323 217.67 134.008C214.122 135.15 210.365 135.525 206.65 135.729C204.135 135.929 201.605 135.857 199.105 135.515C194.731 134.786 190.713 132.66 187.651 129.455C187.118 128.939 186.678 128.334 186.352 127.667C186.033 126.799 185.879 125.88 185.898 124.955C185.773 121.531 185.794 118.107 185.961 114.683C186.056 111.42 186.506 108.176 187.302 105.01C188.298 101.36 190.025 97.9391 191.335 94.3828C195.896 82.0192 195.436 67.9505 201.771 56.4056C203.138 53.913 205.424 51.2901 208.241 51.6864C208.784 51.719 209.294 51.9535 209.671 52.3435C209.995 52.8181 210.176 53.3754 210.193 53.9495C210.866 59.5603 211.821 65.3171 214.467 70.3804C215.51 72.3671 217.076 75.3916 219.481 75.9234C221.887 76.4553 223.306 74.1609 224.595 72.534C226.86 69.5506 229.517 66.8862 232.495 64.6132Z" fill="#E3E8F4"/>
<path d="M249.179 56.172C249.89 56.556 250.553 57.0215 251.156 57.559C252.722 59.0399 253.296 61.3082 253.285 63.4566C253.275 65.605 252.763 67.7221 252.45 69.8496C251.61 75.5856 252.325 81.4571 252.659 87.266C252.761 88.2039 252.704 89.1522 252.492 90.0714C252.236 90.9475 251.709 91.7192 251.37 92.5692C250.374 95.0826 251.125 97.9506 250.541 100.589C249.914 103.4 247.77 105.955 248.172 108.807C248.333 109.923 248.871 110.95 249.1 112.056C249.33 113.161 249.132 114.496 248.177 115.091C247.222 115.685 245.834 115.252 244.696 115.581C244.234 115.751 243.784 115.953 243.35 116.186C241.592 116.978 239.494 116.707 237.762 115.842C236.064 114.915 234.537 113.706 233.248 112.264C231.26 110.231 229.334 108.004 228.463 105.298C227.19 101.376 228.322 97.1058 229.705 93.2158C231.088 89.3258 232.737 85.394 232.491 81.2589C232.356 78.9437 231.625 76.7171 231.187 74.4436C230.644 71.2936 230.45 68.0935 230.608 64.901C230.675 62.5649 230.832 60.1558 231.839 58.044C232.557 56.6352 233.617 55.4291 234.923 54.5363C236.228 53.6435 237.737 53.0924 239.311 52.9338C242.964 52.5375 246.095 54.399 249.179 56.172Z" fill="#3F3D56"/>
<path opacity="0.1" d="M239.311 106.575C239.348 108.244 239.647 109.896 240.198 111.472C241.132 109.344 241.242 106.956 241.367 104.641C241.889 96.6678 243.658 89.1485 245.542 81.4258C244.169 82.4687 243.397 85.0759 242.739 86.6403C240.13 92.9486 238.959 99.7584 239.311 106.575Z" fill="black"/>
<path d="M204.136 51.0184C201.621 51.6807 199.44 53.172 197.003 54.1471C194.473 55.19 191.749 55.6333 189.093 56.2747C182.946 57.766 176.773 60.5349 173.063 65.6608C170.329 69.4309 169.196 74.0874 167.323 78.3581C165.758 81.9404 163.671 85.2986 162.517 89.027C161.009 93.8921 161.182 99.1066 161.552 104.186C161.855 108.357 162.314 112.576 164.208 116.273C165.199 118.213 166.567 119.949 167.558 121.889C168.748 124.22 169.374 126.79 170.365 129.189C171.357 131.588 172.813 133.986 175.114 135.238L178.923 133.011C184.605 129.69 190.288 126.363 195.793 122.754C200.593 119.626 205.436 116.033 207.992 110.891C210.257 106.35 210.481 101.041 209.897 95.9987C209.313 90.9563 207.977 86.0234 207.288 80.9966C206.411 74.6698 206.543 68.2439 207.679 61.9585C208.201 59.1218 209.589 56.1912 209.876 53.365C210.194 50.3458 206.312 50.4448 204.136 51.0184Z" fill="#3F3D56"/>
<path d="M68.689 21.0461C103.529 50.5045 176.207 53.1482 208.192 50.7877C208.192 61.7639 181.636 76.6346 172.077 75.9265C162.517 75.2183 150.833 95.7542 81.4355 119.477C12.0383 143.199 0 70.6155 0 35.9169C0 1.21831 25.1388 -15.7769 68.689 21.0461Z" fill="#3F3D56"/>
<path d="M180.587 133.915C183.504 136.673 187.7 137.476 191.347 139.129C194.057 140.386 196.497 142.157 198.532 144.344C199.654 145.574 200.739 147.248 200.176 148.812C199.701 150.158 198.245 150.846 196.909 151.347C195.25 151.972 193.398 152.525 191.744 151.894C190.773 151.524 189.99 150.783 189.098 150.257C186.912 148.958 184.157 148.953 181.913 147.754C178.751 146.064 177.175 142.346 174.201 140.339C172.572 139.244 170.324 138.347 170.157 136.391C170.149 135.684 170.299 134.984 170.595 134.342C171.195 132.746 172.218 127.266 174.503 127.412C176.992 127.574 178.735 132.595 180.587 133.915Z" fill="#FBBEBE"/>
<path d="M165.304 109.473C166.259 112.904 168.476 115.83 170.778 118.552C172.432 120.507 174.248 122.634 174.305 125.195C174.357 127.614 172.74 129.841 170.652 131.077C168.565 132.313 166.107 132.709 163.691 132.865C161.759 133.051 159.809 132.916 157.92 132.464C153.151 131.171 149.843 127.015 146.091 123.803C143.863 121.899 141.358 120.241 139.652 117.858C137.946 115.475 137.226 112.054 138.906 109.65C139.512 108.871 140.213 108.17 140.993 107.565C143.843 105.095 146.273 102.181 148.189 98.9346C148.961 97.6257 149.702 96.2074 151.001 95.42C152.864 94.2884 155.254 94.8047 157.362 95.3574C159.653 95.9571 166.107 97.1304 166.556 100.05C166.739 101.25 165.252 103.117 165.027 104.405C164.742 106.094 164.836 107.825 165.304 109.473Z" fill="#FBBEBE"/>
<path d="M177.102 116.013C177.785 117.251 178.348 118.552 178.782 119.897C180.373 125.425 177.53 131.119 176.173 136.709C174.44 143.869 175.176 151.357 175.093 158.725C175.056 162.093 174.696 165.801 172.27 168.137C171.644 168.731 170.892 169.232 170.47 169.983C170.208 170.533 170.014 171.112 169.89 171.709C169.52 172.997 168.863 174.185 167.968 175.184C167.074 176.183 165.965 176.967 164.724 177.478C163.484 177.988 162.144 178.212 160.805 178.132C159.466 178.052 158.162 177.671 156.991 177.017C155.014 175.917 153.297 174.008 151.032 173.951C150.32 173.985 149.611 174.064 148.909 174.186C146.654 174.41 144.447 173.576 142.334 172.757C141.83 172.598 141.359 172.347 140.946 172.016C140.565 171.667 140.32 171.198 139.97 170.822C138.681 169.435 136.479 169.675 134.622 169.289C133.236 168.979 131.966 168.282 130.962 167.278C129.958 166.275 129.26 165.006 128.95 163.621C128.574 161.827 128.892 159.971 129.205 158.161L130.604 150.1C131.191 147.143 131.597 144.153 131.82 141.147C131.991 137.749 131.7 134.344 130.953 131.025C130.338 128.314 129.419 125.659 129.085 122.896C128.503 117.943 129.807 112.952 132.738 108.916C133.463 107.92 134.413 106.924 135.644 106.83C136.641 106.741 137.575 107.273 138.441 107.784C145.966 112.234 153.542 116.591 161.171 120.857C163.258 122.03 165.392 123.209 167.72 123.787C168.419 123.965 169.421 123.892 169.52 123.183C169.532 122.912 169.461 122.645 169.316 122.416C168.012 119.908 166.123 117.754 164.62 115.366C163.117 112.978 161.959 110.152 162.402 107.377C163.008 103.54 166.577 101 169.494 104.009C172.765 107.424 174.957 111.815 177.102 116.013Z" fill="#5ECFC4"/>
<path d="M153.733 164.679C159.854 165.07 166.11 165.487 171.777 167.834C173.598 168.585 175.529 169.555 177.444 169.09C178.397 168.801 179.284 168.326 180.053 167.693C182.412 165.964 184.641 164.065 186.722 162.009C186.513 160.867 184.963 160.711 183.805 160.721C180.98 160.738 178.194 160.069 175.686 158.771C174.861 158.275 173.986 157.868 173.076 157.556C170.598 156.873 168.072 158.177 165.583 158.813C161.899 159.751 158.017 159.204 154.255 158.651L144.101 157.154C143.156 157.019 142.092 156.909 141.34 157.493C140.838 157.968 140.494 158.585 140.354 159.261C139.112 163.433 139.707 163.782 143.84 164.043L153.733 164.679Z" fill="#FBBEBE"/>
<path opacity="0.1" d="M292.388 92.282C301.61 92.282 309.086 84.8112 309.086 75.5956C309.086 66.3799 301.61 58.9092 292.388 58.9092C283.166 58.9092 275.69 66.3799 275.69 75.5956C275.69 84.8112 283.166 92.282 292.388 92.282Z" fill="black"/>
<path d="M292.268 91.5564C301.49 91.5564 308.966 84.0856 308.966 74.87C308.966 65.6543 301.49 58.1836 292.268 58.1836C283.046 58.1836 275.57 65.6543 275.57 74.87C275.57 84.0856 283.046 91.5564 292.268 91.5564Z" fill="#FBBEBE"/>
<path d="M306.361 53.6845C307.697 54.5084 309.096 55.3948 309.826 56.7819C310.219 57.7236 310.518 58.7017 310.719 59.702C311.632 62.8307 314.063 65.5475 314.209 68.8065C314.371 72.3785 311.689 75.4811 308.652 77.3531C307.959 77.8636 307.123 78.1445 306.262 78.1561C305.38 78.0988 304.619 77.546 303.81 77.1914C300.382 75.6688 296.546 77.5982 292.915 78.4846C289.141 79.3954 285.181 79.1631 281.539 77.8172C279.583 77.0872 277.683 75.9921 276.457 74.2974C275.231 72.6027 274.792 70.2301 275.836 68.4102C276.358 67.482 277.224 66.6425 277.167 65.584C277.135 64.9478 276.76 64.3742 276.645 63.7485C276.478 62.7525 277 61.7826 277.532 60.9326C279.947 57.0491 282.998 53.5993 286.559 50.7279C287.603 49.8727 288.808 49.0384 290.175 48.9758C292.92 48.8558 295.278 50.8999 298.101 50.9104C301.305 50.9208 303.606 51.9845 306.361 53.6845Z" fill="#3F3D56"/>
<path opacity="0.1" d="M230.8 71.3464C240.31 71.3464 248.019 63.6422 248.019 54.1385C248.019 44.6349 240.31 36.9307 230.8 36.9307C221.29 36.9307 213.58 44.6349 213.58 54.1385C213.58 63.6422 221.29 71.3464 230.8 71.3464Z" fill="black"/>
<path d="M231.102 70.9235C240.612 70.9235 248.322 63.2193 248.322 53.7157C248.322 44.212 240.612 36.5078 231.102 36.5078C221.592 36.5078 213.883 44.212 213.883 53.7157C213.883 63.2193 221.592 70.9235 231.102 70.9235Z" fill="#BE6F72"/>
<path d="M240.302 63.4359C242.734 64.7969 245.734 64.6561 248.448 64.0356C249.987 63.7466 251.446 63.1314 252.727 62.2314C253.363 61.7771 253.887 61.1843 254.261 60.4978C254.634 59.8112 254.846 59.0489 254.882 58.2684C254.882 56.5215 253.734 54.9467 253.593 53.1999C253.42 50.9993 254.855 48.9657 255.007 46.7547C255.158 44.5438 254.068 42.5518 253.003 40.6538C251.172 37.3947 249.267 34.0939 246.481 31.6014C243.694 29.1089 239.833 27.5184 236.18 28.358C234.385 28.7699 232.721 29.7346 230.889 29.9223C229.261 30.0735 227.654 29.5834 226.031 29.3748C224.408 29.1662 222.587 29.2966 221.424 30.4177C220.787 31.0434 220.38 31.9247 219.634 32.3836C219.128 32.6168 218.604 32.8103 218.068 32.9624C216.185 33.7185 215.324 35.8408 214.656 37.7493L210.179 50.5717C211.676 51.6146 213.482 52.0892 215.12 52.8922C216.759 53.6952 218.35 54.978 218.684 56.7718C218.94 58.1328 218.454 59.6971 219.248 60.8339C219.973 61.8768 221.45 62.0541 222.702 61.8768C223.954 61.6995 225.212 61.2667 226.464 61.4596C229.595 61.9341 230.759 63.8531 233.655 61.4596C236.551 59.0662 237.61 61.9237 240.302 63.4359Z" fill="#3F3D56"/>
<path opacity="0.1" d="M157.925 108.164C166.57 108.164 173.579 101.16 173.579 92.5205C173.579 83.8808 166.57 76.877 157.925 76.877C149.279 76.877 142.271 83.8808 142.271 92.5205C142.271 101.16 149.279 108.164 157.925 108.164Z" fill="black"/>
<path d="M158.529 107.315C167.175 107.315 174.183 100.312 174.183 91.6718C174.183 83.0322 167.175 76.0283 158.529 76.0283C149.884 76.0283 142.875 83.0322 142.875 91.6718C142.875 100.312 149.884 107.315 158.529 107.315Z" fill="#FBBEBE"/>
<path d="M170.514 76.3772C166.788 73.5198 162.6 71.319 158.132 69.8695C155.273 68.9413 152.163 68.3051 149.261 69.1603C145.327 70.2814 140.062 71.9553 137.625 75.2456C136.425 76.8621 135.209 78.5256 134.63 80.4601C133.472 84.3502 135.121 88.4957 135.011 92.5526C134.881 97.2821 132.371 101.6 129.631 105.458C126.892 109.317 126.339 114.845 124.721 119.298C124.168 120.826 123.991 122.948 125.415 123.714C126.667 124.408 128.181 123.542 129.339 122.708L136.305 117.676C136.847 117.231 137.471 116.898 138.142 116.696C139.577 116.362 140.98 117.259 142.181 118.109L156.791 128.434C157.08 127.844 157.236 127.199 157.247 126.543C157.259 125.887 157.126 125.237 156.859 124.637C158.231 125.06 159.228 126.202 160.433 127.015C161.639 127.829 163.47 128.095 164.347 126.958C165.223 125.821 164.561 124.293 163.585 123.375C162.609 122.458 161.326 121.91 160.371 120.966C158.477 119.084 158.283 116.112 157.089 113.734C156.233 112.065 154.85 110.668 154.245 108.89C153.258 105.985 154.547 102.856 155.81 100.061C157.318 96.745 159.024 93.2044 162.233 91.4732C163.314 90.8891 164.509 90.545 165.615 90.0131C168.37 88.6938 171.809 85.5808 173.155 82.791C174.334 80.3141 172.518 77.9207 170.514 76.3772Z" fill="#3F3D56"/>
<path opacity="0.1" d="M146.821 128.074C148.319 129.029 150.009 129.639 151.481 130.635C152.952 131.631 154.241 133.143 154.283 134.916C154.325 136.611 153.239 138.097 152.196 139.442L139.485 156.113L145.965 157.828C144.922 159.268 144.656 161.103 144.113 162.793C143.57 164.482 142.548 166.239 140.815 166.683C139.25 167.084 137.611 166.26 135.994 166.354C134.799 166.427 133.672 166.99 132.477 167.037C130.938 167.095 129.508 166.286 128.224 165.431C125.365 163.517 122.526 160.775 122.547 157.333C122.615 156.169 122.848 155.021 123.241 153.923C125.114 147.817 127.055 141.564 130.938 136.485C133.025 133.774 135.576 131.485 138.128 129.211C138.708 128.628 139.391 128.156 140.142 127.819C141.812 127.193 143.633 127.965 145.36 128.466C147.087 128.966 149.263 129.039 150.26 127.563" fill="black"/>
<path d="M146.273 127.047C147.771 127.996 149.461 128.611 150.933 129.607C152.404 130.603 153.693 132.115 153.74 133.883C153.787 135.65 152.697 137.069 151.653 138.414L138.937 155.069L145.417 156.785C144.374 158.224 144.108 160.054 143.565 161.749C143.022 163.444 142 165.196 140.267 165.639C138.702 166.041 137.063 165.217 135.446 165.311C134.251 165.378 133.124 165.947 131.929 165.988C130.389 166.046 128.96 165.238 127.676 164.382C124.817 162.474 121.978 159.726 122.004 156.289C122.067 155.125 122.299 153.976 122.693 152.879C124.566 146.768 126.507 140.516 130.389 135.442C132.477 132.725 135.034 130.436 137.58 128.142C138.163 127.561 138.845 127.09 139.594 126.749C141.264 126.124 143.085 126.895 144.812 127.401C146.539 127.907 148.715 127.975 149.712 126.499" fill="#5ECFC4"/>
<g opacity="0.1">
<path opacity="0.1" d="M277.001 70.8386C278.227 72.5334 280.131 73.6336 282.083 74.3584C285.723 75.7097 289.685 75.9421 293.458 75.0259C297.111 74.1394 300.925 72.2101 304.354 73.7327C305.162 74.0925 305.919 74.64 306.801 74.7026C307.664 74.687 308.5 74.4047 309.196 73.8943C311.309 72.5907 313.25 70.6926 314.179 68.4556C314.179 68.5703 314.179 68.6851 314.21 68.805C314.372 72.3769 311.69 75.4795 308.653 77.3516C307.96 77.8621 307.124 78.1429 306.263 78.1546C305.381 78.0972 304.62 77.5445 303.811 77.1899C300.383 75.6673 296.547 77.5966 292.916 78.4831C289.142 79.3939 285.182 79.1615 281.54 77.8156C279.584 77.0856 277.684 75.9906 276.458 74.2959C275.232 72.6011 274.793 70.2285 275.837 68.4087L275.915 68.2783C276.084 69.2011 276.455 70.0754 277.001 70.8386Z" fill="black"/>
<path opacity="0.1" d="M277.695 62.1256C277.737 62.9286 277.252 63.6013 276.788 64.2844C276.723 64.115 276.672 63.9406 276.636 63.7629C276.48 62.8295 276.928 61.9222 277.424 61.1035C277.566 61.4283 277.658 61.773 277.695 62.1256Z" fill="black"/>
</g>
<path opacity="0.1" d="M215.877 36.0486L211.4 48.8658C212.898 49.9087 214.703 50.3884 216.342 51.1863C217.98 51.9841 219.572 53.2721 219.906 55.0658C220.161 56.4268 219.676 57.9912 220.469 59.1332C221.195 60.1761 222.671 60.3481 223.924 60.1761C225.176 60.004 226.434 59.566 227.686 59.7589C230.817 60.2334 231.98 62.1524 234.876 59.785C237.772 57.4176 238.821 60.2282 241.514 61.7404C243.945 63.1066 246.946 62.9658 249.659 62.3401C251.197 62.0527 252.656 61.4392 253.938 60.5411C254.12 60.3922 254.294 60.2338 254.46 60.0666C254.06 60.9212 253.458 61.6657 252.706 62.2358C251.425 63.1358 249.966 63.751 248.427 64.04C245.714 64.6605 242.688 64.8013 240.282 63.4403C237.59 61.9281 236.483 59.1697 233.645 61.4849C230.806 63.8001 229.575 61.9333 226.454 61.4849C225.202 61.292 223.95 61.7248 222.692 61.9021C221.435 62.0794 219.963 61.9021 219.238 60.8592C218.445 59.7224 218.93 58.158 218.674 56.7971C218.34 55.0033 216.749 53.7153 215.11 52.9175C213.472 52.1197 211.667 51.6347 210.169 50.597L214.667 37.7433C215.189 36.3301 215.763 34.8023 216.806 33.7959C216.445 34.5243 216.134 35.277 215.877 36.0486Z" fill="black"/>
<g opacity="0.1">
<path opacity="0.1" d="M158.025 125.201C159.178 125.723 160.634 125.801 161.364 124.826C162.183 123.783 161.578 122.166 160.602 121.243C159.627 120.32 158.343 119.778 157.388 118.834C155.494 116.957 155.301 113.985 154.106 111.607C153.25 109.933 151.867 108.536 151.262 106.758C150.276 103.858 151.565 100.724 152.828 97.9346C154.336 94.6182 156.042 91.0776 159.251 89.3464C160.331 88.7623 161.526 88.4182 162.632 87.8863C165.387 86.567 168.826 83.4488 170.172 80.659C171.305 78.3073 169.708 76.0233 167.809 74.4746C168.732 75.0743 169.635 75.7052 170.511 76.3779C172.52 77.9422 174.331 80.3148 173.12 82.7813C171.774 85.5711 168.336 88.6841 165.58 90.0034C164.474 90.5248 163.279 90.8794 162.199 91.4635C158.99 93.1947 157.284 96.7353 155.776 100.052C154.508 102.847 153.219 105.975 154.21 108.88C154.816 110.658 156.198 112.056 157.054 113.724C158.265 116.102 158.442 119.074 160.336 120.957C161.291 121.9 162.575 122.443 163.551 123.366C164.526 124.289 165.116 125.884 164.312 126.948C163.509 128.012 161.599 127.793 160.399 127.005C159.59 126.458 158.854 125.738 158.025 125.201Z" fill="black"/>
<path opacity="0.1" d="M126.379 120.576L133.345 115.549C133.886 115.103 134.511 114.768 135.182 114.564C136.617 114.235 138.02 115.132 139.221 115.982L153.831 126.307C154.12 125.717 154.276 125.07 154.288 124.414C154.299 123.757 154.167 123.105 153.899 122.505C155.24 122.922 156.216 124.038 157.379 124.821C157.21 124.744 157.036 124.679 156.858 124.628C157.125 125.227 157.258 125.877 157.246 126.533C157.234 127.189 157.078 127.835 156.79 128.424L142.179 118.099C140.979 117.249 139.57 116.352 138.14 116.686C137.469 116.888 136.845 117.221 136.304 117.666L129.338 122.698C128.179 123.533 126.666 124.398 125.414 123.705C125.071 123.494 124.79 123.198 124.599 122.844C124.407 122.491 124.312 122.093 124.323 121.692C125.062 121.429 125.756 121.052 126.379 120.576Z" fill="black"/>
</g>
<path d="M300.414 154.631C300.414 154.631 270.515 157.025 264.566 152.79L291.919 148.577L300.414 154.631Z" fill="#E3E8F4"/>
<path opacity="0.1" d="M300.414 154.631C300.414 154.631 270.515 157.025 264.566 152.79L291.919 148.577L300.414 154.631Z" fill="black"/>
<path d="M300.414 154.632L292.039 149.334C292.039 149.334 267.055 156.509 260.209 153.547L267.175 143.78L291.929 148.604L300.414 154.632Z" fill="#E3E8F4"/>
<path d="M263.261 84.3816C262.338 85.5474 261.597 86.8468 261.064 88.2351C260.824 88.9704 260.704 89.7369 260.501 90.4826C259.928 92.3395 259.046 94.0866 257.892 95.6502C255.319 99.389 252.105 102.997 251.458 107.487C251.145 109.703 251.489 111.956 251.927 114.151C252.165 115.599 252.578 117.012 253.159 118.359C253.822 119.788 254.808 121.045 255.564 122.427C256.256 123.783 256.838 125.192 257.307 126.64C258.199 125.748 258.727 124.554 259.441 123.511C260.156 122.468 261.221 121.53 262.478 121.514C263.929 121.514 265.124 122.713 266.559 122.901C266.783 122.946 267.015 122.925 267.227 122.839C267.748 122.593 267.79 121.89 267.748 121.326C267.336 117.389 265.082 113.505 266.147 109.688C267.128 106.157 270.634 103.952 272.476 100.786C273.812 98.4869 274.208 95.7753 274.563 93.1368C275.007 89.982 275.455 86.8012 275.257 83.6255C275.158 82.0247 273.885 71.9085 271.558 72.9671C270.749 73.3321 270.044 74.8808 269.538 75.5743L267.451 78.531L263.261 84.3816Z" fill="#3F3D56"/>
<path d="M200.806 149.642L184.019 163.298L162.422 159.44L176.965 148.03L200.806 149.642Z" fill="#E3E8F4"/>
<path opacity="0.1" d="M201.413 148.791L184.627 162.448L163.029 158.589L177.572 147.18L201.413 148.791Z" fill="black"/>
<path d="M201.291 148.067L184.505 161.718L162.902 157.865L177.45 146.45L201.291 148.067Z" fill="#E3E8F4"/>
<path opacity="0.1" d="M201.776 146.486L184.984 160.143L163.387 156.284L177.935 144.875L201.776 146.486Z" fill="black"/>
<path d="M201.651 145.762L184.865 159.418L163.268 155.56L177.81 144.15L201.651 145.762Z" fill="#E3E8F4"/>
<path d="M422.463 332.363C422.859 332.171 423.296 332.078 423.736 332.092C424.176 332.107 424.606 332.229 424.988 332.447C425.37 332.666 425.693 332.974 425.929 333.346C426.164 333.717 426.306 334.141 426.34 334.579L427.274 346.682L421.733 347.683L418.811 338.933L422.463 332.363Z" fill="#3F3D56"/>
<path d="M228.588 251.241L143.779 294.25C142.807 294.746 141.991 295.502 141.422 296.433C140.854 297.365 140.555 298.436 140.56 299.527C140.564 300.618 140.871 301.687 141.447 302.614C142.023 303.541 142.845 304.29 143.821 304.778L326.478 396.381C329.728 398.008 333.328 398.811 336.961 398.72C340.594 398.629 344.149 397.647 347.314 395.86L424.248 352.507C425.182 351.974 425.952 351.198 426.476 350.26C427 349.323 427.258 348.26 427.222 347.187C427.186 346.113 426.857 345.07 426.272 344.17C425.686 343.27 424.866 342.546 423.899 342.078L233.801 251.184C232.985 250.794 232.091 250.596 231.188 250.606C230.284 250.616 229.394 250.833 228.588 251.241Z" fill="#3F3D56"/>
<path d="M143.209 286.767L140.553 288.738L140.345 298.176C140.328 298.912 140.519 299.637 140.895 300.27C141.272 300.903 141.819 301.417 142.474 301.753L328.251 397.022C328.673 397.239 329.143 397.345 329.617 397.328C330.091 397.311 330.553 397.173 330.958 396.926C331.363 396.679 331.698 396.333 331.93 395.919C332.163 395.506 332.285 395.04 332.285 394.566V380.857L143.209 286.767Z" fill="#3F3D56"/>
<path d="M228.588 240.3L143.779 283.304C142.806 283.799 141.989 284.553 141.419 285.484C140.849 286.415 140.549 287.485 140.552 288.576C140.554 289.667 140.86 290.736 141.434 291.664C142.009 292.592 142.83 293.343 143.805 293.832L326.478 385.435C329.728 387.06 333.328 387.863 336.961 387.772C340.594 387.681 344.149 386.699 347.314 384.914L424.248 341.555C425.182 341.023 425.952 340.246 426.476 339.309C427 338.371 427.258 337.309 427.222 336.235C427.186 335.162 426.857 334.119 426.272 333.219C425.686 332.318 424.866 331.595 423.899 331.126L233.801 240.238C232.985 239.848 232.091 239.652 231.187 239.663C230.283 239.673 229.394 239.892 228.588 240.3Z" fill="#E3E8F4"/>
<path d="M246.142 248.106L152.697 295.522L313.303 375.773L409.669 326.892L246.142 248.106Z" fill="#3F3D56"/>
<path d="M372.073 361.183C377.516 361.183 381.929 358.57 381.929 355.348C381.929 352.125 377.516 349.513 372.073 349.513C366.629 349.513 362.216 352.125 362.216 355.348C362.216 358.57 366.629 361.183 372.073 361.183Z" fill="#3F3D56"/>
<path d="M192.301 264.156C192.805 264.156 193.214 263.748 193.214 263.244C193.214 262.74 192.805 262.331 192.301 262.331C191.797 262.331 191.388 262.74 191.388 263.244C191.388 263.748 191.797 264.156 192.301 264.156Z" fill="#3F3D56"/>
<path d="M189.566 271.453C190.172 271.453 190.662 270.963 190.662 270.358C190.662 269.753 190.172 269.263 189.566 269.263C188.961 269.263 188.471 269.753 188.471 270.358C188.471 270.963 188.961 271.453 189.566 271.453Z" fill="#3F3D56"/>
<path d="M193.58 268.531L204.533 263.426" stroke="#3F3D56" stroke-miterlimit="10"/>
<path d="M290.605 292.267L259.686 310.106C255.194 312.698 253.654 318.438 256.248 322.927C258.842 327.417 264.586 328.955 269.078 326.363L299.997 308.524C304.489 305.932 306.028 300.192 303.435 295.702C300.841 291.213 295.097 289.675 290.605 292.267Z" fill="#5ECFC4"/>
<path d="M318.258 306.348L287.339 324.187C282.847 326.779 281.308 332.519 283.901 337.008C286.495 341.498 292.239 343.036 296.732 340.444L327.65 322.605C332.143 320.013 333.682 314.273 331.088 309.784C328.495 305.294 322.75 303.756 318.258 306.348Z" fill="#5ECFC4"/>
<path d="M265.559 276.104L234.64 293.943C230.148 296.535 228.608 302.275 231.202 306.764C233.796 311.254 239.54 312.792 244.032 310.2L274.951 292.361C279.443 289.769 280.983 284.029 278.389 279.539C275.795 275.05 270.051 273.512 265.559 276.104Z" fill="#5ECFC4"/>
<path d="M178.005 149.844L180.89 150.244L183.397 146.702L182.673 150.49L185.558 150.89L182.226 152.832L181.502 156.62L180.166 154.032L176.834 155.974L179.341 152.432L178.005 149.844Z" fill="#65617D"/>
</svg>
