<svg width="130" height="103" viewBox="0 0 130 103" fill="none" xmlns="http://www.w3.org/2000/svg">
<g clip-path="url(#clip0)">
<path d="M79.8335 91.5924L76.364 94.7764L79.1213 90.1645C76.949 86.2376 73.3962 82.8438 73.3962 82.8438C73.3962 82.8438 66.0254 89.8833 66.0254 95.4169C66.0254 100.951 69.3254 102.883 73.3962 102.883C77.4669 102.883 80.7669 100.951 80.7669 95.4169C80.7669 94.1853 80.4012 92.8791 79.8335 91.5924Z" fill="#F2F2F2"/>
<path d="M75.4712 94.9509V95.2237C75.4549 98.3942 74.9185 100.868 73.866 102.61C73.8511 102.635 73.8349 102.66 73.82 102.685L73.7021 102.614L73.5897 102.544C74.7573 100.663 75.1705 98.0039 75.1854 95.2385C75.1867 95.1494 75.1881 95.059 75.1867 94.9685C75.1827 93.7978 75.1109 92.6136 74.9957 91.4631C74.9876 91.374 74.9781 91.2835 74.9686 91.1931C74.8088 89.6753 74.5785 88.2251 74.3428 86.9653C74.3266 86.8762 74.309 86.7871 74.2914 86.6993C73.8836 84.5686 73.4678 83.0252 73.373 82.6835C73.3621 82.6417 73.3554 82.6187 73.354 82.6133L73.4827 82.5769L73.484 82.5755L73.6141 82.5391C73.6154 82.5445 73.6385 82.6214 73.6764 82.7646C73.8213 83.2993 74.1979 84.7508 74.5677 86.6656C74.5839 86.752 74.6016 86.8411 74.6178 86.9302C74.8102 87.9524 74.9984 89.0947 75.1474 90.2938C75.1854 90.5949 75.2192 90.892 75.249 91.185C75.2599 91.2754 75.2694 91.3659 75.2775 91.455C75.4021 92.6986 75.4667 93.864 75.4712 94.9509Z" fill="white"/>
<path d="M74.5683 86.6659C74.4775 86.678 74.3854 86.6902 74.292 86.6996C74.0381 86.7257 73.7831 86.7387 73.528 86.7388C72.4406 86.7402 71.3667 86.4984 70.3854 86.0312C70.3285 86.1028 70.2716 86.1744 70.2134 86.2473C71.2456 86.7496 72.3793 87.01 73.528 87.0089C73.8004 87.0088 74.0726 86.9943 74.3434 86.9656C74.4355 86.9562 74.5276 86.944 74.6184 86.9305C75.3675 86.8234 76.096 86.6035 76.7789 86.2783C76.7207 86.2041 76.6638 86.1312 76.6082 86.0596C75.9619 86.3607 75.2745 86.565 74.5683 86.6659Z" fill="white"/>
<path d="M75.2499 91.1841C75.1564 91.1895 75.0629 91.1922 74.9695 91.1922C74.941 91.1935 74.9112 91.1935 74.8828 91.1935C73.7045 91.1935 72.5437 90.9095 71.4993 90.3657C70.4549 89.8219 69.5579 89.0344 68.8848 88.0703C68.8306 88.15 68.7765 88.2296 68.7236 88.3107C69.4252 89.2861 70.3498 90.0809 71.4209 90.6292C72.492 91.1775 73.6787 91.4635 74.8828 91.4636C74.9207 91.4636 74.9586 91.4636 74.9966 91.4622C75.0914 91.4609 75.1848 91.4582 75.2783 91.4541C76.7246 91.3803 78.1189 90.8927 79.2946 90.0498C79.2512 89.9702 79.2079 89.8905 79.1632 89.8108C78.0206 90.6384 76.6606 91.1157 75.2499 91.1841Z" fill="white"/>
<path d="M75.4719 94.9498C75.377 94.9579 75.2822 94.9633 75.1874 94.9673C75.0858 94.9714 74.9842 94.9741 74.8826 94.9741C73.2993 94.9723 71.7592 94.4593 70.4928 93.5119C69.2265 92.5645 68.302 91.2337 67.8579 89.7188C67.7969 89.8281 67.736 89.9362 67.6777 90.0455C68.1782 91.557 69.1437 92.8728 70.4371 93.806C71.7304 94.7392 73.286 95.2425 74.8826 95.2442C74.9842 95.2442 75.0858 95.2428 75.186 95.2374C75.2822 95.2347 75.377 95.2293 75.4719 95.2225C77.3871 95.0732 79.1738 94.2039 80.4702 92.7907C80.4417 92.6907 80.4092 92.5922 80.3767 92.4923C79.1245 93.9161 77.3652 94.7976 75.4719 94.9498Z" fill="white"/>
<path d="M17.7812 36.9933C27.6014 36.9933 35.5623 29.0574 35.5623 19.2681C35.5623 9.47878 27.6014 1.54297 17.7812 1.54297C7.96089 1.54297 0 9.47878 0 19.2681C0 29.0574 7.96089 36.9933 17.7812 36.9933Z" fill="#E4E4E4"/>
<path d="M17.781 34.038C25.9646 34.038 32.5986 27.4248 32.5986 19.2671C32.5986 11.1093 25.9646 4.49609 17.781 4.49609C9.59746 4.49609 2.96338 11.1093 2.96338 19.2671C2.96338 27.4248 9.59746 34.038 17.781 34.038Z" fill="#5ECFC4"/>
<path d="M65.0004 36.9933C74.8207 36.9933 82.7815 29.0575 82.7815 19.2681C82.7815 9.47879 74.8207 1.54297 65.0004 1.54297C55.1801 1.54297 47.2192 9.47879 47.2192 19.2681C47.2192 29.0575 55.1801 36.9933 65.0004 36.9933Z" fill="#E4E4E4"/>
<path d="M65.0003 34.038C73.1838 34.038 79.8179 27.4248 79.8179 19.2671C79.8179 11.1093 73.1838 4.49609 65.0003 4.49609C56.8167 4.49609 50.1826 11.1093 50.1826 19.2671C50.1826 27.4248 56.8167 34.038 65.0003 34.038Z" fill="white"/>
<path d="M112.219 36.9933C122.039 36.9933 130 29.0575 130 19.2681C130 9.47879 122.039 1.54297 112.219 1.54297C102.399 1.54297 94.438 9.47879 94.438 19.2681C94.438 29.0575 102.399 36.9933 112.219 36.9933Z" fill="#E4E4E4"/>
<path d="M112.219 34.038C120.403 34.038 127.037 27.4248 127.037 19.2671C127.037 11.1093 120.403 4.49609 112.219 4.49609C104.035 4.49609 97.4014 11.1093 97.4014 19.2671C97.4014 27.4248 104.035 34.038 112.219 34.038Z" fill="white"/>
<path d="M16.5221 24.6091C16.4956 24.6091 16.4691 24.6085 16.4425 24.6072C16.2082 24.5959 15.979 24.5342 15.7708 24.4264C15.5626 24.3186 15.3803 24.1671 15.2363 23.9825L12.9634 21.0693C12.6987 20.7293 12.5801 20.2985 12.6337 19.8715C12.6872 19.4445 12.9085 19.056 13.2489 18.7914L13.3307 18.728C13.6718 18.4641 14.1039 18.346 14.5323 18.3993C14.9607 18.4527 15.3504 18.6732 15.6159 19.0126C15.744 19.1768 15.9062 19.3115 16.0914 19.4074C16.2765 19.5033 16.4803 19.5582 16.6887 19.5684C16.8971 19.5785 17.1053 19.5436 17.2989 19.4661C17.4926 19.3886 17.6671 19.2703 17.8106 19.1193L22.4259 14.2628C22.573 14.108 22.7492 13.9836 22.9445 13.8968C23.1398 13.8099 23.3503 13.7622 23.5641 13.7565C23.7779 13.7507 23.9907 13.787 24.1904 13.8632C24.3901 13.9395 24.5728 14.0542 24.728 14.2008L24.8034 14.272C25.1169 14.568 25.2995 14.9761 25.3112 15.4065C25.3228 15.8368 25.1625 16.2541 24.8655 16.5667L17.7038 24.1022C17.5518 24.2623 17.3686 24.3899 17.1654 24.4771C16.9622 24.5642 16.7433 24.6092 16.5221 24.6091Z" fill="white"/>
<path d="M57.1963 15.6798H45.4927V5.53343C45.5047 4.90519 45.7662 4.30733 46.2197 3.87093C46.6732 3.43453 47.2818 3.1952 47.9121 3.20539H51.8024C54.7766 3.20539 57.1963 5.53369 57.1963 8.39554V15.6798Z" fill="#2F2E41"/>
<path d="M61.5293 100.584L59.3076 100.584L58.2505 92.041L61.5297 92.0412L61.5293 100.584Z" fill="#FFB6B6"/>
<path d="M62.0957 102.73L54.9316 102.729V102.639C54.9317 101.902 55.2255 101.195 55.7484 100.674C56.2713 100.152 56.9806 99.8594 57.7201 99.8594H57.7203L62.0958 99.8596L62.0957 102.73Z" fill="#2F2E41"/>
<path d="M41.0498 100.584L38.8279 100.584L37.771 92.041L41.0502 92.0412L41.0498 100.584Z" fill="#FFB6B6"/>
<path d="M41.6172 102.73L34.4531 102.729V102.639C34.4532 101.902 34.747 101.195 35.2699 100.674C35.7928 100.152 36.5021 99.8594 37.2416 99.8594H37.2417L41.6173 99.8596L41.6172 102.73Z" fill="#2F2E41"/>
<path d="M43.733 31.9512L42.2832 41.1647L56.0563 41.3452L54.2441 32.4932L43.733 31.9512Z" fill="#FFB6B6"/>
<path d="M42.6833 38.916L38.2966 50.5598L37.7529 98.8134H41.4681L50.3482 60.0442L58.5034 97.8013H62.128L59.5908 55.3472C59.5908 55.3472 60.339 46.8261 56.5099 41.798L55.5779 39.1138L42.6833 38.916Z" fill="#2F2E41"/>
<path d="M61.4998 47.9923C61.1163 47.8882 60.7604 47.7014 60.4571 47.4453C60.1539 47.1892 59.9106 46.8699 59.7445 46.5099C59.5784 46.1499 59.4936 45.758 59.4959 45.3618C59.4981 44.9656 59.5876 44.5747 59.7578 44.2166L53.8984 25.1739L58.2082 24.3223L63.5672 42.9881C64.1516 43.3131 64.5962 43.8405 64.8166 44.4703C65.037 45.1002 65.0181 45.7888 64.7632 46.4056C64.5084 47.0224 64.0354 47.5247 63.4339 47.8171C62.8325 48.1096 62.1443 48.1719 61.4998 47.9923H61.4998Z" fill="#FFB6B6"/>
<path d="M53.745 37.0397L44.2508 36.857C43.9794 36.8513 43.7174 36.757 43.5049 36.5886C43.2924 36.4203 43.1411 36.1872 43.0742 35.9249C42.5653 33.9161 41.4455 28.6809 42.0394 23.4666C42.1567 22.4565 42.4759 21.48 42.9784 20.5951C43.4808 19.7101 44.1562 18.9346 44.9645 18.3144C45.7729 17.6942 46.6979 17.2419 47.6847 16.9844C48.6715 16.7268 49.7001 16.6691 50.7096 16.8147C51.7746 16.9667 52.7953 17.3414 53.7047 17.9143C54.6142 18.4872 55.3919 19.2453 55.9868 20.1389C56.5816 21.0325 56.9803 22.0413 57.1565 23.0993C57.3327 24.1572 57.2826 25.2404 57.0094 26.2776C55.8142 30.8018 55.1392 34.0385 55.003 35.8979C54.9828 36.1667 54.8749 36.4216 54.6958 36.6236C54.5166 36.8256 54.2761 36.9635 54.0109 37.0164C53.932 37.032 53.8518 37.0399 53.7714 37.04C53.7626 37.04 53.7538 37.0399 53.745 37.0397Z" fill="#E4E4E4"/>
<path d="M24.9055 20.3135C24.9625 20.4411 25.0093 20.5728 25.0456 20.7077L36.9297 24.7333L39.226 22.7335L42.7066 25.7937L38.9864 29.7278C38.6859 30.0456 38.2901 30.2577 37.8583 30.3321C37.4266 30.4066 36.9823 30.3395 36.5921 30.1408L23.8754 23.6656C23.4155 23.9468 22.8807 24.0817 22.342 24.0525C21.8033 24.0233 21.2863 23.8313 20.8597 23.502C20.4331 23.1727 20.1173 22.7218 19.9541 22.2092C19.7909 21.6966 19.7881 21.1466 19.9461 20.6324C20.1041 20.1182 20.4154 19.6641 20.8386 19.3306C21.2619 18.9971 21.7769 18.7999 22.3153 18.7653C22.8537 18.7306 23.3898 18.8602 23.8525 19.1368C24.3152 19.4134 24.6825 19.8238 24.9055 20.3135V20.3135Z" fill="#FFB6B6"/>
<path d="M36.9551 24.091C36.956 23.9278 36.9922 23.7668 37.0613 23.6189C37.1303 23.471 37.2306 23.3396 37.3552 23.2339L41.7066 19.5389C42.2573 18.9099 43.0357 18.5242 43.8712 18.4665C44.7068 18.4088 45.5311 18.6838 46.1635 19.2312C46.7959 19.7786 47.1847 20.5536 47.2447 21.3863C47.3046 22.2191 47.0308 23.0415 46.4832 23.6733L43.3845 28.4834C43.296 28.6207 43.179 28.7374 43.0412 28.8255C42.9035 28.9136 42.7483 28.971 42.5862 28.9939C42.4242 29.0169 42.2591 29.0047 42.1022 28.9583C41.9453 28.9119 41.8003 28.8323 41.677 28.725L37.3448 24.953C37.2214 24.8457 37.1228 24.7132 37.0555 24.5644C36.9883 24.4156 36.954 24.2541 36.9551 24.091Z" fill="#E4E4E4"/>
<path d="M53.6357 29.998C53.4908 29.9221 53.3641 29.8159 53.2642 29.6867C53.1643 29.5574 53.0935 29.4083 53.0567 29.2493L51.7701 23.6974C51.4637 22.9205 51.4789 22.0542 51.8122 21.2884C52.1456 20.5226 52.77 19.9199 53.5486 19.6124C54.3271 19.3048 55.1962 19.3176 55.9653 19.648C56.7343 19.9783 57.3406 20.5991 57.6512 21.3744L60.5076 26.3313C60.5891 26.4728 60.6391 26.6301 60.6541 26.7926C60.6692 26.9551 60.6489 27.1188 60.5947 27.2728C60.5405 27.4267 60.4536 27.5672 60.3401 27.6847C60.2265 27.8021 60.0888 27.8938 59.9365 27.9535L54.5827 30.0501C54.4304 30.1099 54.2669 30.1361 54.1035 30.1271C53.9401 30.1181 53.7805 30.0741 53.6357 29.998Z" fill="#E4E4E4"/>
<path d="M58.241 4.19588C58.6806 3.17001 57.9246 1.86473 56.5525 1.28044C55.1803 0.696154 53.7116 1.05412 53.272 2.07999C52.8324 3.10586 53.5884 4.41116 54.9606 4.99545C56.3327 5.57973 57.8014 5.22175 58.241 4.19588Z" fill="#2F2E41"/>
<path d="M53.9851 11.8213C55.453 9.14453 54.4661 5.78833 51.7808 4.32506C49.0956 2.86179 45.7288 3.84555 44.2609 6.52236C42.793 9.19916 43.7799 12.5554 46.4651 14.0186C49.1504 15.4819 52.5172 14.4981 53.9851 11.8213Z" fill="#FFB6B6"/>
<path d="M52.1618 2.84586H45.8237C45.3591 2.83986 44.9093 3.00921 44.5647 3.31993C44.22 3.63066 44.006 4.05978 43.9654 4.52125C43.949 4.76648 43.9833 5.01246 44.0662 5.24394C44.1491 5.47541 44.2787 5.68746 44.4472 5.86693C44.6156 6.04641 44.8192 6.18949 45.0454 6.28731C45.2716 6.38514 45.5155 6.43562 45.7621 6.43562C46.2396 6.43562 46.6976 6.62472 47.0353 6.96133C47.3729 7.29794 47.5626 7.75447 47.5626 8.23051V15.5895H57.4657V8.13298C57.4657 7.43867 57.3285 6.75115 57.0619 6.10969C56.7954 5.46822 56.4047 4.88538 55.9122 4.39442C55.4197 3.90346 54.835 3.51402 54.1915 3.24831C53.548 2.98261 52.8583 2.84586 52.1618 2.84586Z" fill="#2F2E41"/>
<path d="M83.4056 103H14.8046C14.7568 103 14.711 102.981 14.6773 102.947C14.6435 102.913 14.6245 102.868 14.6245 102.82C14.6245 102.773 14.6435 102.727 14.6773 102.693C14.711 102.66 14.7568 102.641 14.8046 102.641H83.4056C83.4534 102.641 83.4992 102.66 83.533 102.693C83.5667 102.727 83.5857 102.773 83.5857 102.82C83.5857 102.868 83.5667 102.913 83.533 102.947C83.4992 102.981 83.4534 103 83.4056 103Z" fill="#CACACA"/>
</g>
<defs>
<clipPath id="clip0">
<rect width="130" height="102.777" fill="white" transform="translate(0 0.222656)"/>
</clipPath>
</defs>
</svg>
